<svg width="18" height="16" viewBox="0 0 18 16" fill="none" xmlns="http://www.w3.org/2000/svg">
<g id="Icon">
<path id="Vector" d="M2.28516 8.00015C2.86993 4.81658 5.65913 2.4043 9.01178 2.4043C12.3644 2.4043 15.1536 4.81658 15.7384 8.00015C15.1536 11.1837 12.3644 13.596 9.01178 13.596C5.65913 13.596 2.86993 11.1837 2.28516 8.00015ZM9.01178 11.109C10.7287 11.109 12.1206 9.71708 12.1206 8.00015C12.1206 6.28321 10.7287 4.89134 9.01178 4.89134C7.29481 4.89134 5.90295 6.28321 5.90295 8.00015C5.90295 9.71708 7.29481 11.109 9.01178 11.109ZM9.01178 9.86544C7.98159 9.86544 7.14647 9.03035 7.14647 8.00015C7.14647 6.96995 7.98159 6.13487 9.01178 6.13487C10.0419 6.13487 10.8771 6.96995 10.8771 8.00015C10.8771 9.03035 10.0419 9.86544 9.01178 9.86544Z" fill="#48C54D"/>
</g>
</svg>
