<svg width="24" height="24" viewBox="0 0 24 24" fill="none" xmlns="http://www.w3.org/2000/svg">
<g id="Icon">
<path id="Vector" d="M9.89617 2.5332H3.58505C3.30609 2.5332 3.03854 2.64402 2.84128 2.84128C2.64402 3.03854 2.5332 3.30609 2.5332 3.58505V9.89617C2.5332 10.1751 2.64402 10.4427 2.84128 10.6399C3.03854 10.8372 3.30609 10.948 3.58505 10.948H9.89617C10.1751 10.948 10.4427 10.8372 10.6399 10.6399C10.8372 10.4427 10.948 10.1751 10.948 9.89617V3.58505C10.948 3.30609 10.8372 3.03854 10.6399 2.84128C10.4427 2.64402 10.1751 2.5332 9.89617 2.5332ZM20.4147 2.5332H14.1036C13.8246 2.5332 13.5571 2.64402 13.3598 2.84128C13.1625 3.03854 13.0517 3.30609 13.0517 3.58505V9.89617C13.0517 10.1751 13.1625 10.4427 13.3598 10.6399C13.5571 10.8372 13.8246 10.948 14.1036 10.948H20.4147C20.6937 10.948 20.9612 10.8372 21.1585 10.6399C21.3557 10.4427 21.4665 10.1751 21.4665 9.89617V3.58505C21.4665 3.30609 21.3557 3.03854 21.1585 2.84128C20.9612 2.64402 20.6937 2.5332 20.4147 2.5332ZM9.89617 13.0517H3.58505C3.30609 13.0517 3.03854 13.1625 2.84128 13.3598C2.64402 13.5571 2.5332 13.8246 2.5332 14.1036V20.4147C2.5332 20.6937 2.64402 20.9612 2.84128 21.1585C3.03854 21.3557 3.30609 21.4665 3.58505 21.4665H9.89617C10.1751 21.4665 10.4427 21.3557 10.6399 21.1585C10.8372 20.9612 10.948 20.6937 10.948 20.4147V14.1036C10.948 13.8246 10.8372 13.5571 10.6399 13.3598C10.4427 13.1625 10.1751 13.0517 9.89617 13.0517ZM17.2591 13.0517C18.0823 13.0517 18.8874 13.2932 19.5747 13.7463C20.262 14.1993 20.8013 14.844 21.1258 15.6005C21.4503 16.3571 21.5458 17.1922 21.4004 18.0024C21.2549 18.8126 20.875 19.5624 20.3077 20.1589C19.7403 20.7553 19.0105 21.1723 18.2085 21.358C17.4066 21.5438 16.5678 21.4902 15.7959 21.2039C15.0241 20.9176 14.3533 20.4113 13.8664 19.7475C13.3796 19.0837 13.0981 18.2917 13.057 17.4695L13.0517 17.2591L13.057 17.0488C13.111 15.9707 13.5772 14.9545 14.3594 14.2106C15.1415 13.4666 16.1797 13.0517 17.2591 13.0517Z" fill="#FBFBFB"/>
</g>
</svg>
