<svg width="23" height="20" viewBox="0 0 23 20" fill="none" xmlns="http://www.w3.org/2000/svg">
<g id="Icon">
<path id="Vector" d="M14.7055 11.7412L17.7204 14.7561L16.7249 15.7517L13.7099 12.7367C12.6258 13.604 11.251 14.1229 9.75578 14.1229C6.25838 14.1229 3.41992 11.2844 3.41992 7.78703C3.41992 4.28963 6.25838 1.45117 9.75578 1.45117C13.2532 1.45117 16.0916 4.28963 16.0916 7.78703C16.0916 9.28229 15.5728 10.6571 14.7055 11.7412ZM13.2931 11.2188C14.1539 10.3316 14.6837 9.1215 14.6837 7.78703C14.6837 5.06437 12.4784 2.85914 9.75578 2.85914C7.03312 2.85914 4.82789 5.06437 4.82789 7.78703C4.82789 10.5097 7.03312 12.7149 9.75578 12.7149C11.0902 12.7149 12.3004 12.1852 13.1876 11.3243L13.2931 11.2188Z" fill="#252525"/>
</g>
</svg>
