<svg width="151" height="150" viewBox="0 0 151 150" fill="none" xmlns="http://www.w3.org/2000/svg">
<path id="Vector" d="M75.5 150C34.0786 150 0.5 116.421 0.5 75C0.5 33.5786 34.0786 0 75.5 0C116.921 0 150.5 33.5786 150.5 75C150.5 116.421 116.921 150 75.5 150ZM75.5 135C108.637 135 135.5 108.137 135.5 75C135.5 41.8629 108.637 15 75.5 15C42.3629 15 15.5 41.8629 15.5 75C15.5 108.137 42.3629 135 75.5 135ZM68.0195 105L36.1999 73.1805L46.8066 62.5732L68.0195 83.787L110.446 41.3604L121.053 51.967L68.0195 105Z" fill="#48C54D"/>
</svg>
