<svg width="41" height="40" viewBox="0 0 41 40" fill="none" xmlns="http://www.w3.org/2000/svg">
<rect x="0.333984" width="40" height="40" rx="8" fill="#FB8312"/>
<path fill-rule="evenodd" clip-rule="evenodd" d="M15.3672 31.4427C16.0116 31.7507 16.7166 31.9107 17.4307 31.9111H27.683C28.8262 31.9111 29.9318 31.5022 30.8004 30.7581C31.6689 30.014 32.2433 28.9837 32.4198 27.8531L33.6203 20.169C33.7062 19.6212 33.6725 19.0613 33.5215 18.5278C33.3705 17.9942 33.1059 17.4998 32.7458 17.0784C32.3857 16.657 31.9386 16.3187 31.4354 16.0868C30.9322 15.8548 30.3848 15.7348 29.8308 15.7348H23.5368V11.2123C23.5377 10.5214 23.3094 9.84969 22.8877 9.30267C22.4661 8.75565 21.8749 8.36424 21.207 8.18986C20.5391 8.01547 19.8322 8.06799 19.1973 8.33915C18.5625 8.61032 18.0355 9.08479 17.6991 9.68813L13.716 16.8098C13.4756 17.2397 13.3495 17.7242 13.3497 18.2168V28.6632C13.3496 29.207 13.5034 29.7397 13.7932 30.1997C14.083 30.6597 14.4971 31.0281 14.9874 31.2623L15.371 31.4446L15.3672 31.4427ZM8.912 17.161C8.661 17.1608 8.41242 17.2101 8.18045 17.306C7.94849 17.402 7.7377 17.5428 7.56013 17.7203C7.38256 17.8979 7.24169 18.1088 7.14558 18.3409C7.04947 18.5729 7 18.8217 7 19.0729V28.8858C7 29.3934 7.20144 29.8802 7.56001 30.2391C7.91858 30.598 8.40491 30.7997 8.912 30.7997H9.8632C10.1175 30.7997 10.3614 30.6985 10.5412 30.5185C10.7211 30.3385 10.8221 30.0944 10.8221 29.8399V18.1189C10.8221 17.8644 10.7211 17.6202 10.5412 17.4402C10.3614 17.2602 10.1175 17.1591 9.8632 17.1591L8.912 17.161Z" fill="#FDDFC3"/>
</svg>
