<svg width="44" height="42" viewBox="0 0 44 42" fill="none" xmlns="http://www.w3.org/2000/svg">
<rect y="0.845703" width="44" height="40.3077" rx="8" fill="#FB8312"/>
<path d="M21.1474 5.84961C23.8945 5.84918 26.5478 6.8546 28.6122 8.6782C30.6766 10.5018 32.011 13.019 32.3664 15.76L35.548 20.7955C35.7573 21.127 35.7149 21.6208 35.2299 21.8314L32.4598 23.0237V27.1928C32.4598 27.9475 32.1618 28.6713 31.6314 29.205C31.1011 29.7387 30.3817 30.0385 29.6317 30.0385H26.805L26.8036 34.3072H14.0772V29.0511C14.0772 27.3721 13.4607 25.7827 12.3168 24.3484C10.9843 22.6744 10.149 20.6555 9.90709 18.5246C9.66517 16.3936 10.0265 14.2373 10.9494 12.3039C11.8723 10.3706 13.3192 8.73899 15.1235 7.59707C16.9278 6.45514 19.016 5.84939 21.1474 5.84961ZM20.398 14.0497C19.9314 13.596 19.3064 13.3449 18.6575 13.3504C18.0087 13.3559 17.388 13.6177 16.9291 14.0793C16.4702 14.5409 16.2098 15.1653 16.2041 15.8182C16.1983 16.4711 16.4476 17.1001 16.8983 17.5699L21.1474 21.847L25.3966 17.5699C25.6329 17.3401 25.8214 17.0653 25.951 16.7615C26.0807 16.4577 26.1489 16.1309 26.1516 15.8003C26.1544 15.4697 26.0918 15.1418 25.9673 14.8358C25.8428 14.5298 25.659 14.2518 25.4266 14.0181C25.1942 13.7843 24.9179 13.5995 24.6137 13.4743C24.3096 13.3492 23.9837 13.2863 23.6552 13.2892C23.3266 13.2922 23.0019 13.3609 22.7 13.4915C22.3981 13.622 22.1251 13.8118 21.8969 14.0497L21.1474 14.8038L20.398 14.0497Z" fill="#FDDFC3"/>
</svg>
