<svg width="20" height="20" viewBox="0 0 20 20" fill="none" xmlns="http://www.w3.org/2000/svg">
<path fill-rule="evenodd" clip-rule="evenodd" d="M9.95341 19.0673C11.0174 19.0673 12.0709 18.8328 13.0539 18.3771C14.0368 17.9214 14.93 17.2535 15.6823 16.4116C16.4346 15.5696 17.0314 14.57 17.4385 13.4699C17.8457 12.3698 18.0553 11.1907 18.0553 9.99998C18.0553 8.80923 17.8457 7.63015 17.4385 6.53005C17.0314 5.42994 16.4346 4.43037 15.6823 3.58838C14.93 2.7464 14.0368 2.07851 13.0539 1.62283C12.0709 1.16715 11.0174 0.932617 9.95341 0.932617C7.80467 0.932617 5.74393 1.88793 4.22454 3.58838C2.70515 5.28884 1.85156 7.59516 1.85156 9.99998C1.85156 12.4048 2.70515 14.7111 4.22454 16.4116C5.74393 18.112 7.80467 19.0673 9.95341 19.0673ZM10.8536 4.45881C10.8536 4.19161 10.7588 3.93535 10.59 3.74641C10.4211 3.55747 10.1922 3.45133 9.95341 3.45133C9.71466 3.45133 9.48569 3.55747 9.31687 3.74641C9.14805 3.93535 9.05321 4.19161 9.05321 4.45881V9.7481C9.05321 10.4433 9.55732 11.0075 10.1785 11.0075H13.1041C13.3429 11.0075 13.5719 10.9013 13.7407 10.7124C13.9095 10.5234 14.0043 10.2672 14.0043 9.99998C14.0043 9.73277 13.9095 9.47652 13.7407 9.28758C13.5719 9.09864 13.3429 8.99249 13.1041 8.99249H10.8536V4.45881Z" fill="#FBFBFB"/>
</svg>
