<svg width="20" height="20" viewBox="0 0 20 20" fill="none" xmlns="http://www.w3.org/2000/svg">
<path d="M1.44531 9.99793C1.44574 8.12221 2.06258 6.29861 3.2009 4.80779C4.33922 3.31696 5.93592 2.24154 7.74528 1.74702C9.55464 1.25251 11.4764 1.36631 13.2147 2.07092C14.9531 2.77552 16.4117 4.03188 17.3661 5.64664C18.3205 7.26139 18.7178 9.14504 18.4968 11.0077C18.2759 12.8704 17.4489 14.6088 16.1432 15.9555C14.8375 17.3021 13.1255 18.1823 11.2705 18.4607C9.41556 18.7391 7.52054 18.4001 5.87709 17.496L2.55069 18.509C2.40232 18.5542 2.24446 18.5582 2.09398 18.5206C1.94351 18.483 1.80609 18.4052 1.69641 18.2955C1.58674 18.1859 1.50895 18.0484 1.47135 17.898C1.43375 17.7475 1.43776 17.5896 1.48296 17.4413L2.49593 14.1097C1.80595 12.8491 1.44463 11.435 1.44531 9.99793ZM6.57864 9.14237C6.57864 9.36928 6.66878 9.5869 6.82923 9.74734C6.98968 9.90779 7.20729 9.99793 7.4342 9.99793H12.5675C12.7944 9.99793 13.012 9.90779 13.1725 9.74734C13.3329 9.5869 13.4231 9.36928 13.4231 9.14237C13.4231 8.91547 13.3329 8.69785 13.1725 8.53741C13.012 8.37696 12.7944 8.28682 12.5675 8.28682H7.4342C7.20729 8.28682 6.98968 8.37696 6.82923 8.53741C6.66878 8.69785 6.57864 8.91547 6.57864 9.14237ZM7.4342 11.709C7.20729 11.709 6.98968 11.7992 6.82923 11.9596C6.66878 12.1201 6.57864 12.3377 6.57864 12.5646C6.57864 12.7915 6.66878 13.0091 6.82923 13.1696C6.98968 13.33 7.20729 13.4201 7.4342 13.4201H10.8564C11.0833 13.4201 11.3009 13.33 11.4614 13.1696C11.6218 13.0091 11.712 12.7915 11.712 12.5646C11.712 12.3377 11.6218 12.1201 11.4614 11.9596C11.3009 11.7992 11.0833 11.709 10.8564 11.709H7.4342Z" fill="#FBFBFB"/>
</svg>
