<svg width="20" height="20" viewBox="0 0 20 20" fill="none" xmlns="http://www.w3.org/2000/svg">
<path d="M1.66797 15.8337C1.66797 17.2503 2.7513 18.3337 4.16797 18.3337H15.8346C17.2513 18.3337 18.3346 17.2503 18.3346 15.8337V9.16699H1.66797V15.8337ZM15.8346 3.33366H14.168V2.50033C14.168 2.00033 13.8346 1.66699 13.3346 1.66699C12.8346 1.66699 12.5013 2.00033 12.5013 2.50033V3.33366H7.5013V2.50033C7.5013 2.00033 7.16797 1.66699 6.66797 1.66699C6.16797 1.66699 5.83464 2.00033 5.83464 2.50033V3.33366H4.16797C2.7513 3.33366 1.66797 4.41699 1.66797 5.83366V7.50033H18.3346V5.83366C18.3346 4.41699 17.2513 3.33366 15.8346 3.33366Z" fill="#FBFBFB"/>
</svg>
