<svg width="20" height="20" viewBox="0 0 20 20" fill="none" xmlns="http://www.w3.org/2000/svg">
<path fill-rule="evenodd" clip-rule="evenodd" d="M1.31777 4.09516C0.777344 4.63465 0.777344 5.50189 0.777344 7.2382V12.762C0.777344 14.4983 0.777344 15.3656 1.31777 15.9051C1.85819 16.4446 2.72692 16.4446 4.46623 16.4446H15.5329C17.2722 16.4446 18.1409 16.4446 18.6814 15.9051C19.2218 15.3656 19.2218 14.4983 19.2218 12.762V7.2382C19.2218 5.50189 19.2218 4.63465 18.6814 4.09516C18.1409 3.55566 17.2722 3.55566 15.5329 3.55566H4.46623C2.72692 3.55566 1.85819 3.55566 1.31777 4.09516ZM3.54401 5.39693C3.29942 5.39693 3.06485 5.49393 2.8919 5.66658C2.71895 5.83923 2.62179 6.0734 2.62179 6.31757C2.62179 6.56174 2.71895 6.7959 2.8919 6.96856C3.06485 7.14121 3.29942 7.2382 3.54401 7.2382H5.38845C5.63304 7.2382 5.86761 7.14121 6.04056 6.96856C6.21351 6.7959 6.31068 6.56174 6.31068 6.31757C6.31068 6.0734 6.21351 5.83923 6.04056 5.66658C5.86761 5.49393 5.63304 5.39693 5.38845 5.39693H3.54401ZM13.6885 13.6826C13.6885 13.4385 13.7856 13.2043 13.9586 13.0317C14.1315 12.859 14.3661 12.762 14.6107 12.762H16.4551C16.6997 12.762 16.9343 12.859 17.1072 13.0317C17.2802 13.2043 17.3773 13.4385 17.3773 13.6826C17.3773 13.9268 17.2802 14.161 17.1072 14.3336C16.9343 14.5063 16.6997 14.6033 16.4551 14.6033H14.6107C14.3661 14.6033 14.1315 14.5063 13.9586 14.3336C13.7856 14.161 13.6885 13.9268 13.6885 13.6826ZM10.9218 10.0001C10.9218 10.2443 10.8246 10.4784 10.6517 10.6511C10.4787 10.8237 10.2442 10.9207 9.99957 10.9207C9.75498 10.9207 9.52041 10.8237 9.34746 10.6511C9.17451 10.4784 9.07734 10.2443 9.07734 10.0001C9.07734 9.75594 9.17451 9.52177 9.34746 9.34912C9.52041 9.17647 9.75498 9.07947 9.99957 9.07947C10.2442 9.07947 10.4787 9.17647 10.6517 9.34912C10.8246 9.52177 10.9218 9.75594 10.9218 10.0001ZM12.7662 10.0001C12.7662 10.7326 12.4747 11.4351 11.9559 11.9531C11.437 12.471 10.7333 12.762 9.99957 12.762C9.2658 12.762 8.56209 12.471 8.04324 11.9531C7.52439 11.4351 7.2329 10.7326 7.2329 10.0001C7.2329 9.26761 7.52439 8.5651 8.04324 8.04715C8.56209 7.52919 9.2658 7.2382 9.99957 7.2382C10.7333 7.2382 11.437 7.52919 11.9559 8.04715C12.4747 8.5651 12.7662 9.26761 12.7662 10.0001Z" fill="#FBFBFB"/>
</svg>
