<svg width="18" height="18" viewBox="0 0 18 18" fill="none" xmlns="http://www.w3.org/2000/svg">
<g id="Icon">
<path id="Vector" d="M8.34278 6.98718C8.7333 7.37771 9.36647 7.37771 9.757 6.98718L12.8166 3.92758C13.1633 3.58087 13.7254 3.58087 14.0721 3.92759C14.4188 4.2743 14.4188 4.83642 14.0721 5.18313L11.0125 8.24273C10.622 8.63326 10.622 9.26642 11.0125 9.65695L14.0721 12.7165C14.4188 13.0632 14.4188 13.6253 14.0721 13.972C13.7254 14.3187 13.1633 14.3187 12.8166 13.972L9.75699 10.9125C9.36646 10.522 8.7333 10.522 8.34278 10.9125L5.28323 13.972C4.93652 14.3187 4.3744 14.3187 4.02768 13.972C3.68097 13.6253 3.68097 13.0632 4.02768 12.7165L7.08724 9.65694C7.47776 9.26642 7.47776 8.63326 7.08724 8.24273L4.02767 5.18314C3.68097 4.83643 3.68097 4.2743 4.02768 3.92759C4.37439 3.58087 4.93653 3.58088 5.28324 3.92759L8.34278 6.98718Z" fill="#FBFBFB"/>
</g>
</svg>
