<svg width="26" height="26" viewBox="0 0 26 26" fill="none" xmlns="http://www.w3.org/2000/svg">
<rect width="26" height="26" rx="8" fill="#FB8312"/>
<path d="M12.3428 10.9874C12.7333 11.3779 13.3665 11.3779 13.757 10.9874L16.8166 7.92777C17.1633 7.58106 17.7254 7.58106 18.0721 7.92777C18.4188 8.27448 18.4188 8.83661 18.0721 9.18331L15.0125 12.2429C14.622 12.6334 14.622 13.2666 15.0125 13.6571L18.0721 16.7167C18.4188 17.0634 18.4188 17.6255 18.0721 17.9722C17.7254 18.3189 17.1633 18.3189 16.8166 17.9722L13.757 14.9127C13.3665 14.5221 12.7333 14.5222 12.3428 14.9127L9.28323 17.9722C8.93652 18.3189 8.3744 18.3189 8.02768 17.9722C7.68097 17.6255 7.68097 17.0634 8.02768 16.7167L11.0872 13.6571C11.4778 13.2666 11.4778 12.6334 11.0872 12.2429L8.02767 9.18332C7.68097 8.83661 7.68097 8.27448 8.02768 7.92777C8.37439 7.58106 8.93653 7.58106 9.28324 7.92777L12.3428 10.9874Z" fill="#FBFBFB"/>
</svg>
