<svg width="24" height="20" viewBox="0 0 24 20" fill="none" xmlns="http://www.w3.org/2000/svg">
<path id="Vector" d="M22.5929 0.724919C20.3095 0.854505 15.7711 1.32618 12.9694 3.04121C12.7761 3.15954 12.6665 3.36996 12.6665 3.58997V18.7515C12.6665 19.2327 13.1927 19.5369 13.6365 19.3136C16.519 17.8627 20.6879 17.4669 22.7491 17.3585C23.4529 17.3215 24 16.7573 24 16.081V2.00411C24.0004 1.26618 23.3604 0.681585 22.5929 0.724919ZM11.0306 3.04121C8.22931 1.32618 3.6909 0.854921 1.40752 0.724919C0.640011 0.681585 0 1.26618 0 2.00411V16.0814C0 16.7581 0.547093 17.3223 1.25086 17.359C3.31297 17.4673 7.48388 17.8635 10.3664 19.3152C10.8089 19.5382 11.3335 19.2344 11.3335 18.7544V3.58247C11.3335 3.36205 11.2244 3.15996 11.0306 3.04121Z" fill="#FBFBFB"/>
</svg>
