<svg width="30" height="30" viewBox="0 0 30 30" fill="none" xmlns="http://www.w3.org/2000/svg">
<rect width="30" height="30" rx="15" fill="#FBFBFB"/>
<path d="M18.2443 7.45681C18.8143 6.88677 19.5874 6.56649 20.3935 6.56641C21.1996 6.56633 21.9728 6.88646 22.5429 7.45638C23.113 8.02631 23.4333 8.79933 23.4333 9.6054C23.4334 10.4115 23.1133 11.1846 22.5433 11.7546L21.7864 12.5131C22.3025 13.0312 22.5919 13.7329 22.5911 14.4641C22.5903 15.1953 22.2994 15.8964 21.7822 16.4134L20.2677 17.9278C20.2089 17.9887 20.1386 18.0372 20.0609 18.0706C19.9832 18.1041 19.8996 18.1217 19.815 18.1224C19.7304 18.1232 19.6466 18.1071 19.5682 18.0751C19.4899 18.0432 19.4188 17.9959 19.3589 17.9361C19.2991 17.8763 19.2518 17.8052 19.2197 17.7269C19.1876 17.6487 19.1715 17.5648 19.1721 17.4802C19.1728 17.3956 19.1904 17.312 19.2237 17.2343C19.2571 17.1566 19.3056 17.0862 19.3664 17.0275L20.8809 15.5122C21.1593 15.2341 21.316 14.8571 21.3168 14.4637C21.3176 14.0703 21.1624 13.6926 20.8852 13.4134L12.3925 21.9071C12.0474 22.2524 11.613 22.495 11.1379 22.6078L7.22964 23.5378C7.12379 23.5631 7.01321 23.5609 6.90847 23.5313C6.80373 23.5018 6.7083 23.4459 6.6313 23.369C6.5543 23.2921 6.49829 23.1967 6.46861 23.092C6.43893 22.9873 6.43656 22.8767 6.46175 22.7709L7.39273 18.8621C7.50571 18.3873 7.74865 17.9533 8.09352 17.6084L18.2443 7.45681Z" fill="#FB8312"/>
</svg>
