<svg width="76" height="76" viewBox="0 0 76 76" fill="none" xmlns="http://www.w3.org/2000/svg">
<g id="Icon">
<path id="Vector" d="M63.5596 28.6498C63.5621 24.3355 62.4744 20.0906 60.3973 16.3093C58.3202 12.528 55.3212 9.3329 51.6788 7.02084C48.0363 4.70879 43.8687 3.35474 39.5629 3.08447C35.2572 2.8142 30.9529 3.63647 27.05 5.47491C23.1471 7.31335 19.7721 10.1083 17.2384 13.6002C14.7048 17.0922 13.0948 21.1677 12.5578 25.4484C12.0209 29.7291 12.5745 34.0761 14.1672 38.0856C15.7599 42.0951 18.34 45.637 21.668 48.3825V70.5413C21.6677 70.9383 21.769 71.3286 21.9621 71.6754C22.1552 72.0222 22.4338 72.3138 22.7714 72.5225C23.109 72.7312 23.4943 72.8502 23.8908 72.868C24.2874 72.8858 24.6818 72.8019 25.0368 72.6243L37.9592 66.1776L50.8845 72.6388C51.2086 72.7936 51.5638 72.8722 51.923 72.8687C52.5403 72.8687 53.1322 72.6235 53.5687 72.187C54.0051 71.7506 54.2503 71.1586 54.2503 70.5413V48.3825C57.1622 45.9842 59.507 42.9712 61.1165 39.5595C62.7261 36.1478 63.5604 32.4221 63.5596 28.6498ZM17.0134 28.6498C17.0134 24.5071 18.2418 20.4574 20.5434 17.0129C22.8449 13.5684 26.1162 10.8837 29.9436 9.2984C33.7709 7.71307 37.9824 7.29827 42.0455 8.10647C46.1086 8.91467 49.8408 10.9096 52.7701 13.8389C55.6994 16.7682 57.6943 20.5004 58.5025 24.5635C59.3107 28.6265 58.8959 32.838 57.3106 36.6654C55.7252 40.4927 53.0405 43.764 49.596 46.0656C46.1515 48.3671 42.1019 49.5956 37.9592 49.5956C32.4059 49.5894 27.0818 47.3806 23.1551 43.4539C19.2283 39.5271 17.0195 34.2031 17.0134 28.6498ZM21.668 28.6498C21.668 25.4277 22.6235 22.278 24.4136 19.5989C26.2037 16.9198 28.748 14.8317 31.7248 13.5987C34.7016 12.3657 37.9772 12.0431 41.1374 12.6716C44.2976 13.3002 47.2004 14.8518 49.4788 17.1302C51.7571 19.4085 53.3087 22.3114 53.9373 25.4715C54.5659 28.6317 54.2433 31.9073 53.0102 34.8841C51.7772 37.861 49.6891 40.4053 47.0101 42.1954C44.331 43.9855 41.1813 44.9409 37.9592 44.9409C33.6399 44.9363 29.4989 43.2185 26.4447 40.1643C23.3905 37.1101 21.6726 32.969 21.668 28.6498Z" fill="#FB8312"/>
</g>
</svg>
