<svg width="16" height="22" viewBox="0 0 16 22" fill="none" xmlns="http://www.w3.org/2000/svg">
<path id="Vector" fill-rule="evenodd" clip-rule="evenodd" d="M15.3819 5.18623C16.1864 8.80124 14.1176 12.4918 10.7617 13.4284C10.3502 13.5438 9.92967 13.614 9.50605 13.6379L5.77181 20.3016C5.473 20.8347 5.00159 21.2175 4.45641 21.3697L2.31044 21.969C2.03078 22.0471 1.73488 21.9975 1.48781 21.8313C1.24073 21.665 1.06271 21.3956 0.992863 21.0823L0.509097 18.907C0.438213 18.5889 0.425362 18.2581 0.471315 17.9343C0.517267 17.6105 0.621078 17.3005 0.776527 17.0227L4.20854 10.8986C3.74736 10.2071 3.41467 9.41893 3.23014 8.58079C2.42568 4.96577 4.49337 1.27524 7.84929 0.337384C11.2052 -0.600473 14.5774 1.57243 15.3819 5.18623ZM10.3518 6.79764C11.0965 6.58936 11.5563 5.76965 11.3781 4.96577C11.1998 4.16189 10.4497 3.68079 9.7039 3.88906C8.95814 4.09734 8.49829 4.91705 8.67767 5.71971C8.85595 6.52359 9.60606 7.00592 10.3518 6.79764Z" fill="#FBFBFB"/>
</svg>
