<svg width="22" height="22" viewBox="0 0 22 22" fill="none" xmlns="http://www.w3.org/2000/svg">
<path d="M14.2443 3.45681C14.8142 2.88677 15.5873 2.56649 16.3935 2.56641C17.1996 2.56633 17.9728 2.88646 18.5429 3.45638C19.1129 4.02631 19.4333 4.79933 19.4333 5.6054C19.4334 6.41147 19.1132 7.18456 18.5433 7.7546L17.7864 8.51308C18.3025 9.03118 18.5919 9.73286 18.5911 10.4641C18.5903 11.1953 18.2994 11.8964 17.7822 12.4134L16.2676 13.9278C16.2089 13.9887 16.1386 14.0372 16.0609 14.0706C15.9832 14.1041 15.8996 14.1217 15.815 14.1224C15.7304 14.1232 15.6465 14.1071 15.5682 14.0751C15.4899 14.0432 15.4188 13.9959 15.3589 13.9361C15.2991 13.8763 15.2517 13.8052 15.2197 13.7269C15.1876 13.6487 15.1714 13.5648 15.1721 13.4802C15.1728 13.3956 15.1904 13.312 15.2237 13.2343C15.2571 13.1566 15.3056 13.0862 15.3664 13.0275L16.8809 11.5122C17.1593 11.2341 17.316 10.8571 17.3168 10.4637C17.3176 10.0703 17.1624 9.69259 16.8852 9.41341L8.3925 17.9071C8.04736 18.2524 7.61298 18.495 7.13789 18.6078L3.22962 19.5378C3.12377 19.5631 3.0132 19.5609 2.90846 19.5313C2.80371 19.5018 2.70829 19.4459 2.63129 19.369C2.55429 19.2921 2.49827 19.1967 2.46859 19.092C2.43891 18.9873 2.43655 18.8767 2.46173 18.7709L3.39272 14.8621C3.50569 14.3873 3.74863 13.9533 4.0935 13.6084L14.2443 3.45681Z" fill="#FB8312"/>
</svg>
