<svg width="45" height="45" viewBox="0 0 45 45" fill="none" xmlns="http://www.w3.org/2000/svg">
<rect width="45" height="45" rx="8" fill="#FBFBFB"/>
<path d="M11.6811 7.20743C10.5983 6.6015 9.39793 7.75419 9.76798 9.04459L12.3729 18.1059C12.4241 18.2841 12.5182 18.443 12.6447 18.5653C12.7712 18.6877 12.9253 18.7687 13.0902 18.7996L23.9083 20.8183C24.416 20.9132 24.416 21.7293 23.9083 21.8241L13.0912 23.8418C12.9261 23.8725 12.7717 23.9535 12.6451 24.0758C12.5184 24.1982 12.4242 24.3572 12.3729 24.5355L9.76798 33.5999C9.39702 34.8903 10.5974 36.043 11.6811 35.4371L34.4621 22.6912C35.4702 22.1271 35.4702 20.5184 34.4621 19.9533L11.6811 7.20743Z" fill="#FB8312"/>
</svg>
