<svg width="24" height="24" viewBox="0 0 24 24" fill="none" xmlns="http://www.w3.org/2000/svg">
<path d="M8.24423 7.33992L1.86423 8.26492L1.75123 8.28792C1.58017 8.33333 1.42423 8.42333 1.29932 8.54872C1.17442 8.67412 1.08503 8.83041 1.04029 9.00165C0.995552 9.17289 0.997058 9.35293 1.04466 9.5234C1.09226 9.69386 1.18425 9.84864 1.31123 9.97192L5.93323 14.4709L4.84323 20.8259L4.83023 20.9359C4.81976 21.1128 4.8565 21.2894 4.93668 21.4474C5.01686 21.6055 5.13761 21.7394 5.28657 21.8354C5.43552 21.9315 5.60732 21.9862 5.78438 21.994C5.96144 22.0018 6.13739 21.9625 6.29423 21.8799L12.0002 18.8799L17.6932 21.8799L17.7932 21.9259C17.9583 21.9909 18.1377 22.0109 18.313 21.9837C18.4883 21.9565 18.6532 21.8832 18.7908 21.7712C18.9284 21.6592 19.0338 21.5127 19.0961 21.3466C19.1583 21.1804 19.1753 21.0008 19.1452 20.8259L18.0542 14.4709L22.6782 9.97092L22.7562 9.88592C22.8677 9.74869 22.9407 9.58438 22.968 9.40972C22.9952 9.23506 22.9757 9.0563 22.9113 8.89165C22.847 8.72701 22.7402 8.58235 22.6017 8.47244C22.4633 8.36252 22.2982 8.29126 22.1232 8.26592L15.7432 7.33992L12.8912 1.55992C12.8087 1.39246 12.6809 1.25144 12.5224 1.15283C12.3639 1.05422 12.1809 1.00195 11.9942 1.00195C11.8075 1.00195 11.6246 1.05422 11.466 1.15283C11.3075 1.25144 11.1798 1.39246 11.0972 1.55992L8.24423 7.33992Z" fill="#FBFBFB"/>
</svg>
