<svg width="16" height="16" viewBox="0 0 16 16" fill="none" xmlns="http://www.w3.org/2000/svg">
<path fill-rule="evenodd" clip-rule="evenodd" d="M7.96293 14.4815C8.81409 14.4815 9.65691 14.3138 10.4433 13.9881C11.2297 13.6624 11.9442 13.1849 12.546 12.5831C13.1479 11.9812 13.6253 11.2667 13.951 10.4803C14.2768 9.69396 14.4444 8.85113 14.4444 7.99997C14.4444 7.14881 14.2768 6.30599 13.951 5.51962C13.6253 4.73325 13.1479 4.01874 12.546 3.41688C11.9442 2.81501 11.2297 2.33759 10.4433 2.01187C9.65691 1.68614 8.81409 1.51849 7.96293 1.51849C6.24393 1.51849 4.59534 2.20136 3.37983 3.41688C2.16431 4.63239 1.48145 6.28098 1.48145 7.99997C1.48145 9.71897 2.16431 11.3676 3.37983 12.5831C4.59534 13.7986 6.24393 14.4815 7.96293 14.4815ZM8.68309 4.03907C8.68309 3.84807 8.60722 3.66489 8.47216 3.52984C8.3371 3.39478 8.15393 3.3189 7.96293 3.3189C7.77193 3.3189 7.58875 3.39478 7.45369 3.52984C7.31864 3.66489 7.24276 3.84807 7.24276 4.03907V7.81993C7.24276 8.31685 7.64605 8.72014 8.14297 8.72014H10.4835C10.6745 8.72014 10.8577 8.64426 10.9927 8.50921C11.1278 8.37415 11.2037 8.19097 11.2037 7.99997C11.2037 7.80897 11.1278 7.6258 10.9927 7.49074C10.8577 7.35568 10.6745 7.27981 10.4835 7.27981H8.68309V4.03907Z" fill="#FB8312"/>
</svg>
