<svg width="45" height="44" viewBox="0 0 45 44" fill="none" xmlns="http://www.w3.org/2000/svg">
<rect x="0.667969" width="44" height="44" rx="8" fill="#FB8312"/>
<path d="M7.66797 32.5C7.66797 35.05 9.61797 37 12.168 37H33.168C35.718 37 37.668 35.05 37.668 32.5V20.5H7.66797V32.5ZM33.168 10H30.168V8.5C30.168 7.6 29.568 7 28.668 7C27.768 7 27.168 7.6 27.168 8.5V10H18.168V8.5C18.168 7.6 17.568 7 16.668 7C15.768 7 15.168 7.6 15.168 8.5V10H12.168C9.61797 10 7.66797 11.95 7.66797 14.5V17.5H37.668V14.5C37.668 11.95 35.718 10 33.168 10Z" fill="#FDDFC3"/>
</svg>
