<svg width="20" height="21" viewBox="0 0 20 21" fill="none" xmlns="http://www.w3.org/2000/svg">
<path d="M16.2762 11.063V16.9351C16.2762 17.1471 16.2072 17.3306 16.0692 17.4856C15.9312 17.6405 15.7678 17.718 15.579 17.718H11.3955V13.0203H8.60645V17.718H4.42295C4.23411 17.718 4.0707 17.6405 3.9327 17.4856C3.7947 17.3306 3.7257 17.1471 3.7257 16.9351V11.063C3.7257 11.0548 3.72752 11.0426 3.73115 11.0263C3.73478 11.01 3.7366 10.9977 3.7366 10.9896L10.001 5.19093L16.2653 10.9896C16.2726 11.0059 16.2762 11.0304 16.2762 11.063ZM18.7057 10.2189L18.0302 11.1242C17.9721 11.1976 17.8959 11.2424 17.8014 11.2587H17.7688C17.6743 11.2587 17.5981 11.2302 17.54 11.1731L10.001 4.11438L2.46194 11.1731C2.37478 11.2383 2.28762 11.2669 2.20047 11.2587C2.10605 11.2424 2.02979 11.1976 1.97168 11.1242L1.29622 10.2189C1.23812 10.1373 1.2127 10.0415 1.21996 9.9314C1.22722 9.8213 1.26717 9.73362 1.3398 9.66838L9.17297 2.34053C9.40538 2.12848 9.68138 2.02246 10.001 2.02246C10.3205 2.02246 10.5965 2.12848 10.8289 2.34053L13.4872 4.83616V2.45063C13.4872 2.33645 13.5199 2.24266 13.5853 2.16926C13.6506 2.09586 13.7341 2.05916 13.8358 2.05916H15.9276C16.0293 2.05916 16.1128 2.09586 16.1782 2.16926C16.2435 2.24266 16.2762 2.33645 16.2762 2.45063V7.44189L18.6621 9.66838C18.7347 9.73362 18.7747 9.8213 18.7819 9.9314C18.7892 10.0415 18.7638 10.1373 18.7057 10.2189Z" fill="#FBFBFB"/>
</svg>
