<svg width="20" height="20" viewBox="0 0 20 20" fill="none" xmlns="http://www.w3.org/2000/svg">
<path d="M8.46484 1.66666H11.5898C11.9131 1.66649 12.2285 1.76658 12.4924 1.95314C12.7564 2.13971 12.9561 2.40355 13.0638 2.70832H14.7148C15.1292 2.70832 15.5267 2.87294 15.8197 3.16597C16.1127 3.45899 16.2773 3.85642 16.2773 4.27082V16.7708C16.2773 17.1852 16.1127 17.5827 15.8197 17.8757C15.5267 18.1687 15.1292 18.3333 14.7148 18.3333H5.33984C4.92544 18.3333 4.52801 18.1687 4.23499 17.8757C3.94196 17.5827 3.77734 17.1852 3.77734 16.7708V4.27082C3.77734 3.85642 3.94196 3.45899 4.23499 3.16597C4.52801 2.87294 4.92544 2.70832 5.33984 2.70832H6.99089C7.09864 2.40355 7.29826 2.13971 7.56225 1.95314C7.82624 1.76658 8.14159 1.66649 8.46484 1.66666ZM7.94401 3.22916C7.94401 3.36729 7.99888 3.49977 8.09656 3.59744C8.19423 3.69512 8.32671 3.74999 8.46484 3.74999H11.5898C11.728 3.74999 11.8605 3.69512 11.9581 3.59744C12.0558 3.49977 12.1107 3.36729 12.1107 3.22916C12.1107 3.09102 12.0558 2.95855 11.9581 2.86087C11.8605 2.7632 11.728 2.70832 11.5898 2.70832H8.46484C8.32671 2.70832 8.19423 2.7632 8.09656 2.86087C7.99888 2.95855 7.94401 3.09102 7.94401 3.22916ZM12.8919 9.21874C13.0991 9.21874 13.2978 9.13643 13.4444 8.98992C13.5909 8.8434 13.6732 8.64469 13.6732 8.43749C13.6732 8.23029 13.5909 8.03158 13.4444 7.88506C13.2978 7.73855 13.0991 7.65624 12.8919 7.65624C12.6847 7.65624 12.486 7.73855 12.3395 7.88506C12.193 8.03158 12.1107 8.23029 12.1107 8.43749C12.1107 8.64469 12.193 8.8434 12.3395 8.98992C12.486 9.13643 12.6847 9.21874 12.8919 9.21874ZM12.8919 12.3437C13.0991 12.3437 13.2978 12.2614 13.4444 12.1149C13.5909 11.9684 13.6732 11.7697 13.6732 11.5625C13.6732 11.3553 13.5909 11.1566 13.4444 11.0101C13.2978 10.8636 13.0991 10.7812 12.8919 10.7812C12.6847 10.7812 12.486 10.8636 12.3395 11.0101C12.193 11.1566 12.1107 11.3553 12.1107 11.5625C12.1107 11.7697 12.193 11.9684 12.3395 12.1149C12.486 12.2614 12.6847 12.3437 12.8919 12.3437ZM12.1107 14.6875C12.1107 14.8947 12.193 15.0934 12.3395 15.2399C12.486 15.3864 12.6847 15.4687 12.8919 15.4687C13.0991 15.4687 13.2978 15.3864 13.4444 15.2399C13.5909 15.0934 13.6732 14.8947 13.6732 14.6875C13.6732 14.4803 13.5909 14.2816 13.4444 14.1351C13.2978 13.9886 13.0991 13.9062 12.8919 13.9062C12.6847 13.9062 12.486 13.9886 12.3395 14.1351C12.193 14.2816 12.1107 14.4803 12.1107 14.6875ZM11.069 8.43749C11.069 8.29936 11.0141 8.16688 10.9165 8.06921C10.8188 7.97153 10.6863 7.91666 10.5482 7.91666H6.90234C6.76421 7.91666 6.63173 7.97153 6.53406 8.06921C6.43638 8.16688 6.38151 8.29936 6.38151 8.43749C6.38151 8.57562 6.43638 8.7081 6.53406 8.80578C6.63173 8.90345 6.76421 8.95832 6.90234 8.95832H10.5482C10.6863 8.95832 10.8188 8.90345 10.9165 8.80578C11.0141 8.7081 11.069 8.57562 11.069 8.43749ZM11.069 11.5625C11.069 11.4244 11.0141 11.2919 10.9165 11.1942C10.8188 11.0965 10.6863 11.0417 10.5482 11.0417H6.90234C6.76421 11.0417 6.63173 11.0965 6.53406 11.1942C6.43638 11.2919 6.38151 11.4244 6.38151 11.5625C6.38151 11.7006 6.43638 11.8331 6.53406 11.9308C6.63173 12.0285 6.76421 12.0833 6.90234 12.0833H10.5482C10.6863 12.0833 10.8188 12.0285 10.9165 11.9308C11.0141 11.8331 11.069 11.7006 11.069 11.5625ZM11.069 14.6875C11.069 14.5494 11.0141 14.4169 10.9165 14.3192C10.8188 14.2215 10.6863 14.1667 10.5482 14.1667H6.90234C6.76421 14.1667 6.63173 14.2215 6.53406 14.3192C6.43638 14.4169 6.38151 14.5494 6.38151 14.6875C6.38151 14.8256 6.43638 14.9581 6.53406 15.0558C6.63173 15.1535 6.76421 15.2083 6.90234 15.2083H10.5482C10.6863 15.2083 10.8188 15.1535 10.9165 15.0558C11.0141 14.9581 11.069 14.8256 11.069 14.6875Z" fill="#9B3D11"/>
</svg>
