<svg width="20" height="20" viewBox="0 0 20 20" fill="none" xmlns="http://www.w3.org/2000/svg">
<path fill-rule="evenodd" clip-rule="evenodd" d="M9.95341 19.0674C11.0174 19.0674 12.0709 18.8328 13.0539 18.3772C14.0368 17.9215 14.93 17.2536 15.6823 16.4116C16.4346 15.5696 17.0314 14.57 17.4385 13.4699C17.8457 12.3698 18.0553 11.1907 18.0553 10C18.0553 8.80926 17.8457 7.63018 17.4385 6.53008C17.0314 5.42998 16.4346 4.4304 15.6823 3.58842C14.93 2.74643 14.0368 2.07854 13.0539 1.62286C12.0709 1.16718 11.0174 0.932648 9.95341 0.932648C7.80467 0.932648 5.74393 1.88796 4.22454 3.58842C2.70515 5.28887 1.85156 7.59519 1.85156 10C1.85156 12.4048 2.70515 14.7111 4.22454 16.4116C5.74393 18.1121 7.80467 19.0674 9.95341 19.0674ZM10.8536 4.45884C10.8536 4.19164 10.7588 3.93538 10.59 3.74644C10.4211 3.5575 10.1922 3.45136 9.95341 3.45136C9.71466 3.45136 9.48569 3.5575 9.31687 3.74644C9.14805 3.93538 9.05321 4.19164 9.05321 4.45884V9.74813C9.05321 10.4433 9.55732 11.0075 10.1785 11.0075H13.1041C13.3429 11.0075 13.5719 10.9013 13.7407 10.7124C13.9095 10.5235 14.0043 10.2672 14.0043 10C14.0043 9.7328 13.9095 9.47655 13.7407 9.28761C13.5719 9.09867 13.3429 8.99252 13.1041 8.99252H10.8536V4.45884Z" fill="#9B3D11"/>
</svg>
