<svg width="20" height="20" viewBox="0 0 20 20" fill="none" xmlns="http://www.w3.org/2000/svg">
<path fill-rule="evenodd" clip-rule="evenodd" d="M17.0066 8.21685C16.958 8.2146 16.9094 8.21377 16.8607 8.21435H14.8316C13.1716 8.21435 11.75 9.53183 11.75 11.2501C11.75 12.9684 13.1716 14.2859 14.8324 14.2859H16.8599C16.911 14.2865 16.9596 14.2854 17.0057 14.2826C17.3483 14.2604 17.6711 14.1145 17.9141 13.8722C18.1572 13.6299 18.3041 13.3075 18.3274 12.9651C18.3307 12.9159 18.3307 12.8634 18.3307 12.8151V9.68516C18.3307 9.63683 18.3307 9.58433 18.3274 9.53516C18.3041 9.19285 18.1574 8.87062 17.9145 8.62832C17.6715 8.38602 17.3489 8.24011 17.0066 8.21769M14.6541 12.0601C15.0816 12.0601 15.4291 11.6985 15.4291 11.251C15.4291 10.8035 15.0816 10.4418 14.6541 10.4418C14.2266 10.4418 13.88 10.8035 13.88 11.251C13.88 11.6985 14.2258 12.0601 14.6541 12.0601Z" fill="#9B3D11"/>
<path fill-rule="evenodd" clip-rule="evenodd" d="M16.8607 15.5C16.8887 15.4991 16.9164 15.5046 16.9418 15.5164C16.9671 15.5281 16.9894 15.5456 17.0067 15.5675C17.0241 15.5894 17.0361 15.615 17.0417 15.6424C17.0473 15.6698 17.0464 15.6981 17.0391 15.725C16.8774 16.3017 16.6216 16.7933 16.2107 17.2067C15.6099 17.8125 14.8474 18.0816 13.9058 18.2091C12.9908 18.3333 11.8225 18.3333 10.3459 18.3333H8.64839C7.17258 18.3333 6.00344 18.3333 5.08845 18.2091C4.1468 18.0816 3.38432 17.8125 2.7835 17.2067C2.18267 16.6025 1.91601 15.8334 1.78935 14.885C1.66602 13.9617 1.66602 12.7834 1.66602 11.2959V11.2043C1.66602 9.7168 1.66602 8.53765 1.78935 7.616C1.91601 6.66686 2.18267 5.9002 2.78266 5.29271C3.38348 4.68772 4.14597 4.41773 5.08762 4.29107C6.00344 4.1669 7.17258 4.1669 8.64839 4.1669H10.3459C11.8217 4.1669 12.9908 4.1669 13.9058 4.29107C14.8474 4.41856 15.6099 4.68772 16.2107 5.29271C16.6216 5.70687 16.8774 6.19853 17.0391 6.77602C17.0462 6.80292 17.047 6.83113 17.0413 6.85839C17.0356 6.88564 17.0236 6.91119 17.0063 6.93298C16.989 6.95476 16.9668 6.97219 16.9415 6.98386C16.9162 6.99553 16.8886 7.00112 16.8607 7.00018H14.8333C12.555 7.00018 10.5475 8.81432 10.5475 11.2501C10.5475 13.6859 12.5558 15.5 14.8341 15.5H16.8607ZM4.67763 7.40517C4.59829 7.4055 4.51979 7.42145 4.44662 7.45212C4.37344 7.48278 4.30702 7.52756 4.25116 7.58389C4.19529 7.64023 4.15106 7.70701 4.121 7.78044C4.09094 7.85387 4.07564 7.93249 4.07597 8.01183C4.07597 8.34766 4.34513 8.61932 4.67763 8.61932H7.8909C8.22423 8.61932 8.49339 8.34766 8.49339 8.01183C8.49383 7.85152 8.43063 7.69759 8.31767 7.58384C8.2047 7.4701 8.05121 7.40584 7.8909 7.40517H4.67763Z" fill="#9B3D11"/>
<path d="M6.48047 3.35358L8.11211 2.1511C8.53793 1.83645 9.05345 1.66666 9.58291 1.66666C10.1124 1.66666 10.6279 1.83645 11.0537 2.1511L12.6945 3.36025C12.0079 3.33358 11.2412 3.33358 10.4021 3.33358H8.59376C7.82544 3.33358 7.11962 3.33358 6.48047 3.35358Z" fill="#9B3D11"/>
</svg>
