<svg width="20" height="20" viewBox="0 0 20 20" fill="none" xmlns="http://www.w3.org/2000/svg">
<path fill-rule="evenodd" clip-rule="evenodd" d="M6.29565 5.37036C6.29565 4.38808 6.68586 3.44603 7.38044 2.75145C8.07501 2.05687 9.01707 1.66666 9.99935 1.66666C10.9816 1.66666 11.9237 2.05687 12.6183 2.75145C13.3128 3.44603 13.7031 4.38808 13.7031 5.37036C13.7031 6.35264 13.3128 7.2947 12.6183 7.98927C11.9237 8.68385 10.9816 9.07406 9.99935 9.07406C9.01707 9.07406 8.07501 8.68385 7.38044 7.98927C6.68586 7.2947 6.29565 6.35264 6.29565 5.37036ZM6.29565 10.9259C5.06779 10.9259 3.89023 11.4137 3.022 12.2819C2.15378 13.1501 1.66602 14.3277 1.66602 15.5555C1.66602 16.2923 1.95867 16.9988 2.47961 17.5197C3.00054 18.0407 3.70708 18.3333 4.44379 18.3333H15.5549C16.2916 18.3333 16.9982 18.0407 17.5191 17.5197C18.04 16.9988 18.3327 16.2923 18.3327 15.5555C18.3327 14.3277 17.8449 13.1501 16.9767 12.2819C16.1085 11.4137 14.9309 10.9259 13.7031 10.9259H6.29565Z" fill="#9B3D11"/>
</svg>
