<svg width="20" height="20" viewBox="0 0 20 20" fill="none" xmlns="http://www.w3.org/2000/svg">
<path d="M9.99113 7.53096C9.44964 7.53096 8.94256 7.76607 8.55862 8.19575C8.1765 8.62544 7.96462 9.19295 7.96462 9.79897C7.96462 10.405 8.1765 10.9725 8.55862 11.4022C8.94256 11.8298 9.44964 12.067 9.99113 12.067C10.5326 12.067 11.0397 11.8298 11.4236 11.4022C11.8057 10.9725 12.0176 10.405 12.0176 9.79897C12.0176 9.19295 11.8057 8.62544 11.4236 8.19575C11.2361 7.98427 11.0129 7.81659 10.767 7.70247C10.5211 7.58834 10.2573 7.53004 9.99113 7.53096ZM17.4579 12.3041L16.2735 11.1711C16.3296 10.786 16.3586 10.3928 16.3586 10.0016C16.3586 9.61047 16.3296 9.21524 16.2735 8.83217L17.4579 7.69918C17.5474 7.61346 17.6114 7.49929 17.6415 7.37185C17.6716 7.24441 17.6663 7.10974 17.6263 6.98574L17.61 6.93304C17.2841 5.91293 16.7956 4.96734 16.1684 4.14211L16.1359 4.09955C16.0597 3.99933 15.9582 3.92728 15.8447 3.89291C15.7312 3.85854 15.6111 3.86345 15.5002 3.907L14.0297 4.49275C13.4864 3.99416 12.8815 3.60095 12.2259 3.32733L11.9416 1.60656C11.9201 1.47693 11.8639 1.35767 11.7805 1.26463C11.697 1.17159 11.5902 1.10917 11.4743 1.08567L11.4254 1.07553C10.4837 0.885014 9.49129 0.885014 8.54957 1.07553L8.50067 1.08567C8.38476 1.10917 8.27799 1.17159 8.19453 1.26463C8.11107 1.35767 8.05489 1.47693 8.03343 1.60656L7.7473 3.33544C7.09792 3.61123 6.49298 4.00348 5.95622 4.49681L4.47482 3.907C4.36392 3.86311 4.24372 3.85802 4.13017 3.89241C4.01663 3.9268 3.91513 3.99905 3.83916 4.09955L3.80656 4.14211C3.18047 4.96822 2.69219 5.91356 2.365 6.93304L2.3487 6.98574C2.26721 7.23909 2.33421 7.52285 2.51712 7.69918L3.71601 8.84434C3.65987 9.22538 3.6327 9.61453 3.6327 9.99962C3.6327 10.3888 3.65987 10.7779 3.71601 11.1549L2.52075 12.3001C2.43127 12.3858 2.36724 12.5 2.33715 12.6274C2.30707 12.7548 2.31236 12.8895 2.35232 13.0135L2.36862 13.0662C2.69641 14.0857 3.17995 15.0282 3.81018 15.8571L3.84278 15.8997C3.91894 15.9999 4.02044 16.072 4.13392 16.1063C4.24739 16.1407 4.36751 16.1358 4.47844 16.0922L5.95984 15.5024C6.49952 15.999 7.10077 16.3922 7.75092 16.6638L8.03706 18.3927C8.05851 18.5223 8.11469 18.6416 8.19815 18.7346C8.28161 18.8277 8.38838 18.8901 8.50429 18.9136L8.55319 18.9237C9.50418 19.1152 10.4781 19.1152 11.4291 18.9237L11.478 18.9136C11.5939 18.8901 11.7006 18.8277 11.7841 18.7346C11.8676 18.6416 11.9237 18.5223 11.9452 18.3927L12.2295 16.6719C12.8851 16.3963 13.49 16.0051 14.0333 15.5065L15.5038 16.0922C15.6147 16.1361 15.7349 16.1412 15.8485 16.1068C15.962 16.0724 16.0635 16.0002 16.1395 15.8997L16.1721 15.8571C16.8023 15.0241 17.2858 14.0857 17.6136 13.0662L17.6299 13.0135C17.7078 12.7622 17.6408 12.4804 17.4579 12.3041ZM9.99113 13.3621C8.23264 13.3621 6.80739 11.767 6.80739 9.79897C6.80739 7.83093 8.23264 6.23582 9.99113 6.23582C11.7496 6.23582 13.1749 7.83093 13.1749 9.79897C13.1749 11.767 11.7496 13.3621 9.99113 13.3621Z" fill="#9B3D11"/>
</svg>
