<svg width="20" height="20" viewBox="0 0 20 20" fill="none" xmlns="http://www.w3.org/2000/svg">
<path d="M9.03507 0.518128C10.6892 0.517842 12.2869 1.1915 13.53 2.41336C14.7731 3.63523 15.5766 5.32181 15.7906 7.15833L17.7064 10.5323C17.8324 10.7544 17.8069 11.0853 17.5148 11.2264L15.8468 12.0253V14.8186C15.8468 15.3243 15.6674 15.8093 15.348 16.1669C15.0286 16.5245 14.5955 16.7254 14.1439 16.7254H12.4418L12.4409 19.5855H4.77774V16.0637C4.77774 14.9388 4.4065 13.8739 3.71767 12.9129C2.91533 11.7912 2.41235 10.4385 2.26668 9.01072C2.121 7.58293 2.33856 6.1381 2.89429 4.84271C3.45002 3.54733 4.3213 2.45409 5.40774 1.68897C6.49419 0.923853 7.75159 0.517983 9.03507 0.518128ZM8.58379 6.01239C8.30282 5.70841 7.92645 5.54016 7.53576 5.54387C7.14507 5.54759 6.77131 5.72296 6.49498 6.03224C6.21866 6.34151 6.06187 6.75993 6.0584 7.19737C6.05493 7.63482 6.20504 8.0563 6.47641 8.37102L9.03507 11.2368L11.5937 8.37102C11.736 8.21708 11.8495 8.03296 11.9275 7.82939C12.0056 7.62582 12.0467 7.40689 12.0483 7.18536C12.05 6.96383 12.0123 6.74414 11.9373 6.53912C11.8624 6.3341 11.7517 6.14785 11.6118 5.99123C11.4718 5.83461 11.3054 5.71076 11.1223 5.62692C10.9392 5.54307 10.7429 5.5009 10.5451 5.50287C10.3472 5.50484 10.1517 5.55091 9.96994 5.63839C9.78817 5.72587 9.62377 5.85301 9.48634 6.01239L9.03507 6.51767L8.58379 6.01239Z" fill="#9B3D11"/>
</svg>
