<svg width="20" height="17" viewBox="0 0 20 17" fill="none" xmlns="http://www.w3.org/2000/svg">
<path d="M0.481934 14.3346C0.481934 15.7513 1.69437 16.8346 3.27986 16.8346H16.3369C17.9223 16.8346 19.1348 15.7513 19.1348 14.3346V7.66797H0.481934V14.3346ZM16.3369 1.83464H14.4716V1.0013C14.4716 0.501302 14.0985 0.167969 13.5389 0.167969C12.9793 0.167969 12.6063 0.501302 12.6063 1.0013V1.83464H7.01043V1.0013C7.01043 0.501302 6.63737 0.167969 6.07779 0.167969C5.5182 0.167969 5.14515 0.501302 5.14515 1.0013V1.83464H3.27986C1.69437 1.83464 0.481934 2.91797 0.481934 4.33464V6.0013H19.1348V4.33464C19.1348 2.91797 17.9223 1.83464 16.3369 1.83464Z" fill="#252525"/>
</svg>
