<svg width="22" height="22" viewBox="0 0 22 22" fill="none" xmlns="http://www.w3.org/2000/svg">
<path id="Vector" d="M0.733278 10.9967C0.733792 8.74587 1.474 6.55755 2.83998 4.76856C4.20596 2.97957 6.12201 1.68906 8.29324 1.09565C10.4645 0.50223 12.7705 0.638794 14.8566 1.48432C16.9426 2.32985 18.6929 3.83748 19.8382 5.77518C20.9835 7.71289 21.4603 9.97327 21.1951 12.2085C20.93 14.4437 19.9376 16.5298 18.3708 18.1458C16.8039 19.7617 14.7495 20.818 12.5235 21.1521C10.2976 21.4861 8.02355 21.0793 6.05141 19.9944L2.05973 21.21C1.88169 21.2642 1.69225 21.2691 1.51168 21.2239C1.33111 21.1788 1.16621 21.0855 1.0346 20.9539C0.902992 20.8223 0.809637 20.6573 0.764518 20.4768C0.7194 20.2962 0.724216 20.1068 0.778451 19.9287L1.99402 15.9309C1.16605 14.4182 0.732459 12.7212 0.733278 10.9967ZM6.89327 9.97007C6.89327 10.2424 7.00144 10.5035 7.19398 10.696C7.38651 10.8886 7.64765 10.9967 7.91994 10.9967H14.0799C14.3522 10.9967 14.6134 10.8886 14.8059 10.696C14.9984 10.5035 15.1066 10.2424 15.1066 9.97007C15.1066 9.69778 14.9984 9.43664 14.8059 9.24411C14.6134 9.05157 14.3522 8.9434 14.0799 8.9434H7.91994C7.64765 8.9434 7.38651 9.05157 7.19398 9.24411C7.00144 9.43664 6.89327 9.69778 6.89327 9.97007ZM7.91994 13.0501C7.64765 13.0501 7.38651 13.1582 7.19398 13.3508C7.00144 13.5433 6.89327 13.8044 6.89327 14.0767C6.89327 14.349 7.00144 14.6102 7.19398 14.8027C7.38651 14.9952 7.64765 15.1034 7.91994 15.1034H12.0266C12.2989 15.1034 12.56 14.9952 12.7526 14.8027C12.9451 14.6102 13.0533 14.349 13.0533 14.0767C13.0533 13.8044 12.9451 13.5433 12.7526 13.3508C12.56 13.1582 12.2989 13.0501 12.0266 13.0501H7.91994Z" fill="#FBFBFB"/>
</svg>
