<svg width="216" height="193" viewBox="0 0 216 193" fill="none" xmlns="http://www.w3.org/2000/svg">
<path d="M52.0412 44.0576L28.5901 20.6066L39.1968 10L187.689 158.492L177.083 169.099L152.258 144.274C139.498 152.365 124.366 157.05 108.14 157.05C67.6986 157.05 34.0538 127.951 27 89.5499C30.2751 71.7195 39.2826 55.8951 52.0412 44.0576ZM128.82 120.837L117.84 109.857C114.903 111.262 111.613 112.05 108.14 112.05C95.7132 112.05 85.6397 101.976 85.6397 89.5499C85.6397 86.0759 86.4269 82.7864 87.8324 79.8486L76.8526 68.8692C72.9263 74.7974 70.6396 81.9066 70.6396 89.5499C70.6396 110.26 87.429 127.05 108.14 127.05C115.782 127.05 122.892 124.763 128.82 120.837ZM77.9462 27.7495C87.2972 24.0703 97.4825 22.0496 108.14 22.0496C148.581 22.0496 182.226 51.1478 189.279 89.5499C186.938 102.297 181.666 114.019 174.189 123.992L145.24 95.0436C145.503 93.2504 145.64 91.4159 145.64 89.5499C145.64 68.8389 128.85 52.0496 108.14 52.0496C106.273 52.0496 104.439 52.1859 102.645 52.4491L77.9462 27.7495Z" fill="#252525"/>
</svg>
