<svg width="216" height="193" viewBox="0 0 216 193" fill="none" xmlns="http://www.w3.org/2000/svg">
<path d="M27 96.5C34.0538 58.0982 67.6986 29 108.14 29C148.581 29 182.226 58.0982 189.279 96.5C182.226 134.902 148.581 164 108.14 164C67.6986 164 34.0538 134.902 27 96.5ZM108.14 134C128.85 134 145.64 117.211 145.64 96.5C145.64 75.7893 128.85 59 108.14 59C87.429 59 70.6396 75.7893 70.6396 96.5C70.6396 117.211 87.429 134 108.14 134ZM108.14 119C95.7132 119 85.6397 108.927 85.6397 96.5C85.6397 84.0732 95.7132 74 108.14 74C120.566 74 130.64 84.0732 130.64 96.5C130.64 108.927 120.566 119 108.14 119Z" fill="#252525"/>
</svg>
