<svg width="23" height="23" viewBox="0 0 23 23" fill="none" xmlns="http://www.w3.org/2000/svg">
<g id="Group 4">
<path id="Vector" d="M21.9568 8.99884H21.0803V8.95369H11.2876V13.306H17.4369C16.5397 15.8396 14.1291 17.6583 11.2876 17.6583C7.6822 17.6583 4.75907 14.7352 4.75907 11.1299C4.75907 7.52449 7.6822 4.60136 11.2876 4.60136C12.9518 4.60136 14.4659 5.22918 15.6187 6.2547L18.6963 3.17705C16.753 1.36594 14.1536 0.249023 11.2876 0.249023C5.27863 0.249023 0.406738 5.12091 0.406738 11.1299C0.406738 17.1388 5.27863 22.0107 11.2876 22.0107C17.2965 22.0107 22.1684 17.1388 22.1684 11.1299C22.1684 10.4003 22.0933 9.68814 21.9568 8.99884Z" fill="#FFC107"/>
<path id="Vector_2" d="M1.66138 6.06537L5.23627 8.68711C6.20358 6.29224 8.54622 4.60136 11.2876 4.60136C12.9519 4.60136 14.4659 5.22918 15.6188 6.2547L18.6964 3.17705C16.7531 1.36594 14.1537 0.249023 11.2876 0.249023C7.10832 0.249023 3.48392 2.60853 1.66138 6.06537Z" fill="#FF3D00"/>
<path id="Vector_3" d="M11.2875 22.0107C14.098 22.0107 16.6517 20.9352 18.5825 19.1861L15.2149 16.3364C14.086 17.1955 12.7061 17.6599 11.2875 17.6584C8.45738 17.6584 6.05435 15.8538 5.14907 13.3354L1.60083 16.0693C3.40161 19.593 7.05865 22.0107 11.2875 22.0107Z" fill="#4CAF50"/>
<path id="Vector_4" d="M21.9568 8.99877H21.0803V8.95361H11.2876V13.3059H17.4369C17.0078 14.5118 16.2348 15.5654 15.2134 16.3368L15.215 16.3357L18.5826 19.1854C18.3444 19.4019 22.1684 16.5702 22.1684 11.1298C22.1684 10.4002 22.0933 9.68807 21.9568 8.99877Z" fill="#1976D2"/>
</g>
</svg>
