<svg width="16" height="22" viewBox="0 0 16 22" fill="none" xmlns="http://www.w3.org/2000/svg">
<path id="Vector" fill-rule="evenodd" clip-rule="evenodd" d="M15.382 5.18623C16.1865 8.80124 14.1177 12.4918 10.7618 13.4284C10.3503 13.5438 9.92979 13.614 9.50617 13.6379L5.77193 20.3016C5.47313 20.8347 5.00171 21.2175 4.45653 21.3697L2.31057 21.969C2.0309 22.0471 1.735 21.9975 1.48793 21.8313C1.24086 21.665 1.06283 21.3956 0.992985 21.0823L0.509219 18.907C0.438335 18.5889 0.425484 18.2581 0.471437 17.9343C0.517389 17.6105 0.6212 17.3005 0.776649 17.0227L4.20867 10.8986C3.74749 10.2071 3.41479 9.41893 3.23026 8.58079C2.4258 4.96577 4.49349 1.27524 7.84941 0.337384C11.2053 -0.600473 14.5776 1.57243 15.382 5.18623ZM10.3519 6.79764C11.0966 6.58936 11.5565 5.76965 11.3782 4.96577C11.1999 4.16189 10.4498 3.68079 9.70402 3.88906C8.95826 4.09734 8.49841 4.91705 8.67779 5.71971C8.85607 6.52359 9.60618 7.00592 10.3519 6.79764Z" fill="#FB8312"/>
</svg>
