<svg width="23" height="20" viewBox="0 0 23 20" fill="none" xmlns="http://www.w3.org/2000/svg">
<path d="M14.25 0.666656H2.25C1.85218 0.666656 1.47064 0.807132 1.18934 1.05718C0.908035 1.30723 0.75 1.64637 0.75 1.99999V18C0.75 18.3536 0.908035 18.6928 1.18934 18.9428C1.47064 19.1928 1.85218 19.3333 2.25 19.3333H14.25C14.6478 19.3333 15.0294 19.1928 15.3107 18.9428C15.592 18.6928 15.75 18.3536 15.75 18V14H8.7225C8.52359 14 8.33282 13.9298 8.19217 13.8047C8.05152 13.6797 7.9725 13.5101 7.9725 13.3333C7.9725 13.1565 8.05152 12.9869 8.19217 12.8619C8.33282 12.7369 8.52359 12.6667 8.7225 12.6667H15.75V1.99999C15.75 1.64637 15.592 1.30723 15.3107 1.05718C15.0294 0.807132 14.6478 0.666656 14.25 0.666656Z" fill="#FB8312"/>
<path d="M18.12 9.51999C17.9765 9.41077 17.792 9.3537 17.6032 9.36018C17.4145 9.36666 17.2354 9.43621 17.1018 9.55494C16.9683 9.67367 16.89 9.83283 16.8827 10.0006C16.8754 10.1684 16.9396 10.3325 17.0625 10.46L19.5975 12.6667H15.75V14H19.5975L17.0625 16.3067C16.984 16.3664 16.9202 16.44 16.8752 16.5227C16.8302 16.6054 16.8049 16.6955 16.8009 16.7873C16.7969 16.8791 16.8143 16.9707 16.852 17.0562C16.8897 17.1418 16.9469 17.2194 17.02 17.2844C17.0931 17.3494 17.1805 17.4002 17.2768 17.4337C17.373 17.4673 17.476 17.4827 17.5793 17.4792C17.6826 17.4756 17.7839 17.4532 17.877 17.4131C17.97 17.3731 18.0528 17.3164 18.12 17.2467L22.5 13.38L18.12 9.51999Z" fill="#FB8312"/>
</svg>
