<svg width="24" height="24" viewBox="0 0 24 24" fill="none" xmlns="http://www.w3.org/2000/svg">
<g id="Icon">
<path id="Vector" d="M15.5392 3.77213C16.161 3.15027 17.0044 2.80087 17.8838 2.80078C18.7632 2.80069 19.6067 3.14993 20.2286 3.77167C20.8505 4.3934 21.1999 5.2367 21.2 6.11605C21.2001 6.9954 20.8508 7.83877 20.229 8.46063L19.4034 9.28806C19.9664 9.85326 20.2821 10.6187 20.2812 11.4164C20.2803 12.2142 19.963 12.9789 19.3987 13.5429L17.7465 15.195C17.6824 15.2614 17.6058 15.3144 17.521 15.3509C17.4362 15.3873 17.345 15.4065 17.2527 15.4074C17.1605 15.4082 17.0689 15.3907 16.9835 15.3558C16.8981 15.3209 16.8205 15.2693 16.7552 15.2041C16.6899 15.1389 16.6383 15.0613 16.6033 14.9759C16.5683 14.8905 16.5507 14.799 16.5514 14.7068C16.5522 14.6145 16.5713 14.5233 16.6077 14.4385C16.6441 14.3537 16.697 14.277 16.7633 14.2128L18.4156 12.5598C18.7192 12.2565 18.8902 11.8452 18.8911 11.416C18.8919 10.9868 18.7226 10.5748 18.4202 10.2702L9.15545 19.536C8.77893 19.9128 8.30506 20.1775 7.78678 20.3005L3.52322 21.3151C3.40774 21.3427 3.28712 21.3402 3.17285 21.308C3.05859 21.2757 2.95449 21.2147 2.87049 21.1308C2.78649 21.0469 2.72538 20.9429 2.693 20.8287C2.66062 20.7145 2.65805 20.5939 2.68552 20.4784L3.70114 16.2143C3.82438 15.6963 4.08941 15.2228 4.46563 14.8466L15.5392 3.77213Z" fill="#FBFBFB"/>
</g>
</svg>
