<svg width="35" height="32" viewBox="0 0 35 32" fill="none" xmlns="http://www.w3.org/2000/svg">
<path d="M22.9939 18.7214L27.7083 23.4357L26.1515 24.9925L21.4372 20.2781C19.7421 21.6343 17.5924 22.4456 15.2543 22.4456C9.78555 22.4456 5.34717 18.0072 5.34717 12.5385C5.34717 7.06973 9.78555 2.63135 15.2543 2.63135C20.723 2.63135 25.1614 7.06973 25.1614 12.5385C25.1614 14.8765 24.3501 17.0263 22.9939 18.7214ZM20.7854 17.9046C22.1315 16.5174 22.9598 14.6251 22.9598 12.5385C22.9598 8.28115 19.5116 4.83293 15.2543 4.83293C10.997 4.83293 7.54875 8.28115 7.54875 12.5385C7.54875 16.7958 10.997 20.244 15.2543 20.244C17.3409 20.244 19.2332 19.4156 20.6204 18.0696L20.7854 17.9046Z" fill="#FBFBFB"/>
</svg>
