<svg width="509" height="98" viewBox="0 0 509 98" fill="none" xmlns="http://www.w3.org/2000/svg">
<g clip-path="url(#clip0_2389_33291)">
<path d="M479.842 30.2935C478.132 26.3327 475.449 22.8684 472.041 20.2223C468.634 17.5762 464.613 15.8341 460.352 15.1579C456.091 14.4818 451.728 14.8934 447.669 16.3545C443.61 17.8157 439.986 20.279 437.133 23.5157C434.281 26.7524 432.292 30.6575 431.353 34.8683C430.414 39.079 430.554 43.4589 431.76 47.601C432.967 51.7431 435.201 55.5132 438.254 58.561C441.307 61.6088 445.082 63.8354 449.226 65.0342L458.022 85.3724C458.18 85.7368 458.427 86.055 458.742 86.2966C459.057 86.5382 459.429 86.6952 459.821 86.7528C460.214 86.8104 460.615 86.7665 460.986 86.6255C461.357 86.4845 461.686 86.2509 461.941 85.9469L471.243 74.9003L485.671 75.6997C486.03 75.7131 486.387 75.6442 486.715 75.4984C487.282 75.2534 487.728 74.7933 487.955 74.2195C488.182 73.6456 488.172 73.005 487.927 72.4384L479.131 52.1002C480.852 48.7432 481.808 45.0469 481.931 41.2766C482.054 37.5063 481.341 33.7555 479.842 30.2935ZM437.121 48.7706C435.476 44.9683 434.996 40.7637 435.741 36.6886C436.486 32.6135 438.423 28.8508 441.307 25.8764C444.19 22.902 447.891 20.8495 451.941 19.9784C455.991 19.1073 460.209 19.4568 464.06 20.9826C467.911 22.5084 471.224 25.142 473.579 28.5504C475.933 31.9588 477.224 35.9889 477.289 40.1311C477.353 44.2733 476.187 48.3415 473.94 51.8213C471.692 55.3011 468.462 58.0362 464.66 59.6807C459.561 61.8795 453.797 61.9656 448.634 59.9203C443.472 57.875 439.331 53.8651 437.121 48.7706ZM441.393 46.9229C440.114 43.9655 439.74 40.6953 440.32 37.5258C440.899 34.3562 442.406 31.4297 444.649 29.1163C446.891 26.8029 449.77 25.2065 452.92 24.529C456.07 23.8514 459.35 24.1232 462.346 25.31C465.341 26.4967 467.918 28.5451 469.749 31.1961C471.581 33.8471 472.585 36.9816 472.635 40.2033C472.685 43.425 471.778 46.5892 470.03 49.2957C468.281 52.0022 465.77 54.1295 462.812 55.4085C458.846 57.1188 454.363 57.186 450.348 55.5951C446.332 54.0043 443.112 50.8854 441.393 46.9229Z" fill="#FB8312"/>
</g>
<defs>
<clipPath id="clip0_2389_33291">
<rect width="74.4739" height="74.4739" fill="white" transform="translate(411.082 29.6045) rotate(-23.3884)"/>
</clipPath>
</defs>
</svg>
