<svg width="16" height="15" viewBox="0 0 16 15" fill="none" xmlns="http://www.w3.org/2000/svg">
<g id="Star" clip-path="url(#clip0_717_3952)">
<g id="Layer 2">
<g id="star">
<path id="Vector" d="M11.5199 13.1251C11.415 13.1255 11.3115 13.102 11.2181 13.0564L7.87236 11.3876L4.52662 13.0564C4.41797 13.1108 4.29548 13.1351 4.17307 13.1265C4.05065 13.1179 3.93322 13.0768 3.83413 13.0078C3.73504 12.9387 3.65826 12.8446 3.61252 12.7361C3.56677 12.6276 3.55391 12.509 3.57538 12.3939L4.2314 8.87513L1.52857 6.37513C1.44424 6.29496 1.38442 6.19442 1.35552 6.08431C1.32663 5.9742 1.32975 5.85867 1.36456 5.75013C1.40258 5.63905 1.47253 5.54035 1.56645 5.46523C1.66038 5.3901 1.77453 5.34157 1.89594 5.32513L5.6353 4.80638L7.28194 1.60013C7.33565 1.49446 7.41953 1.40534 7.52395 1.34299C7.62837 1.28063 7.74912 1.24756 7.87236 1.24756C7.9956 1.24756 8.11635 1.28063 8.22077 1.34299C8.32519 1.40534 8.40907 1.49446 8.46279 1.60013L10.1291 4.80013L13.8685 5.31888C13.9899 5.33532 14.104 5.38385 14.198 5.45898C14.2919 5.5341 14.3618 5.6328 14.3998 5.74388C14.4346 5.85242 14.4378 5.96795 14.4089 6.07806C14.38 6.18817 14.3202 6.28871 14.2358 6.36888L11.533 8.86888L12.189 12.3876C12.2124 12.5048 12.2002 12.6259 12.1537 12.7367C12.1072 12.8474 12.0284 12.9432 11.9266 13.0126C11.8078 13.0919 11.6648 13.1315 11.5199 13.1251Z" fill="#323232"/>
</g>
</g>
</g>
<defs>
<clipPath id="clip0_717_3952">
<rect width="15.7447" height="15" fill="white"/>
</clipPath>
</defs>
</svg>
