<svg width="17" height="16" viewBox="0 0 17 16" fill="none" xmlns="http://www.w3.org/2000/svg">
<path d="M8.91276 14.6668C5.23086 14.6668 2.24609 11.682 2.24609 8.00016C2.24609 4.31826 5.23086 1.3335 8.91276 1.3335C12.5946 1.3335 15.5794 4.31826 15.5794 8.00016C15.5794 11.682 12.5946 14.6668 8.91276 14.6668ZM8.91276 13.3335C11.8583 13.3335 14.2461 10.9457 14.2461 8.00016C14.2461 5.05464 11.8583 2.66683 8.91276 2.66683C5.96724 2.66683 3.57943 5.05464 3.57943 8.00016C3.57943 10.9457 5.96724 13.3335 8.91276 13.3335ZM8.24609 10.0002H9.57943V11.3335H8.24609V10.0002ZM8.24609 4.66683H9.57943V8.66683H8.24609V4.66683Z" fill="#E9AB0B"/>
</svg>
