<svg width="111" height="112" viewBox="0 0 111 112" fill="none" xmlns="http://www.w3.org/2000/svg">
<path d="M0.5 85.977C0.5 94.5747 7.07471 101.149 15.6724 101.149H86.477C95.0747 101.149 101.649 94.5747 101.649 85.977V45.5172H0.5V85.977ZM86.477 10.1149H76.3621V5.05747C76.3621 2.02299 74.3391 0 71.3046 0C68.2701 0 66.2471 2.02299 66.2471 5.05747V10.1149H35.9023V5.05747C35.9023 2.02299 33.8793 0 30.8448 0C27.8103 0 25.7874 2.02299 25.7874 5.05747V10.1149H15.6724C7.07471 10.1149 0.5 16.6897 0.5 25.2874V35.4023H101.649V25.2874C101.649 16.6897 95.0747 10.1149 86.477 10.1149Z" fill="#FB8312"/>
<path d="M72.3317 77.5564L79.4881 84.7129L72.3317 91.8692L71.9781 92.2227L72.3317 92.5763L76.0866 96.3312L76.4402 96.6848L76.7937 96.3312L83.9502 89.1749L91.1065 96.3312L91.4601 96.6848L91.8136 96.3312L95.5686 92.5763L95.9221 92.2227L95.5686 91.8692L88.4122 84.7129L95.5686 77.5564L95.9221 77.2029L95.5686 76.8493L91.8136 73.0944L91.4601 72.7408L91.1065 73.0944L83.9502 80.2508L76.7937 73.0944L76.4402 72.7408L76.0866 73.0944L72.3317 76.8493L71.9781 77.2029L72.3317 77.5564ZM83.9502 110.765C69.5622 110.765 57.8984 99.1007 57.8984 84.7129C57.8984 70.3249 69.5622 58.6611 83.9502 58.6611C98.338 58.6611 110.002 70.3249 110.002 84.7129C110.002 99.1007 98.338 110.765 83.9502 110.765Z" fill="#FBFBFB" stroke="#FB8312"/>
</svg>
