<svg width="24" height="24" viewBox="0 0 24 24" fill="none" xmlns="http://www.w3.org/2000/svg">
<path d="M12.0042 1.6001H11.999C6.26467 1.6001 1.60158 6.26449 1.60158 12.0001C1.59802 14.1906 2.29142 16.3254 3.58147 18.0958L2.28538 21.9594L6.28287 20.6815C7.97855 21.8065 9.96925 22.4044 12.0042 22.4001C17.7385 22.4001 22.4016 17.7344 22.4016 12.0001C22.4016 6.26579 17.7385 1.6001 12.0042 1.6001Z" fill="#24C22B"/>
<path d="M18.0988 16.3713C17.8467 17.0871 16.8462 17.6808 16.0482 17.8542C15.5022 17.9711 14.7891 18.0643 12.3884 17.0635C9.31773 15.7842 7.34025 12.6464 7.18613 12.4428C7.03854 12.2393 5.94531 10.7814 5.94531 9.27355C5.94531 7.76574 6.70678 7.03153 7.01372 6.71631C7.26581 6.45756 7.68246 6.33936 8.08213 6.33936C8.21144 6.33936 8.32769 6.34592 8.43218 6.35118C8.73911 6.36431 8.89324 6.3827 9.09569 6.86998C9.34777 7.48072 9.96165 8.98854 10.0348 9.14352C10.1092 9.2985 10.1837 9.50865 10.0792 9.71223C9.98124 9.92238 9.89504 10.0156 9.74091 10.1943C9.58679 10.3729 9.4405 10.5095 9.28638 10.7012C9.14532 10.868 8.98597 11.0467 9.16361 11.3553C9.34124 11.6574 9.95512 12.6648 10.859 13.4739C12.0253 14.5181 12.971 14.8517 13.3092 14.9935C13.5613 15.0986 13.8617 15.0736 14.0459 14.8766C14.2797 14.6231 14.5684 14.2028 14.8622 13.7891C15.0712 13.4923 15.335 13.4555 15.6119 13.5606C15.8941 13.6591 17.387 14.4012 17.6939 14.5548C18.0008 14.7098 18.2033 14.7834 18.2777 14.9134C18.3509 15.0434 18.3509 15.6542 18.0988 16.3713Z" fill="#C6FFC9"/>
</svg>
