<svg width="44" height="44" viewBox="0 0 44 44" fill="none" xmlns="http://www.w3.org/2000/svg">
<rect width="44" height="44" rx="8" fill="#FB8312"/>
<path d="M16.3663 15.0099L6.79635 16.3974L6.62685 16.4319C6.37025 16.5 6.13634 16.635 5.94898 16.8231C5.76163 17.0112 5.62755 17.2456 5.56044 17.5025C5.49333 17.7593 5.49559 18.0294 5.56699 18.2851C5.63839 18.5408 5.77637 18.773 5.96685 18.9579L12.8998 25.7064L11.2648 35.2389L11.2453 35.4039C11.2296 35.6693 11.2847 35.9341 11.405 36.1711C11.5253 36.4082 11.7064 36.6091 11.9299 36.7532C12.1533 36.8972 12.411 36.9793 12.6766 36.991C12.9422 37.0028 13.2061 36.9437 13.4413 36.8199L22.0003 32.3199L30.5398 36.8199L30.6898 36.8889C30.9374 36.9864 31.2065 37.0163 31.4695 36.9755C31.7324 36.9347 31.9798 36.8247 32.1862 36.6568C32.3927 36.4888 32.5507 36.269 32.6441 36.0198C32.7375 35.7707 32.763 35.5011 32.7178 35.2389L31.0813 25.7064L38.0173 18.9564L38.1343 18.8289C38.3015 18.623 38.4111 18.3766 38.4519 18.1146C38.4928 17.8526 38.4635 17.5845 38.367 17.3375C38.2705 17.0905 38.1102 16.8735 37.9026 16.7087C37.6949 16.5438 37.4473 16.4369 37.1848 16.3989L27.6148 15.0099L23.3368 6.33988C23.2131 6.08869 23.0214 5.87716 22.7836 5.72924C22.5458 5.58132 22.2714 5.50293 21.9913 5.50293C21.7113 5.50293 21.4369 5.58132 21.1991 5.72924C20.9613 5.87716 20.7696 6.08869 20.6458 6.33988L16.3663 15.0099Z" fill="#FDDFC3"/>
</svg>
