<svg width="45" height="44" viewBox="0 0 45 44" fill="none" xmlns="http://www.w3.org/2000/svg">
<rect x="0.332031" width="44" height="44" rx="8" fill="#FB8312"/>
<path d="M6.9336 21.9961C6.93437 18.6198 8.04468 15.3373 10.0936 12.6538C12.1426 9.97034 15.0167 8.03457 18.2735 7.14445C21.5304 6.25432 24.9895 6.45917 28.1185 7.72746C31.2476 8.99575 33.8731 11.2572 35.591 14.1638C37.3089 17.0703 38.0241 20.4609 37.6264 23.8137C37.2286 27.1665 35.7401 30.2956 33.3899 32.7196C31.0396 35.1436 27.9579 36.728 24.619 37.2291C21.28 37.7301 17.869 37.12 14.9108 35.4926L8.92327 37.316C8.65621 37.3973 8.37205 37.4046 8.1012 37.3369C7.83035 37.2692 7.58299 37.1292 7.38558 36.9318C7.18817 36.7344 7.04813 36.487 6.98046 36.2161C6.91278 35.9453 6.92 35.6611 7.00136 35.3941L8.82471 29.3973C7.58275 27.1282 6.93237 24.5828 6.9336 21.9961ZM16.1736 20.4561C16.1736 20.8645 16.3358 21.2562 16.6246 21.545C16.9135 21.8338 17.3052 21.9961 17.7136 21.9961H26.9536C27.362 21.9961 27.7537 21.8338 28.0425 21.545C28.3313 21.2562 28.4936 20.8645 28.4936 20.4561C28.4936 20.0476 28.3313 19.6559 28.0425 19.3671C27.7537 19.0783 27.362 18.9161 26.9536 18.9161H17.7136C17.3052 18.9161 16.9135 19.0783 16.6246 19.3671C16.3358 19.6559 16.1736 20.0476 16.1736 20.4561ZM17.7136 25.0761C17.3052 25.0761 16.9135 25.2383 16.6246 25.5271C16.3358 25.8159 16.1736 26.2076 16.1736 26.6161C16.1736 27.0245 16.3358 27.4162 16.6246 27.705C16.9135 27.9938 17.3052 28.1561 17.7136 28.1561H23.8736C24.282 28.1561 24.6737 27.9938 24.9625 27.705C25.2513 27.4162 25.4136 27.0245 25.4136 26.6161C25.4136 26.2076 25.2513 25.8159 24.9625 25.5271C24.6737 25.2383 24.282 25.0761 23.8736 25.0761H17.7136Z" fill="#FDDFC3"/>
</svg>
