<svg width="24" height="20" viewBox="0 0 24 20" fill="none" xmlns="http://www.w3.org/2000/svg">
<g id="checkbox">
<path id="Vector" d="M3.44246 0H20.23C21.7745 0 23.0279 1.12 23.0279 2.5V17.5C23.0279 18.163 22.7332 18.7989 22.2085 19.2678C21.6837 19.7366 20.9721 20 20.23 20H3.44246C2.7004 20 1.98874 19.7366 1.46403 19.2678C0.939312 18.7989 0.644531 18.163 0.644531 17.5V2.5C0.644531 1.12 1.898 0 3.44246 0ZM3.04275 2.5V17.5C3.04275 17.6971 3.22182 17.8571 3.44246 17.8571H20.23C20.336 17.8571 20.4377 17.8195 20.5127 17.7525C20.5876 17.6856 20.6297 17.5947 20.6297 17.5V2.5C20.6297 2.40528 20.5876 2.31444 20.5127 2.24746C20.4377 2.18048 20.336 2.14286 20.23 2.14286H3.44246C3.33645 2.14286 3.23478 2.18048 3.15983 2.24746C3.08487 2.31444 3.04275 2.40528 3.04275 2.5ZM17.8798 7.54286L10.6851 13.9714C10.4603 14.1721 10.1555 14.2848 9.83772 14.2848C9.51995 14.2848 9.21518 14.1721 8.99035 13.9714L5.79272 11.1143C5.58065 10.9112 5.46511 10.6425 5.47048 10.3648C5.47585 10.0871 5.6017 9.82211 5.8215 9.62571C6.0413 9.42932 6.33787 9.31688 6.64866 9.31208C6.95946 9.30728 7.2602 9.41051 7.48746 9.6L9.83772 11.7L16.185 6.02857C16.4123 5.83908 16.713 5.73585 17.0238 5.74065C17.3346 5.74545 17.6312 5.8579 17.851 6.05429C18.0708 6.25069 18.1966 6.51567 18.202 6.79338C18.2074 7.07108 18.0918 7.33979 17.8798 7.54286Z" fill="#FB8312"/>
</g>
</svg>
