<svg width="19" height="16" viewBox="0 0 19 16" fill="none" xmlns="http://www.w3.org/2000/svg">
<g id="Icon">
<path id="Vector" d="M15.9835 8.00208C15.7911 8.00208 15.6067 8.07849 15.4707 8.21448C15.3347 8.35048 15.2583 8.53493 15.2583 8.72726V13.0783C15.2583 13.2707 15.1819 13.4551 15.0459 13.5911C14.9099 13.7271 14.7254 13.8035 14.5331 13.8035H4.38061C4.18828 13.8035 4.00383 13.7271 3.86783 13.5911C3.73184 13.4551 3.65543 13.2707 3.65543 13.0783V2.92583C3.65543 2.7335 3.73184 2.54905 3.86783 2.41306C4.00383 2.27706 4.18828 2.20066 4.38061 2.20066H8.73168C8.92401 2.20066 9.10846 2.12425 9.24446 1.98826C9.38046 1.85226 9.45686 1.66781 9.45686 1.47548C9.45686 1.28315 9.38046 1.0987 9.24446 0.962698C9.10846 0.826701 8.92401 0.750299 8.73168 0.750299H4.38061C3.80363 0.750299 3.25027 0.979506 2.84228 1.3875C2.43429 1.79549 2.20508 2.34885 2.20508 2.92583V13.0783C2.20508 13.6553 2.43429 14.2087 2.84228 14.6167C3.25027 15.0247 3.80363 15.2539 4.38061 15.2539H14.5331C15.1101 15.2539 15.6635 15.0247 16.0714 14.6167C16.4794 14.2087 16.7086 13.6553 16.7086 13.0783V8.72726C16.7086 8.53493 16.6322 8.35048 16.4962 8.21448C16.3602 8.07849 16.1758 8.00208 15.9835 8.00208ZM5.10579 8.55322V11.628C5.10579 11.8203 5.18219 12.0048 5.31819 12.1408C5.45419 12.2768 5.63864 12.3532 5.83097 12.3532H8.90573C9.00116 12.3537 9.09577 12.3354 9.18413 12.2993C9.27248 12.2632 9.35284 12.2101 9.4206 12.1428L14.4388 7.11736L16.4983 5.10137C16.5663 5.03395 16.6203 4.95375 16.6571 4.86538C16.6939 4.77701 16.7128 4.68222 16.7128 4.58649C16.7128 4.49076 16.6939 4.39598 16.6571 4.30761C16.6203 4.21924 16.5663 4.13903 16.4983 4.07162L13.4236 0.9606C13.3562 0.89263 13.276 0.838681 13.1876 0.801865C13.0992 0.765049 13.0044 0.746094 12.9087 0.746094C12.813 0.746094 12.7182 0.765049 12.6298 0.801865C12.5415 0.838681 12.4612 0.89263 12.3938 0.9606L10.3488 3.01286L5.31609 8.03834C5.24888 8.1061 5.19571 8.18646 5.15962 8.27482C5.12353 8.36317 5.10524 8.45778 5.10579 8.55322ZM12.9087 2.49798L14.961 4.55023L13.9312 5.57999L11.879 3.52773L12.9087 2.49798ZM6.55615 8.85054L10.8565 4.55023L12.9087 6.60249L8.6084 10.9028H6.55615V8.85054Z" fill="#E9AB0B"/>
</g>
</svg>
