<svg width="44" height="42" viewBox="0 0 44 42" fill="none" xmlns="http://www.w3.org/2000/svg">
<rect y="0.845703" width="44" height="40.3077" rx="8" fill="#FB8312"/>
<path d="M9.75 19.2423C11.6805 19.2423 13.25 17.6659 13.25 15.727C13.25 13.788 11.6805 12.2116 9.75 12.2116C7.81953 12.2116 6.25 13.788 6.25 15.727C6.25 17.6659 7.81953 19.2423 9.75 19.2423ZM34.25 19.2423C36.1805 19.2423 37.75 17.6659 37.75 15.727C37.75 13.788 36.1805 12.2116 34.25 12.2116C32.3195 12.2116 30.75 13.788 30.75 15.727C30.75 17.6659 32.3195 19.2423 34.25 19.2423ZM36 21H32.5C31.5375 21 30.668 21.39 30.0336 22.0216C32.2375 23.2355 33.8016 25.4271 34.1406 28.0307H37.75C38.718 28.0307 39.5 27.2452 39.5 26.273V24.5153C39.5 22.5764 37.9305 21 36 21ZM22 21C25.3852 21 28.125 18.2481 28.125 14.8481C28.125 11.4481 25.3852 8.69629 22 8.69629C18.6148 8.69629 15.875 11.4481 15.875 14.8481C15.875 18.2481 18.6148 21 22 21ZM26.2 22.7577H25.7461C24.6086 23.3069 23.3453 23.6365 22 23.6365C20.6547 23.6365 19.3969 23.3069 18.2539 22.7577H17.8C14.3219 22.7577 11.5 25.5919 11.5 29.0853V30.6672C11.5 32.1228 12.6758 33.3037 14.125 33.3037H29.875C31.3242 33.3037 32.5 32.1228 32.5 30.6672V29.0853C32.5 25.5919 29.6781 22.7577 26.2 22.7577ZM13.9664 22.0216C13.332 21.39 12.4625 21 11.5 21H8C6.06953 21 4.5 22.5764 4.5 24.5153V26.273C4.5 27.2452 5.28203 28.0307 6.25 28.0307H9.85391C10.1984 25.4271 11.7625 23.2355 13.9664 22.0216Z" fill="#FDDFC3"/>
</svg>
