<svg width="504" height="304" viewBox="0 0 504 304" fill="none" xmlns="http://www.w3.org/2000/svg">
<path d="M494.602 21.1011H420.009V144.575H494.602V21.1011Z" fill="#E0E0E0"/>
<path d="M492.126 21.1011H417.532V144.575H492.126V21.1011Z" fill="#EBEBEB"/>
<path d="M488.944 23.6069H420.706V142.07H488.944V23.6069Z" fill="#FAFAFA"/>
<path d="M475.657 39.002H433.695V126.684H475.657V39.002Z" fill="#EBEBEB"/>
<path d="M433.695 95.6551C433.602 87.4634 440.968 79.471 449.075 78.3251C452.946 77.7842 457.053 78.5457 460.668 77.0654C467.116 74.425 469.166 65.8489 475.657 63.3081L475.956 126.686H433.695V95.6551Z" fill="#E0E0E0"/>
<path d="M132.38 1.61475H81.2222V54.9358H132.38V1.61475Z" fill="#E0E0E0"/>
<path d="M128.913 1.61475H77.7632V54.9358H128.913V1.61475Z" fill="#FAFAFA"/>
<path d="M128.928 54.9512H77.7417V1.57324H128.928V54.9512ZM77.7773 54.9512H128.899V1.63018H77.7773V54.9512Z" fill="#E0E0E0"/>
<path d="M122.039 8.78271H84.6384V47.77H122.039V8.78271Z" fill="#FBFBFB"/>
<path d="M84.6385 48.0249C84.3715 48.4168 84.0611 48.7773 83.7133 49.0996C83.1154 49.733 82.2899 50.5799 81.3362 51.5123C80.3825 52.4446 79.5284 53.2631 78.895 53.8467C78.5692 54.1873 78.2064 54.4905 77.8132 54.7505C78.0724 54.3569 78.381 53.9981 78.7313 53.683C79.3292 53.0496 80.1548 52.1955 81.1156 51.2632C82.0764 50.3308 82.9233 49.5053 83.5638 48.9217C83.8851 48.581 84.2458 48.28 84.6385 48.0249Z" fill="#E0E0E0"/>
<path d="M122.039 47.9336C122.43 48.199 122.79 48.507 123.113 48.8517C123.74 49.4495 124.594 50.2751 125.519 51.2288C126.444 52.1825 127.277 53.0365 127.86 53.6771C128.202 54.0016 128.506 54.3646 128.764 54.7589C128.371 54.4961 128.01 54.1879 127.69 53.8408C127.063 53.2429 126.209 52.4173 125.277 51.4565C124.344 50.4957 123.519 49.6488 122.935 49.0083C122.597 48.6852 122.296 48.3246 122.039 47.9336Z" fill="#E0E0E0"/>
<path d="M121.939 8.88354C122.198 8.48993 122.507 8.13116 122.857 7.81599C123.455 7.18257 124.28 6.32852 125.234 5.4033C126.188 4.47808 127.042 3.65251 127.682 3.06179C128.003 2.71786 128.367 2.41649 128.764 2.16504C128.495 2.55095 128.187 2.90863 127.846 3.2326C127.248 3.86602 126.423 4.72006 125.462 5.64528C124.501 6.5705 123.647 7.4032 123.014 7.99391C122.692 8.33201 122.331 8.63065 121.939 8.88354Z" fill="#E0E0E0"/>
<path d="M84.5317 8.98151C84.1431 8.71309 83.7851 8.40283 83.4642 8.05629C82.8308 7.45846 81.9767 6.63288 81.0515 5.67919C80.1263 4.72551 79.3007 3.87146 78.71 3.23804C78.37 2.91359 78.069 2.55053 77.8132 2.15625C78.2068 2.41542 78.5656 2.72397 78.8808 3.07435C79.5142 3.67218 80.3683 4.49776 81.2935 5.45856C82.2187 6.41937 83.0514 7.2663 83.6421 7.90683C83.9822 8.22668 84.281 8.5877 84.5317 8.98151Z" fill="#E0E0E0"/>
<path d="M121.939 47.7692C121.934 47.7053 121.934 47.641 121.939 47.577C121.939 47.4418 121.939 47.2639 121.939 47.0361C121.939 46.5451 121.939 45.8405 121.939 44.901C121.939 43.0577 121.939 40.3675 121.939 36.9584C121.939 30.126 121.896 20.397 121.86 8.75349L122.01 8.89583H84.7094L84.8731 8.73214C84.8731 23.0374 84.8731 36.4246 84.8731 47.7194L84.7307 47.577L111.74 47.6482L119.32 47.6838H121.327H121.362H119.384L111.825 47.7265L84.7307 47.7977H84.5884V47.6553C84.5884 36.3606 84.5884 22.9734 84.5884 8.66809V8.50439H84.7521H122.053H122.195V8.64674C122.195 20.3329 122.138 30.0904 122.124 36.9442C122.124 40.339 122.088 43.015 122.081 44.8512C122.081 45.7551 122.081 46.4454 122.081 46.9294C122.081 47.1571 122.081 47.328 122.081 47.4561C122.081 47.5842 121.939 47.7692 121.939 47.7692Z" fill="#E0E0E0"/>
<path d="M109.584 22.0361H97.1003V34.5195H109.584V22.0361Z" fill="#EBEBEB"/>
<path d="M64.7603 39.9194H15.0405V111.987H64.7603V39.9194Z" fill="#E0E0E0"/>
<path d="M62.2693 39.9194H12.5496V111.987H62.2693V39.9194Z" fill="#F5F5F5"/>
<path d="M56.0919 47.7202H18.7273V104.18H56.0919V47.7202Z" fill="#FBFBFB"/>
<path d="M56.099 104.18C56.099 104.18 56.099 104.088 56.099 103.91C56.099 103.732 56.099 103.454 56.099 103.106C56.099 102.394 56.099 101.362 56.099 100.01C56.099 97.3053 56.099 93.3625 56.099 88.3805C56.099 78.4167 56.099 64.3249 56.035 47.7208L56.1631 47.8489H18.7273L18.8626 47.7137C18.8626 69.015 18.8626 88.651 18.8626 104.173L18.7487 104.067L45.9501 104.123H53.4657H55.4371H56.1488C56.1488 104.123 55.9282 104.123 55.487 104.123H53.5369H46.0426L18.7772 104.18H18.6704V104.067C18.6704 88.5442 18.6704 68.9083 18.6704 47.6069V47.4717H18.8127H56.1773H56.2983V47.5927C56.2983 64.2324 56.2556 78.3597 56.2414 88.3307C56.2414 93.3127 56.2414 97.2342 56.2058 99.9386C56.2058 101.27 56.2058 102.302 56.2058 103.006C56.2058 103.348 56.2058 103.611 56.2058 103.796C56.2058 103.981 56.099 104.18 56.099 104.18Z" fill="#E0E0E0"/>
<path d="M62.3832 39.9194C62.1375 40.378 61.8517 40.8138 61.5291 41.2219C60.9526 41.9905 60.1057 43.0438 59.1947 44.1754C58.2837 45.3071 57.387 46.3106 56.7393 47.0223C56.4069 47.4256 56.0402 47.7995 55.6433 48.1396C55.9243 47.7061 56.241 47.2966 56.5899 46.9155L58.9883 44.0117L61.3797 41.108C61.6786 40.6831 62.0144 40.2854 62.3832 39.9194Z" fill="#E0E0E0"/>
<path d="M56.2913 104.003C58.1445 106.958 60.3293 109.693 62.8034 112.152L56.2913 104.003Z" fill="#FBFBFB"/>
<path d="M62.8032 112.152C62.389 111.851 62.0095 111.505 61.6716 111.12C60.8035 110.238 59.9816 109.311 59.2091 108.344C58.3052 107.213 57.5579 106.138 57.074 105.341C56.7735 104.924 56.5205 104.476 56.3196 104.003C56.6518 104.391 56.9562 104.803 57.2306 105.234C57.7786 106.003 58.5543 107.049 59.4511 108.181C60.3478 109.312 61.209 110.316 61.8353 110.992C62.1889 111.352 62.5126 111.74 62.8032 112.152Z" fill="#E0E0E0"/>
<path d="M12.564 111.932L19.0761 103.896L12.564 111.932Z" fill="#FBFBFB"/>
<path d="M19.0547 103.894C18.0809 105.319 17.0308 106.69 15.909 108.001C14.8651 109.369 13.7484 110.681 12.564 111.929C13.545 110.511 14.5973 109.142 15.7168 107.83C17.4961 105.61 18.9693 103.852 19.0547 103.894Z" fill="#E0E0E0"/>
<path d="M12.564 39.9194C13.6901 41.1184 14.7475 42.3801 15.7311 43.6986C16.777 44.9556 17.7558 46.2669 18.6633 47.6272C17.5407 46.427 16.4858 45.1654 15.5033 43.8481C14.4546 42.5915 13.4735 41.2801 12.564 39.9194Z" fill="#E0E0E0"/>
<path d="M44.4554 59.187H31.9436V94.7154H44.4554V59.187Z" fill="#E0E0E0"/>
<path d="M502.83 303.551C502.83 303.651 390.38 303.736 251.712 303.736C113.043 303.736 0.564697 303.651 0.564697 303.551C0.564697 303.452 113.014 303.366 251.712 303.366C390.409 303.366 502.83 303.452 502.83 303.551Z" fill="#252525"/>
<path d="M124.423 81.6064H445.239C446.511 81.6064 447.731 82.1118 448.63 83.0114C449.53 83.911 450.035 85.1311 450.035 86.4033V290.215C450.035 292.965 448.943 295.602 446.998 297.547C445.054 299.492 442.416 300.584 439.666 300.584H129.284C126.534 300.584 123.896 299.492 121.951 297.547C120.007 295.602 118.914 292.965 118.914 290.215V87.1293C118.914 85.6664 119.495 84.2635 120.53 83.2291C121.564 82.1947 122.967 81.6136 124.43 81.6136L124.423 81.6064Z" fill="#252525"/>
<path d="M105.086 284.386H463.786V293.78C463.786 295.063 463.533 296.332 463.042 297.517C462.552 298.702 461.832 299.778 460.926 300.685C460.019 301.592 458.943 302.311 457.758 302.802C456.573 303.292 455.303 303.545 454.021 303.545H114.829C112.243 303.539 109.765 302.508 107.938 300.677C106.112 298.847 105.086 296.366 105.086 293.78V284.386Z" fill="#252525"/>
<path d="M440.221 90.3101H127.796V275.226H440.221V90.3101Z" fill="#F5F5F5"/>
<path d="M251.833 284.386L256.281 291.467H318.925L323.06 284.386H251.833Z" fill="#455A64"/>
<path d="M450.093 284.321H118.964V285.374H450.093V284.321Z" fill="#455A64"/>
<path d="M407.07 64.4121H421.831V224.845C421.831 235.449 414.863 244.061 406.266 244.061H389.633V64.4121H407.07Z" fill="#E0E0E0"/>
<path d="M407.07 64.4107H405.938H402.6L389.633 64.4463L389.704 64.3751C389.704 94.6654 389.768 163.181 389.818 244.01L389.633 243.825H404.807C405.518 243.825 406.18 243.825 406.849 243.789L407.86 243.725L408.849 243.533C411.483 242.957 413.895 241.632 415.795 239.718C417.675 237.834 419.131 235.57 420.065 233.078C421.015 230.619 421.53 228.013 421.589 225.377C421.589 214.823 421.589 204.539 421.589 194.582C421.589 174.654 421.589 156.05 421.589 139.254C421.589 105.675 421.653 79.3637 421.674 64.3751L421.738 64.4392H421.809V64.5104C421.809 79.4989 421.852 105.789 421.887 139.389C421.887 156.185 421.887 174.796 421.887 194.717C421.887 204.681 421.887 214.948 421.887 225.52C421.83 228.2 421.305 230.849 420.336 233.348C419.373 235.892 417.875 238.2 415.945 240.117C413.998 242.079 411.527 243.438 408.828 244.031L407.803 244.223L406.771 244.294C406.059 244.358 405.397 244.294 404.707 244.33H389.448V244.06C389.498 163.231 389.54 94.7152 389.555 64.425V64.3467H389.633H402.6H405.938L407.07 64.4107Z" fill="#252525"/>
<path d="M407.07 244.062H153.88C150.177 244.06 146.627 242.588 144.008 239.97C141.39 237.351 139.918 233.801 139.917 230.098V18.2231H407.07V244.062Z" fill="#FBFBFB"/>
<path d="M407.07 244.061C407.07 242.751 407.006 154.251 406.913 18.2364L407.07 18.393H142.941H139.959L140.144 18.2079C140.144 85.5353 140.144 149.639 140.144 207.913V229.492C140.101 231.243 140.369 232.987 140.934 234.645C141.801 237.098 143.342 239.256 145.38 240.873C147.418 242.489 149.871 243.498 152.457 243.783C154.144 243.925 155.88 243.847 157.588 243.869H192.569L264.586 243.904L407.127 244.025L264.679 244.146H192.604H157.539C155.816 244.146 154.115 244.203 152.364 244.061C149.728 243.781 147.224 242.765 145.139 241.129C143.053 239.492 141.471 237.302 140.572 234.809C139.988 233.116 139.71 231.332 139.753 229.542V207.927C139.753 149.653 139.753 85.514 139.753 18.2222V18.0371H142.963H407.091H407.248V18.1937C407.134 154.236 407.07 242.737 407.07 244.061Z" fill="#252525"/>
<path d="M407.07 38.6553C407.07 38.7549 347.286 38.8403 273.504 38.8403C199.721 38.8403 139.917 38.7549 139.917 38.6553C139.917 38.5556 199.7 38.4702 273.504 38.4702C347.308 38.4702 407.07 38.5485 407.07 38.6553Z" fill="#252525"/>
<path d="M322.868 28.5703C322.868 28.6699 301.652 28.7553 275.497 28.7553C249.341 28.7553 228.125 28.6699 228.125 28.5703C228.125 28.4707 249.334 28.3853 275.497 28.3853C301.659 28.3853 322.868 28.4635 322.868 28.5703Z" fill="#FB8312"/>
<path d="M148.891 30.8273C150.299 30.8273 151.439 29.6865 151.439 28.2793C151.439 26.8722 150.299 25.7314 148.891 25.7314C147.484 25.7314 146.344 26.8722 146.344 28.2793C146.344 29.6865 147.484 30.8273 148.891 30.8273Z" fill="#E0E0E0"/>
<path d="M157.531 30.8273C158.938 30.8273 160.079 29.6865 160.079 28.2793C160.079 26.8722 158.938 25.7314 157.531 25.7314C156.124 25.7314 154.983 26.8722 154.983 28.2793C154.983 29.6865 156.124 30.8273 157.531 30.8273Z" fill="#E0E0E0"/>
<path d="M166.165 30.8273C167.572 30.8273 168.713 29.6865 168.713 28.2793C168.713 26.8722 167.572 25.7314 166.165 25.7314C164.757 25.7314 163.617 26.8722 163.617 28.2793C163.617 29.6865 164.757 30.8273 166.165 30.8273Z" fill="#E0E0E0"/>
<path d="M245.185 68.2116H239.904L238.887 70.6456H236.189L241.257 59.2583H243.869L248.957 70.6456H246.196L245.185 68.2116ZM244.36 66.2117L242.552 61.8631L240.751 66.2188L244.36 66.2117Z" fill="#455A64"/>
<path d="M257.391 70.6456L255.199 67.4785H252.779V70.6456H250.146V59.2583H255.071C258.103 59.2583 260.01 60.8383 260.01 63.3862C260.034 64.1483 259.822 64.8992 259.403 65.5361C258.984 66.1731 258.378 66.665 257.669 66.9447L260.217 70.5958L257.391 70.6456ZM254.922 61.3934H252.786V65.4217H254.922C256.53 65.4217 257.341 64.71 257.341 63.436C257.341 62.1621 256.523 61.4219 254.914 61.4219L254.922 61.3934Z" fill="#455A64"/>
<path d="M264.273 61.4232H260.629V59.2881H270.543V61.4232H266.899V70.6754H264.273V61.4232Z" fill="#455A64"/>
<path d="M271.953 59.2734H274.586V70.6607H271.953V59.2734Z" fill="#455A64"/>
<path d="M276.564 64.9591C276.564 61.5358 279.198 59.0804 282.742 59.0804C283.622 59.0432 284.5 59.2049 285.31 59.5536C286.119 59.9023 286.84 60.429 287.418 61.0946L285.731 62.6532C285.384 62.2346 284.949 61.898 284.457 61.6679C283.965 61.4377 283.428 61.3197 282.884 61.3223C281.947 61.3638 281.061 61.7654 280.412 62.4436C279.763 63.1218 279.401 64.0241 279.401 64.9627C279.401 65.9013 279.763 66.8036 280.412 67.4818C281.061 68.1599 281.947 68.5616 282.884 68.6031C283.43 68.6061 283.969 68.4862 284.462 68.2521C284.955 68.0179 285.389 67.6757 285.731 67.2508L287.418 68.8095C286.84 69.4826 286.117 70.0156 285.304 70.3683C284.49 70.7209 283.606 70.8839 282.72 70.8449C279.198 70.8449 276.564 68.3896 276.564 64.9591Z" fill="#455A64"/>
<path d="M289.19 59.2734H291.816V68.5256H297.51V70.6607H289.19V59.2734Z" fill="#455A64"/>
<path d="M307.801 68.5403V70.6754H298.997V59.2881H307.595V61.4232H301.616V63.8928H306.897V65.9425H301.616V68.5758L307.801 68.5403Z" fill="#455A64"/>
<path d="M266.85 95.7334C266.85 95.8401 261.554 95.9184 255.021 95.9184C248.487 95.9184 243.192 95.8401 243.192 95.7334C243.192 95.6266 248.487 95.5483 255.021 95.5483C261.554 95.5483 266.85 95.6337 266.85 95.7334Z" fill="#252525"/>
<path d="M299.51 95.7334C299.51 95.8401 293.709 95.9184 286.557 95.9184C279.404 95.9184 273.604 95.8401 273.604 95.7334C273.604 95.6266 279.404 95.5483 286.557 95.5483C293.709 95.5483 299.51 95.6337 299.51 95.7334Z" fill="#252525"/>
<path d="M298.385 107.676C298.385 107.776 286.08 107.861 270.906 107.861C255.733 107.861 243.42 107.776 243.42 107.676C243.42 107.577 255.726 107.491 270.906 107.491C286.087 107.491 298.385 107.569 298.385 107.676Z" fill="#252525"/>
<path d="M299.51 118.258C299.51 118.365 287.055 118.443 271.689 118.443C256.324 118.443 243.869 118.365 243.869 118.258C243.869 118.152 256.324 118.073 271.689 118.073C287.055 118.073 299.51 118.159 299.51 118.258Z" fill="#252525"/>
<path d="M266.643 129.754C266.643 129.854 261.597 129.939 255.384 129.939C249.171 129.939 244.117 129.854 244.117 129.754C244.117 129.655 249.156 129.569 255.384 129.569C261.611 129.569 266.643 129.648 266.643 129.754Z" fill="#252525"/>
<path d="M296.129 129.527C296.129 129.626 290.585 129.712 283.745 129.712C276.906 129.712 271.354 129.626 271.354 129.527C271.354 129.427 276.899 129.342 283.745 129.342C290.592 129.342 296.129 129.427 296.129 129.527Z" fill="#252525"/>
<path d="M296.129 141.242C296.129 141.341 284.429 141.427 270.002 141.427C255.576 141.427 243.869 141.341 243.869 141.242C243.869 141.142 255.569 141.057 270.002 141.057C284.436 141.057 296.129 141.135 296.129 141.242Z" fill="#252525"/>
<path d="M197.017 163.089C197.017 163.188 192.127 163.274 186.092 163.274C180.057 163.274 175.167 163.188 175.167 163.089C175.167 162.989 180.057 162.904 186.092 162.904C192.127 162.904 197.017 162.989 197.017 163.089Z" fill="#252525"/>
<path d="M229.905 163.767C229.905 163.866 224.254 163.952 217.293 163.952C210.333 163.952 204.675 163.866 204.675 163.767C204.675 163.667 210.326 163.582 217.293 163.582C224.261 163.582 229.905 163.638 229.905 163.767Z" fill="#252525"/>
<path d="M230.581 174.576C230.581 174.683 218.325 174.761 203.216 174.761C188.106 174.761 175.844 174.683 175.844 174.576C175.844 174.469 188.092 174.391 203.216 174.391C218.34 174.391 230.581 174.477 230.581 174.576Z" fill="#252525"/>
<path d="M233.961 185.614C233.961 185.713 220.745 185.799 204.454 185.799C188.163 185.799 174.94 185.713 174.94 185.614C174.94 185.514 188.149 185.429 204.454 185.429C220.759 185.429 233.961 185.514 233.961 185.614Z" fill="#252525"/>
<path d="M281.041 151.374C281.041 151.474 272.664 151.559 262.344 151.559C252.025 151.559 243.648 151.474 243.648 151.374C243.648 151.274 252.018 151.189 262.344 151.189C272.671 151.189 281.041 151.274 281.041 151.374Z" fill="#252525"/>
<path d="M299.51 151.374C295.459 151.621 291.397 151.621 287.347 151.374C291.397 151.127 295.459 151.127 299.51 151.374Z" fill="#252525"/>
<path d="M296.805 163.539C296.805 163.645 285.311 163.724 271.127 163.724C256.943 163.724 245.448 163.645 245.448 163.539C245.448 163.432 256.943 163.354 271.127 163.354C285.311 163.354 296.805 163.439 296.805 163.539Z" fill="#252525"/>
<path d="M268.878 174.804C268.878 174.904 263.227 174.989 256.259 174.989C249.292 174.989 243.648 174.904 243.648 174.804C243.648 174.705 249.292 174.619 256.259 174.619C263.227 174.619 268.878 174.697 268.878 174.804Z" fill="#252525"/>
<path d="M299.958 186.291C299.958 186.391 287.603 186.477 272.365 186.477C257.128 186.477 244.772 186.391 244.772 186.291C244.772 186.192 257.128 186.106 272.365 186.106C287.603 186.106 299.958 186.192 299.958 186.291Z" fill="#252525"/>
<path d="M302.228 175.026C302.228 175.133 296.179 175.211 288.706 175.211C281.233 175.211 275.183 175.133 275.183 175.026C275.183 174.919 281.233 174.841 288.706 174.841C296.179 174.841 302.228 174.926 302.228 175.026Z" fill="#252525"/>
<path d="M368.417 95.9614C368.417 96.0611 355.557 96.1465 339.7 96.1465C323.843 96.1465 310.975 96.0611 310.975 95.9614C310.975 95.8618 323.836 95.7764 339.7 95.7764C355.564 95.7764 368.417 95.8618 368.417 95.9614Z" fill="#252525"/>
<path d="M322.939 106.771C319.114 107.018 315.277 107.018 311.452 106.771C315.277 106.524 319.114 106.524 322.939 106.771Z" fill="#252525"/>
<path d="M368.417 106.999C368.417 107.099 359.393 107.184 348.261 107.184C337.13 107.184 328.099 107.099 328.099 106.999C328.099 106.899 337.123 106.814 348.261 106.814C359.4 106.814 368.417 106.899 368.417 106.999Z" fill="#252525"/>
<path d="M365.513 117.812C365.513 117.918 353.763 117.997 339.273 117.997C324.782 117.997 313.025 117.918 313.025 117.812C313.025 117.705 324.775 117.626 339.273 117.626C353.77 117.626 365.513 117.712 365.513 117.812Z" fill="#252525"/>
<path d="M367.314 128.622C367.314 128.728 355.215 128.807 340.269 128.807C325.323 128.807 313.224 128.728 313.224 128.622C313.224 128.515 325.323 128.437 340.269 128.437C355.215 128.437 367.314 128.522 367.314 128.622Z" fill="#252525"/>
<path d="M338.255 140.15C338.255 140.25 332.604 140.335 325.644 140.335C318.683 140.335 313.025 140.25 313.025 140.15C313.025 140.05 318.676 139.965 325.644 139.965C332.611 139.965 338.255 140.008 338.255 140.15Z" fill="#252525"/>
<path d="M367.314 140.336C367.314 140.443 362.268 140.521 356.048 140.521C349.827 140.521 344.788 140.443 344.788 140.336C344.788 140.23 349.827 140.151 356.048 140.151C362.268 140.151 367.314 140.237 367.314 140.336Z" fill="#252525"/>
<path d="M230.581 65.9785C230.581 66.0853 218.382 66.1635 203.344 66.1635C188.305 66.1635 176.1 66.0853 176.1 65.9785C176.1 65.8717 188.291 65.7935 203.344 65.7935C218.396 65.7935 230.581 65.8789 230.581 65.9785Z" fill="#252525"/>
<path d="M375.442 65.9785C375.442 66.0853 362.631 66.1635 346.838 66.1635C331.045 66.1635 318.235 66.0853 318.235 65.9785C318.235 65.8717 331.045 65.7935 346.838 65.7935C362.631 65.7935 375.442 65.8789 375.442 65.9785Z" fill="#252525"/>
<path d="M373.925 153.304C373.925 153.361 373.043 152.863 371.363 152.329C368.984 151.6 366.472 151.415 364.011 151.789C362.32 152.044 360.681 152.57 359.158 153.347C357.427 154.28 355.824 155.433 354.389 156.778C352.823 158.158 351.272 159.724 349.478 161.169C347.657 162.734 345.521 163.891 343.215 164.564C342.021 164.871 340.779 164.946 339.557 164.784C338.383 164.605 337.241 164.252 336.169 163.738C334.209 162.72 332.308 161.591 330.476 160.358C328.84 159.273 327.037 158.465 325.138 157.966C323.476 157.565 321.76 157.433 320.056 157.575C317.576 157.793 315.179 158.575 313.046 159.859C311.544 160.777 310.833 161.468 310.79 161.425C310.943 161.24 311.115 161.07 311.302 160.92C311.809 160.461 312.354 160.046 312.932 159.681C314.735 158.517 316.753 157.727 318.868 157.36C320.982 156.994 323.148 157.057 325.238 157.546C327.193 158.036 329.052 158.849 330.739 159.952C332.554 161.162 334.436 162.27 336.376 163.268C338.439 164.327 340.814 164.605 343.066 164.051C345.294 163.401 347.358 162.285 349.123 160.777C350.888 159.354 352.446 157.802 354.033 156.422C355.514 155.058 357.167 153.895 358.951 152.963C360.874 152.01 362.967 151.448 365.108 151.309C367.25 151.17 369.397 151.456 371.427 152.152C372.077 152.372 372.707 152.643 373.313 152.963C373.529 153.054 373.735 153.168 373.925 153.304Z" fill="#FB8312"/>
<path d="M329.764 165.531H322.982V183.872H329.764V165.531Z" fill="#FB8312"/>
<path d="M358.539 165.531H351.756V183.872H358.539V165.531Z" fill="#FB8312"/>
<path d="M368.125 154.763H361.343V183.871H368.125V154.763Z" fill="#FB8312"/>
<path d="M320.989 178.092H314.207V184.263H320.989V178.092Z" fill="#FB8312"/>
<path d="M339.358 173.814H332.576V183.871H339.358V173.814Z" fill="#FB8312"/>
<path d="M348.945 171.501H342.162V183.863H348.945V171.501Z" fill="#FB8312"/>
<path d="M233.285 95.7349H176.064V151.098H233.285V95.7349Z" fill="#455A64"/>
<g opacity="0.3">
<path d="M180.498 146.365L196.327 117.875L209.28 136.08L217.144 126.408L228.852 146.365H180.498Z" fill="#252525"/>
</g>
<g opacity="0.3">
<path d="M213.692 109.315C217.051 113.728 212.069 118.71 207.657 115.35C204.305 110.973 209.287 105.992 213.692 109.315Z" fill="#252525"/>
</g>
<g opacity="0.3">
<path d="M228.851 146.515C228.845 146.44 228.845 146.363 228.851 146.288C228.851 146.124 228.851 145.91 228.851 145.647C228.851 145.056 228.851 144.224 228.851 143.156C228.851 140.957 228.851 137.783 228.795 133.747C228.795 125.662 228.723 114.147 228.674 100.297L228.908 100.525L180.562 100.568C180.498 100.625 181.075 100.055 180.833 100.304V103.436C180.833 104.482 180.833 105.521 180.833 106.56V112.724C180.833 116.795 180.833 120.771 180.833 124.652C180.833 132.409 180.833 139.74 180.833 146.48L180.591 146.245L215.55 146.366L225.414 146.43H228.026H228.702H228.944C228.873 146.437 228.801 146.437 228.73 146.43H228.083H225.514L215.706 146.494L180.591 146.615H180.356V146.373C180.356 139.633 180.356 132.303 180.356 124.545C180.356 120.664 180.356 116.688 180.356 112.617V100.34C180.114 100.575 180.683 99.9983 180.633 100.055L228.98 100.098H229.214V100.297C229.165 114.183 229.122 125.748 229.093 133.868C229.093 137.882 229.044 141.035 229.029 143.22C229.029 144.274 229.029 145.092 229.029 145.668C229.029 145.925 229.029 146.131 229.029 146.288C228.982 146.372 228.922 146.449 228.851 146.515Z" fill="#252525"/>
</g>
<path d="M234.054 197.246C234.054 197.346 220.895 197.431 204.675 197.431C188.455 197.431 175.303 197.346 175.303 197.246C175.303 197.146 188.448 197.061 204.675 197.061C220.902 197.061 234.054 197.139 234.054 197.246Z" fill="#E0E0E0"/>
<path d="M302.655 196.861C302.655 196.968 290.001 197.046 274.394 197.046C258.786 197.046 246.117 196.968 246.117 196.861C246.117 196.755 258.772 196.676 274.394 196.676C290.015 196.676 302.655 196.762 302.655 196.861Z" fill="#E0E0E0"/>
<path d="M372.616 195.785C372.616 195.891 360.04 195.97 344.525 195.97C329.01 195.97 316.434 195.891 316.434 195.785C316.434 195.678 329.01 195.6 344.525 195.6C360.04 195.6 372.616 195.664 372.616 195.785Z" fill="#E0E0E0"/>
<path d="M234.054 206.766C234.054 206.873 220.895 206.951 204.675 206.951C188.455 206.951 175.303 206.873 175.303 206.766C175.303 206.659 188.448 206.581 204.675 206.581C220.902 206.581 234.054 206.666 234.054 206.766Z" fill="#E0E0E0"/>
<path d="M302.655 206.39C302.655 206.49 290.001 206.575 274.394 206.575C258.786 206.575 246.117 206.49 246.117 206.39C246.117 206.29 258.772 206.205 274.394 206.205C290.015 206.205 302.655 206.283 302.655 206.39Z" fill="#E0E0E0"/>
<path d="M372.616 205.316C372.616 205.416 360.04 205.501 344.525 205.501C329.01 205.501 316.463 205.416 316.463 205.316C316.463 205.217 329.038 205.131 344.554 205.131C360.069 205.131 372.616 205.217 372.616 205.316Z" fill="#E0E0E0"/>
<path d="M324.042 220.012H231.741C221.14 220.012 212.546 228.604 212.546 239.203C212.546 249.802 221.14 258.394 231.741 258.394H324.042C334.643 258.394 343.237 249.802 343.237 239.203C343.237 228.604 334.643 220.012 324.042 220.012Z" fill="#FB8312"/>
<path d="M259.747 239.15C259.747 240.866 258.458 241.926 256.409 241.926H254.857V244.061H253.078V236.375H256.409C258.458 236.36 259.747 237.428 259.747 239.15ZM257.946 239.15C257.946 238.303 257.398 237.812 256.309 237.812H254.886V240.503H256.309C257.391 240.503 257.946 239.983 257.946 239.15Z" fill="#FBFBFB"/>
<path d="M260.949 240.665V236.359H262.728V240.63C262.728 242.089 263.362 242.694 264.444 242.694C265.525 242.694 266.152 242.089 266.152 240.63V236.359H267.91V240.665C267.91 242.928 266.614 244.181 264.429 244.181C262.245 244.181 260.949 242.928 260.949 240.665Z" fill="#FBFBFB"/>
<path d="M276.685 241.926C276.685 243.257 275.632 244.061 273.611 244.061H269.632V236.375H273.39C275.311 236.375 276.301 237.179 276.301 238.374C276.307 238.724 276.215 239.068 276.033 239.366C275.852 239.665 275.589 239.906 275.276 240.061C275.684 240.172 276.044 240.415 276.3 240.752C276.555 241.09 276.69 241.503 276.685 241.926ZM271.404 237.656V239.47H273.169C274.038 239.47 274.507 239.164 274.507 238.559C274.507 237.954 274.038 237.656 273.169 237.656H271.404ZM274.892 241.719C274.892 241.072 274.4 240.766 273.468 240.766H271.397V242.666H273.468C274.4 242.709 274.892 242.424 274.892 241.762V241.719Z" fill="#FBFBFB"/>
<path d="M278.03 236.359H279.81V242.594H283.66V244.017H278.03V236.359Z" fill="#FBFBFB"/>
<path d="M284.67 236.359H286.45V244.06H284.67V236.359Z" fill="#FBFBFB"/>
<path d="M287.674 243.291L288.272 241.946C289.018 242.465 289.904 242.745 290.812 242.75C291.866 242.75 292.293 242.401 292.293 241.924C292.293 240.501 287.823 241.476 287.823 238.622C287.823 237.312 288.877 236.231 291.062 236.231C291.996 236.211 292.918 236.444 293.73 236.907L293.182 238.259C292.535 237.876 291.799 237.668 291.047 237.654C289.994 237.654 289.588 238.053 289.588 238.537C289.588 239.96 294.051 238.971 294.051 241.796C294.051 243.077 292.99 244.18 290.791 244.18C289.686 244.206 288.599 243.896 287.674 243.291Z" fill="#FBFBFB"/>
<path d="M302.335 236.359V244.06H300.556V240.907H297.061V244.06H295.282V236.374H297.061V239.405H300.556V236.374L302.335 236.359Z" fill="#FBFBFB"/>
<path d="M318.683 258.126C319.326 259.318 319.745 260.618 319.921 261.962H322.22L331.871 261.798L331.8 261.969C331.8 261.969 333.373 254.567 333.657 252.368C333.899 250.553 335.017 246.212 333.657 244.297C333.408 243.964 333.061 243.716 332.664 243.588C332.268 243.461 331.841 243.46 331.444 243.585C331.166 243.665 330.916 243.82 330.721 244.034C330.526 244.248 330.394 244.511 330.341 244.795C330.341 244.795 330.227 242.233 328.384 242.191C326.54 242.148 326.476 243.614 326.476 243.614C326.476 243.614 325.971 240.682 323.921 240.71C323.529 240.75 323.157 240.907 322.855 241.161C322.553 241.415 322.334 241.754 322.227 242.134V236.597C322.229 236.054 322.023 235.532 321.653 235.135C321.283 234.738 320.776 234.498 320.235 234.461C319.96 234.453 319.686 234.499 319.429 234.598C319.172 234.696 318.937 234.845 318.739 235.035C318.54 235.225 318.381 235.453 318.271 235.705C318.162 235.957 318.103 236.229 318.099 236.504L317.886 249.315L314.754 245.301C313.936 244.262 311.986 244.781 311.737 245.671C311.737 245.671 311.175 246.852 312.335 248.582C313.239 249.884 318.683 258.126 318.683 258.126Z" fill="#EBEBEB"/>
<path d="M318.683 258.126C318.627 258.06 318.575 257.991 318.526 257.919L318.106 257.307L316.498 254.909L313.964 251.108L312.377 248.731C312.062 248.3 311.822 247.819 311.665 247.308C311.484 246.765 311.484 246.178 311.665 245.635C311.797 245.303 312.052 245.036 312.377 244.888C312.689 244.731 313.032 244.644 313.381 244.632C313.746 244.615 314.109 244.701 314.427 244.881C314.507 244.927 314.583 244.979 314.655 245.037L314.854 245.244L315.181 245.671L317.978 249.229L317.815 249.286C317.857 245.692 317.9 241.749 317.95 237.55V236.76C317.941 236.488 317.96 236.217 318.007 235.949C318.12 235.458 318.401 235.021 318.8 234.714C319.2 234.407 319.694 234.247 320.197 234.263C320.701 234.279 321.184 234.469 321.563 234.801C321.942 235.134 322.195 235.587 322.277 236.084C322.316 236.367 322.33 236.653 322.32 236.938V242.048H322.099C322.252 241.535 322.593 241.098 323.053 240.824C323.246 240.712 323.454 240.631 323.672 240.582C323.787 240.561 323.905 240.561 324.021 240.582C324.131 240.586 324.241 240.6 324.348 240.625C324.787 240.718 325.185 240.947 325.487 241.28C326.047 241.932 326.421 242.724 326.569 243.571H326.348C326.374 243.287 326.476 243.016 326.642 242.784C326.809 242.553 327.034 242.37 327.295 242.255C327.551 242.15 327.823 242.09 328.099 242.077C328.233 242.059 328.37 242.059 328.504 242.077H328.711L328.91 242.134C329.166 242.229 329.399 242.376 329.595 242.566C329.791 242.756 329.945 242.984 330.049 243.237C330.266 243.715 330.393 244.229 330.426 244.753H330.213C330.268 244.476 330.392 244.217 330.574 244.001C330.756 243.784 330.989 243.617 331.252 243.514C331.765 243.307 332.339 243.307 332.853 243.514C333.104 243.624 333.331 243.781 333.522 243.977C333.699 244.176 333.847 244.399 333.963 244.639C334.172 245.111 334.304 245.613 334.355 246.126C334.422 248.073 334.238 250.02 333.807 251.92C333.55 253.77 333.18 255.528 332.853 257.2L331.864 261.962L331.707 261.912L331.778 261.741L331.857 261.855L322.213 261.997L322.263 261.94V261.99H319.871V261.947C319.742 260.969 319.483 260.012 319.103 259.101C318.975 258.78 318.861 258.546 318.783 258.389C318.742 258.311 318.706 258.23 318.676 258.147C318.852 258.447 319.009 258.759 319.145 259.079C319.547 260.004 319.823 260.978 319.964 261.976L319.914 261.933H322.213L322.163 261.99V261.94H322.213L331.864 261.741H331.985L331.935 261.855C331.935 261.912 331.892 261.962 331.871 262.026L331.714 261.976C332.02 260.481 332.341 258.887 332.682 257.215C333.024 255.542 333.394 253.791 333.622 251.941C334.042 250.059 334.221 248.132 334.155 246.205C334.104 245.714 333.979 245.234 333.785 244.781C333.676 244.563 333.54 244.36 333.38 244.176C333.205 244.004 333 243.867 332.775 243.77C332.319 243.582 331.807 243.582 331.351 243.77C331.121 243.862 330.918 244.009 330.76 244.199C330.602 244.39 330.495 244.617 330.447 244.859L330.291 245.571L330.234 244.81C330.201 244.317 330.078 243.834 329.871 243.386C329.78 243.161 329.644 242.957 329.47 242.788C329.296 242.619 329.088 242.488 328.86 242.404C328.389 242.275 327.889 242.305 327.437 242.489C327.212 242.586 327.017 242.741 326.873 242.939C326.729 243.137 326.641 243.37 326.618 243.614L326.547 244.326L326.398 243.614C326.257 242.809 325.903 242.057 325.373 241.436C325.118 241.132 324.765 240.927 324.375 240.857C323.985 240.787 323.582 240.856 323.238 241.052C322.825 241.3 322.521 241.694 322.384 242.155L322.17 242.831V236.945C322.18 236.674 322.168 236.403 322.135 236.134C322.086 235.881 321.989 235.639 321.85 235.422C321.716 235.2 321.539 235.006 321.329 234.854C321.118 234.701 320.879 234.593 320.626 234.535C320.373 234.477 320.11 234.471 319.855 234.517C319.599 234.563 319.356 234.66 319.138 234.803C318.707 235.085 318.403 235.524 318.291 236.027C318.247 236.281 318.228 236.538 318.234 236.796C318.234 237.059 318.234 237.322 318.234 237.586C318.178 241.778 318.121 245.721 318.071 249.322V249.585L317.9 249.379C316.932 248.133 316.007 246.93 315.117 245.82C314.929 245.526 314.688 245.27 314.406 245.066C314.115 244.902 313.785 244.824 313.452 244.838C313.125 244.849 312.804 244.932 312.512 245.08C312.232 245.205 312.012 245.435 311.9 245.721C311.733 246.229 311.733 246.778 311.9 247.286C312.048 247.781 312.277 248.247 312.576 248.667L314.142 251.058L316.655 254.88C317.331 255.926 317.857 256.738 318.227 257.293L318.626 257.926L318.683 258.126Z" fill="#252525"/>
<path d="M331.999 261.81H319.914C318.999 261.81 318.256 262.552 318.256 263.468V263.589C318.256 264.505 318.999 265.248 319.914 265.248H331.999C332.915 265.248 333.657 264.505 333.657 263.589V263.468C333.657 262.552 332.915 261.81 331.999 261.81Z" fill="#EBEBEB"/>
<path d="M331.999 265.255C331.999 265.255 332.12 265.255 332.341 265.191C332.666 265.117 332.959 264.942 333.18 264.693C333.338 264.512 333.457 264.302 333.529 264.073C333.604 263.802 333.621 263.519 333.579 263.241C333.524 262.903 333.363 262.591 333.118 262.352C332.874 262.112 332.559 261.957 332.22 261.91H319.921C319.714 261.909 319.508 261.95 319.316 262.03C319.125 262.11 318.951 262.228 318.807 262.377C318.662 262.526 318.548 262.702 318.473 262.896C318.398 263.09 318.363 263.297 318.37 263.504C318.354 263.773 318.411 264.04 318.533 264.28C318.654 264.513 318.83 264.712 319.046 264.86C319.262 265.008 319.511 265.099 319.772 265.127C320.298 265.127 320.847 265.127 321.359 265.127H326.896L330.625 265.162H331.643H331.999C331.88 265.172 331.762 265.172 331.643 265.162H330.625L326.896 265.198H321.359C320.832 265.198 320.313 265.198 319.75 265.198C319.28 265.156 318.844 264.935 318.534 264.579C318.223 264.224 318.062 263.762 318.084 263.29C318.106 262.819 318.31 262.374 318.652 262.049C318.995 261.724 319.449 261.544 319.921 261.547C324.732 261.547 329.074 261.547 332.241 261.597C332.61 261.65 332.952 261.822 333.215 262.086C333.478 262.351 333.648 262.693 333.7 263.063C333.741 263.361 333.72 263.664 333.636 263.952C333.552 264.191 333.419 264.41 333.244 264.593C333.007 264.846 332.695 265.018 332.355 265.084C332.246 265.16 332.126 265.218 331.999 265.255Z" fill="#252525"/>
<path d="M322.156 246.809C322.005 245.151 322.005 243.484 322.156 241.827C322.307 243.484 322.307 245.151 322.156 246.809Z" fill="#252525"/>
<path d="M326.426 246.466C326.274 245.482 326.274 244.481 326.426 243.498C326.569 244.482 326.569 245.482 326.426 246.466Z" fill="#252525"/>
<path d="M330.333 247.713C330.191 246.731 330.191 245.734 330.333 244.752C330.485 245.734 330.485 246.732 330.333 247.713Z" fill="#252525"/>
<path d="M317.174 234.182C316.359 233.893 315.571 233.533 314.818 233.107C314.032 232.746 313.278 232.32 312.562 231.833C313.377 232.123 314.165 232.482 314.918 232.908C315.704 233.269 316.459 233.695 317.174 234.182Z" fill="#252525"/>
<path d="M319.309 233.008C319.035 231.933 318.828 230.842 318.69 229.741C318.484 228.653 318.349 227.552 318.285 226.446C318.568 227.517 318.778 228.606 318.911 229.706C319.121 230.796 319.254 231.899 319.309 233.008Z" fill="#252525"/>
<path d="M321.886 233.307C322.296 232.512 322.772 231.753 323.309 231.037C323.795 230.282 324.343 229.567 324.946 228.902C324.535 229.699 324.059 230.46 323.523 231.179C323.035 231.932 322.488 232.643 321.886 233.307Z" fill="#252525"/>
<path d="M58.6898 303.553H12.1798C11.6418 303.553 11.1259 303.34 10.7455 302.959C10.3651 302.579 10.1514 302.063 10.1514 301.525L10.1514 269.719C10.1514 269.232 10.3449 268.765 10.6892 268.42C11.0336 268.076 11.5006 267.883 11.9876 267.883H58.6898C59.8582 267.883 60.9787 268.347 61.8049 269.173C62.6311 269.999 63.0952 271.12 63.0952 272.288L63.0952 299.148C63.0952 300.316 62.6311 301.437 61.8049 302.263C60.9787 303.089 59.8582 303.553 58.6898 303.553Z" fill="#252525"/>
<g opacity="0.4">
<path d="M58.6898 303.553H12.1798C11.6418 303.553 11.1259 303.34 10.7455 302.959C10.3651 302.579 10.1514 302.063 10.1514 301.525L10.1514 269.719C10.1514 269.232 10.3449 268.765 10.6892 268.42C11.0336 268.076 11.5006 267.883 11.9876 267.883H58.6898C59.8582 267.883 60.9787 268.347 61.8049 269.173C62.6311 269.999 63.0952 271.12 63.0952 272.288L63.0952 299.148C63.0952 300.316 62.6311 301.437 61.8049 302.263C60.9787 303.089 59.8582 303.553 58.6898 303.553Z" fill="#252525"/>
</g>
<path d="M68.9026 303.553H18.0512L18.0512 267.875H67.9489C68.3443 267.875 68.7358 267.953 69.101 268.105C69.4663 268.256 69.7981 268.478 70.0777 268.757C70.3573 269.037 70.579 269.369 70.7303 269.734C70.8816 270.099 70.9595 270.491 70.9595 270.886V301.489C70.9604 301.76 70.9079 302.028 70.8049 302.279C70.702 302.529 70.5506 302.757 70.3596 302.948C70.1685 303.14 69.9414 303.292 69.6914 303.396C69.4414 303.5 69.1733 303.553 68.9026 303.553Z" fill="#252525"/>
<path d="M17.9874 303.729C17.8949 303.729 17.8237 295.815 17.8237 286.057C17.8237 276.3 17.8949 268.378 17.9874 268.378C18.0799 268.378 18.1582 276.293 18.1582 286.057C18.1582 295.822 18.0871 303.729 17.9874 303.729Z" fill="#252525"/>
<path d="M30.7839 267.433C30.7839 267.433 30.8266 267.355 30.9263 267.227C31.0259 267.099 31.1825 266.907 31.4031 266.686C32.018 266.045 32.6978 265.471 33.4315 264.971C35.8633 263.278 38.7742 262.409 41.7362 262.494C44.6982 262.578 47.5549 263.611 49.8861 265.44C50.5894 265.98 51.2357 266.591 51.8148 267.262C52.0212 267.497 52.1565 267.704 52.2561 267.832C52.3557 267.96 52.3984 268.038 52.3913 268.045C51.5742 267.172 50.6889 266.365 49.7438 265.633C47.4234 263.895 44.6225 262.918 41.725 262.835C38.8276 262.753 35.9754 263.568 33.5596 265.17C32.5737 265.847 31.6453 266.604 30.7839 267.433Z" fill="#252525"/>
<path d="M17.6669 272.979C17.6899 273.04 17.7043 273.105 17.7096 273.171C17.7096 273.313 17.7665 273.498 17.8092 273.733C17.8519 273.968 17.8875 274.288 17.9587 274.644C18.0299 275 18.1366 275.42 18.2362 275.875C18.898 278.473 19.9721 280.948 21.4176 283.206C23.5629 286.56 26.454 289.373 29.8655 291.426C34.0823 293.883 38.9007 295.115 43.7794 294.984C48.6575 294.901 53.4283 293.539 57.6149 291.034C61.0078 288.954 63.9561 286.223 66.2906 282.999C67.8604 280.824 69.1538 278.462 70.141 275.968C70.4755 275.078 70.7246 274.381 70.8527 273.904L71.0377 273.363C71.0552 273.299 71.0791 273.237 71.1089 273.178C71.1052 273.244 71.0908 273.309 71.0662 273.37L70.9238 273.925C70.7957 274.409 70.568 275.114 70.2121 276.01C69.2677 278.537 67.9972 280.93 66.433 283.127C64.1044 286.402 61.1421 289.175 57.7217 291.284C53.4998 293.847 48.6747 295.246 43.7367 295.34C38.7951 295.471 33.9166 294.208 29.6591 291.696C26.2175 289.607 23.3104 286.743 21.1685 283.334C19.7279 281.046 18.677 278.535 18.0583 275.904L17.8662 274.665C17.8021 274.302 17.7736 273.989 17.738 273.74C17.7025 273.491 17.6953 273.32 17.674 273.178C17.6653 273.112 17.6629 273.045 17.6669 272.979Z" fill="#455A64"/>
<path d="M489.286 167.623C482.169 171.303 476.725 177.637 472.81 184.619C468.896 191.6 466.405 199.251 463.864 206.852L461.651 246.06C469.914 231.997 476.554 215.457 478.347 199.244L472.846 198.753C476.532 198.191 479.628 195.515 481.6 192.348C483.571 189.181 484.582 185.522 485.571 181.921L478.86 182.918C484.171 179.348 487.904 173.871 489.286 167.623Z" fill="#455A64"/>
<g opacity="0.3">
<path d="M489.286 167.623C482.169 171.302 476.725 177.636 472.81 184.618C468.896 191.6 466.405 199.251 463.864 206.852L461.651 246.06C469.914 231.996 476.554 215.456 478.347 199.244L472.846 198.753C476.532 198.19 479.628 195.514 481.6 192.347C483.571 189.18 484.582 185.522 485.571 181.921L478.86 182.917C484.171 179.347 487.904 173.871 489.286 167.623Z" fill="#252525"/>
</g>
<path d="M460.455 255.249C460.455 255.249 442.506 233.77 442.712 213.258H449.964C449.964 213.258 442.086 208.084 442.712 205.18C443.338 202.277 443.538 191.302 443.538 191.302L450.171 192.96C450.171 192.96 445.189 190.477 444.577 186.555C443.965 182.634 446 164.393 446 164.393C446 164.393 454.106 172.89 456.59 181.566C459.074 190.242 465.6 200.419 463.707 226.93C461.814 253.441 460.455 255.249 460.455 255.249Z" fill="#455A64"/>
<path d="M469.551 257.278C469.551 257.278 488.994 244.325 493.314 227.792L487.486 226.205C487.486 226.205 494.951 223.764 495.101 221.287C495.25 218.81 497.464 209.942 497.464 209.942L491.77 209.829C491.77 209.829 496.311 208.918 497.67 205.886C499.029 202.854 501.35 187.751 501.35 187.751C501.35 187.751 492.966 192.819 489.094 199.274C485.222 205.729 477.707 212.462 473.436 234.197C469.166 255.933 469.551 257.278 469.551 257.278Z" fill="#455A64"/>
<path d="M450.925 183.104C450.955 183.178 450.979 183.254 450.996 183.332C451.032 183.495 451.089 183.716 451.153 183.987L451.722 186.534C451.978 187.645 452.263 189.004 452.583 190.584C452.904 192.164 453.295 193.958 453.637 195.95C454.405 199.936 455.224 204.697 456.057 209.992C456.889 215.287 457.672 221.138 458.391 227.287C459.11 233.436 459.644 239.307 460.063 244.659C460.483 250.011 460.775 254.83 460.91 258.894C461.01 260.922 461.06 262.758 461.11 264.367C461.16 265.975 461.188 267.363 461.195 268.502C461.202 269.64 461.195 270.487 461.195 271.114C461.195 271.391 461.195 271.619 461.195 271.79C461.206 271.868 461.206 271.947 461.195 272.025C461.19 271.946 461.19 271.868 461.195 271.79C461.195 271.619 461.195 271.391 461.16 271.114C461.16 270.494 461.11 269.619 461.067 268.502C461.024 267.384 460.989 265.982 460.918 264.374C460.846 262.765 460.782 260.936 460.668 258.908C460.476 254.858 460.149 250.04 459.736 244.674C459.323 239.307 458.74 233.457 458.042 227.315C457.345 221.173 456.526 215.33 455.736 210.035C454.946 204.74 454.135 199.971 453.395 195.986C453.046 193.986 452.683 192.192 452.391 190.605C452.099 189.018 451.829 187.666 451.601 186.556C451.374 185.446 451.217 184.599 451.096 183.994C451.046 183.716 451.003 183.495 450.975 183.325C450.947 183.154 450.925 183.104 450.925 183.104Z" fill="#252525"/>
<path d="M457.964 268.402C457.964 268.402 441.538 249.769 436.442 238.51L440.285 236.866C437.495 237.329 434.641 236.154 432.456 234.304C430.271 232.453 428.699 230.091 427.14 227.728L432.214 226.874C427.555 225.542 423.587 222.469 421.133 218.291C427.119 219.273 432.52 222.561 436.997 226.667C440.538 230.074 443.754 233.803 446.605 237.805C448.04 239.727 449.289 241.782 450.334 243.94C453.11 249.641 457.971 261.562 457.964 268.402Z" fill="#455A64"/>
<path d="M493.57 198.612C493.557 198.679 493.533 198.744 493.499 198.804L493.25 199.345C493.008 199.843 492.674 200.533 492.254 201.416C491.371 203.202 490.119 205.807 488.617 209.038C485.599 215.493 481.621 224.511 477.692 234.66C473.764 244.809 470.654 254.16 468.54 260.993C467.486 264.395 466.654 267.156 466.099 269.071C465.821 270.01 465.608 270.743 465.444 271.277C465.373 271.505 465.316 271.697 465.266 271.846C465.249 271.913 465.225 271.977 465.195 272.039C465.186 271.97 465.186 271.901 465.195 271.832L465.337 271.256L465.928 269.035C466.44 267.106 467.23 264.331 468.255 260.915C470.305 254.082 473.386 244.709 477.315 234.546C481.244 224.383 485.265 215.387 488.347 208.924C489.884 205.708 491.193 203.117 492.083 201.352C492.538 200.484 492.894 199.8 493.143 199.309C493.264 199.096 493.357 198.925 493.428 198.783C493.472 198.723 493.519 198.666 493.57 198.612Z" fill="#252525"/>
<path d="M459.359 276.387C459.312 276.279 459.283 276.163 459.273 276.046C459.231 275.782 459.174 275.455 459.11 275.056C458.982 274.202 458.768 272.957 458.462 271.434C458.156 269.911 457.75 268.11 457.209 266.132C456.669 264.153 455.971 262.004 455.138 259.783C454.306 257.563 453.388 255.513 452.498 253.655C451.608 251.798 450.719 250.182 449.936 248.837C449.153 247.492 448.512 246.424 448.021 245.698L447.495 244.844C447.374 244.645 447.317 244.538 447.331 244.531C447.415 244.612 447.489 244.703 447.552 244.802L448.142 245.613C448.655 246.325 449.345 247.378 450.156 248.709C450.968 250.04 451.879 251.663 452.804 253.506C453.729 255.349 454.64 257.427 455.487 259.655C456.334 261.883 456.996 264.053 457.537 266.06C458.078 268.067 458.455 269.875 458.725 271.412C458.996 272.95 459.167 274.195 459.252 275.063L459.345 276.06C459.36 276.168 459.365 276.278 459.359 276.387Z" fill="#252525"/>
<path d="M481.03 272.011H445.082V279.342H481.03V272.011Z" fill="#FB8312"/>
<path d="M448.505 279.339L452.398 303.999H474.112L477.742 279.339H448.505Z" fill="#FB8312"/>
<path d="M478.824 279.34C478.824 279.44 472.02 279.525 463.636 279.525C455.252 279.525 448.448 279.44 448.448 279.34C448.448 279.241 455.245 279.155 463.636 279.155C472.027 279.155 478.824 279.234 478.824 279.34Z" fill="#252525"/>
<path d="M20.8198 230.26L19.8092 178.839C19.7477 175.696 20.3133 172.572 21.4727 169.649C22.6322 166.727 24.3623 164.065 26.5621 161.819C28.7619 159.573 31.3873 157.787 34.2848 156.567C37.1823 155.347 40.2939 154.717 43.4378 154.712C49.6992 154.703 55.7092 157.175 60.1513 161.588C64.5935 166.001 67.1056 171.994 67.1377 178.256L67.401 230.26L20.8198 232.253" fill="#455A64"/>
<path d="M20.8198 239.035H93.2857C93.2857 234.188 90.019 230.537 85.1723 230.537L20.8198 230.259V239.035Z" fill="#455A64"/>
<path d="M80.7597 303.552H85.8484L85.8484 239.036H80.7597L80.7597 303.552Z" fill="#455A64"/>
<path d="M26.5634 303.552H31.6521L31.6521 239.036H26.5634L26.5634 303.552Z" fill="#455A64"/>
<path d="M26.7341 230.539C26.7341 230.446 40.2138 230.375 56.8393 230.375C73.4647 230.375 86.9516 230.446 86.9516 230.539C86.9516 230.631 73.4719 230.71 56.8393 230.71C40.2067 230.71 26.7341 230.631 26.7341 230.539Z" fill="#252525"/>
<path d="M22.0442 239.076C22.0442 238.984 37.8868 238.913 57.4231 238.913C76.9594 238.913 92.8091 238.984 92.8091 239.076C92.8091 239.169 76.9737 239.247 57.4231 239.247C37.8725 239.247 22.0442 239.155 22.0442 239.076Z" fill="#252525"/>
<path d="M25.9157 163.872C26.0082 163.872 26.0794 178.547 26.0794 196.653C26.0794 214.759 26.0082 229.434 25.9157 229.434C25.8232 229.434 25.7449 214.759 25.7449 196.653C25.7449 178.547 25.816 163.872 25.9157 163.872Z" fill="#252525"/>
<path d="M69.351 201.4C69.351 201.4 110.132 201.229 113.363 201.4C119.106 201.713 122.964 208.133 123.732 211.457C124.501 214.78 142.322 266.03 142.322 266.03L128.472 274.983L109.897 233.071L100.545 216.809L49.6865 225.698L69.351 201.4Z" fill="#936760"/>
<path d="M100.815 215.308C100.815 215.308 108.345 215.308 112.409 221.329C114.8 224.888 113.961 231.193 114.01 235.969C114.074 242.474 112.381 292.906 112.381 292.906C107.584 296.315 102.225 296.713 96.3672 294.421L92.2251 238.595L93.2926 230.261L65.4792 230.88C65.4792 230.88 60.4972 221.628 67.4079 214.255C68.2904 213.308 100.815 215.308 100.815 215.308Z" fill="#936760"/>
<path d="M104.317 215.592H104.531L105.143 215.692C105.924 215.859 106.68 216.127 107.392 216.489C108.516 217.068 109.536 217.831 110.409 218.745C111.567 219.959 112.504 221.365 113.178 222.901C113.987 224.765 114.457 226.758 114.566 228.787C114.676 231.104 114.612 233.426 114.374 235.734C114.153 238.168 114.039 240.716 113.947 243.37C113.854 246.025 113.761 248.772 113.669 251.59C113.327 262.842 113.021 273.034 112.801 280.429C112.68 284.108 112.587 287.083 112.516 289.168C112.473 290.186 112.445 290.983 112.423 291.546C112.423 291.802 112.423 292.008 112.388 292.165C112.397 292.236 112.397 292.307 112.388 292.378C112.381 292.307 112.381 292.236 112.388 292.165C112.388 292.008 112.388 291.802 112.388 291.546C112.388 290.976 112.388 290.186 112.388 289.168C112.431 287.083 112.488 284.101 112.559 280.422C112.73 273.041 112.979 262.842 113.334 251.576C113.427 248.765 113.519 246.018 113.612 243.363C113.705 240.708 113.84 238.139 114.068 235.705C114.311 233.415 114.385 231.11 114.288 228.809C114.19 226.807 113.74 224.839 112.957 222.994C112.305 221.477 111.398 220.083 110.274 218.873C109.422 217.961 108.427 217.194 107.328 216.603C106.379 216.12 105.365 215.779 104.317 215.592Z" fill="#6F4C47"/>
<path d="M112.367 292.385V293.409C112.367 293.409 129.825 300.213 130.038 303.516L95.5205 303.679L95.9333 292.192C101.093 294.541 106.467 294.783 112.367 292.385Z" fill="#FB8312"/>
<path d="M95.5349 303.678L95.6346 300.917L128.686 301.763C128.686 301.763 130.223 302.425 130.053 303.514L95.5349 303.678Z" fill="#E0E0E0"/>
<path d="M141.646 263.896L142.037 264.843C142.037 264.843 160.777 264.743 162.193 267.725L130.166 280.607L126.316 269.775C131.96 270.066 137.048 268.309 141.646 263.896Z" fill="#FB8312"/>
<path d="M130.166 280.607L129.234 278.002L160.272 266.615C160.272 266.615 161.951 266.665 162.193 267.732L130.166 280.607Z" fill="#E0E0E0"/>
<path d="M143.34 268.778C143.297 268.778 143.133 268.593 142.998 268.201C142.824 267.681 142.783 267.126 142.877 266.586C142.968 266.043 143.188 265.531 143.518 265.091C143.774 264.764 143.995 264.629 144.03 264.657C143.684 265.282 143.421 265.95 143.247 266.643C143.182 267.355 143.213 268.073 143.34 268.778Z" fill="#252525"/>
<path d="M141.504 269.09C141.176 268.401 141.068 267.627 141.196 266.875C141.323 266.122 141.679 265.427 142.215 264.884C141.957 265.554 141.738 266.238 141.561 266.934C141.498 267.651 141.479 268.371 141.504 269.09Z" fill="#252525"/>
<path d="M146.123 268.543C145.876 268.336 145.675 268.078 145.535 267.787C145.395 267.496 145.319 267.179 145.312 266.856C145.241 266.542 145.237 266.216 145.3 265.9C145.362 265.584 145.49 265.284 145.675 265.02C145.781 265.056 145.546 265.838 145.675 266.806C145.803 267.774 146.215 268.486 146.123 268.543Z" fill="#252525"/>
<path d="M144.23 264.935C144.23 264.971 143.746 264.736 143.276 264.074C143.011 263.69 142.787 263.28 142.607 262.85C142.5 262.608 142.401 262.359 142.301 262.095C142.238 261.951 142.19 261.801 142.159 261.647C142.14 261.547 142.145 261.444 142.173 261.346C142.202 261.249 142.253 261.159 142.322 261.085C142.402 261.004 142.506 260.953 142.618 260.939C142.731 260.924 142.844 260.948 142.941 261.006C143.09 261.089 143.219 261.203 143.319 261.341C143.489 261.562 143.634 261.8 143.753 262.053C143.958 262.48 144.088 262.94 144.137 263.412C144.22 263.841 144.173 264.284 144.002 264.686C143.945 264.686 144.002 264.195 143.881 263.448C143.796 263.014 143.65 262.595 143.447 262.202C143.331 261.972 143.19 261.754 143.027 261.554C142.877 261.341 142.65 261.22 142.586 261.327C142.522 261.433 142.529 261.683 142.643 261.953L142.92 262.707C143.078 263.126 143.271 263.531 143.497 263.917C143.867 264.586 144.23 264.885 144.23 264.935Z" fill="#252525"/>
<path d="M144.4 264.748C144.4 264.748 144.4 264.826 144.272 264.933L144.201 265.011V264.89C144.149 264.414 144.178 263.933 144.287 263.467C144.369 263.094 144.49 262.731 144.65 262.385C144.74 262.189 144.843 261.999 144.956 261.815C145.017 261.7 145.102 261.598 145.205 261.517C145.269 261.463 145.345 261.425 145.427 261.406C145.508 261.386 145.593 261.385 145.674 261.403C145.78 261.434 145.871 261.499 145.936 261.588C146 261.677 146.033 261.784 146.03 261.894C146.025 262.043 146.001 262.191 145.959 262.335C145.896 262.59 145.813 262.84 145.71 263.082C145.527 263.485 145.288 263.859 144.998 264.193C144.5 264.762 144.073 264.975 144.052 264.94C144.03 264.904 144.372 264.612 144.763 264.036C145.006 263.698 145.207 263.333 145.361 262.947C145.448 262.715 145.519 262.477 145.575 262.235C145.646 261.986 145.632 261.73 145.575 261.751C145.376 261.68 145.119 262.214 144.956 262.52C144.791 262.84 144.66 263.177 144.564 263.524C144.437 263.975 144.349 264.437 144.301 264.904L144.208 264.862C144.322 264.762 144.386 264.733 144.4 264.748Z" fill="#252525"/>
<path d="M112.075 297.34C112.025 297.34 111.996 297.076 112.075 296.671C112.195 296.146 112.439 295.658 112.786 295.247C113.144 294.832 113.599 294.512 114.11 294.315C114.502 294.165 114.765 294.165 114.772 294.208C114.15 294.56 113.576 294.991 113.064 295.489C112.655 296.06 112.322 296.682 112.075 297.34Z" fill="#252525"/>
<path d="M110.345 296.648C110.372 295.874 110.696 295.14 111.249 294.598C111.71 293.978 112.394 293.562 113.157 293.438C112.587 293.882 112.043 294.357 111.527 294.861C111.098 295.433 110.704 296.03 110.345 296.648Z" fill="#252525"/>
<path d="M114.566 298.597C114.467 298.29 114.433 297.966 114.466 297.645C114.499 297.324 114.598 297.013 114.758 296.733C115.199 295.743 115.989 295.274 116.032 295.359C116.074 295.444 115.491 295.992 115.099 296.889C114.708 297.786 114.672 298.597 114.566 298.597Z" fill="#252525"/>
<path d="M114.829 294.527C114.585 294.164 114.458 293.734 114.466 293.296C114.441 292.82 114.465 292.343 114.537 291.872C114.573 291.609 114.623 291.339 114.673 291.068C114.698 290.913 114.736 290.761 114.786 290.613C114.823 290.517 114.881 290.432 114.957 290.362C115.032 290.293 115.122 290.243 115.221 290.214C115.331 290.189 115.447 290.201 115.55 290.249C115.653 290.296 115.738 290.377 115.79 290.477C115.875 290.625 115.924 290.791 115.932 290.961C115.964 291.24 115.964 291.522 115.932 291.801C115.884 292.273 115.754 292.733 115.548 293.161C115.192 293.872 114.794 294.207 114.765 294.178C114.737 294.15 115.036 293.766 115.313 293.054C115.467 292.642 115.563 292.211 115.598 291.773C115.622 291.515 115.622 291.255 115.598 290.997C115.598 290.741 115.448 290.52 115.342 290.57C115.235 290.62 115.107 290.848 115.057 291.132C115.007 291.417 114.95 291.666 114.9 291.922C114.82 292.362 114.773 292.807 114.758 293.253C114.722 294.05 114.886 294.506 114.829 294.527Z" fill="#252525"/>
<path d="M115.085 294.464C115.085 294.464 115.021 294.514 114.879 294.557H114.772L114.822 294.443C115.029 293.999 115.311 293.595 115.655 293.247C115.923 292.982 116.216 292.744 116.53 292.535C116.712 292.419 116.899 292.312 117.092 292.215C117.206 292.153 117.328 292.11 117.455 292.087C117.539 292.077 117.623 292.085 117.703 292.111C117.783 292.137 117.856 292.18 117.918 292.236C117.991 292.319 118.034 292.422 118.042 292.532C118.05 292.641 118.021 292.75 117.961 292.841C117.882 292.968 117.786 293.083 117.676 293.183C117.49 293.369 117.287 293.538 117.071 293.688C116.706 293.941 116.305 294.138 115.882 294.272C115.507 294.429 115.095 294.476 114.694 294.407C114.694 294.35 115.135 294.3 115.797 294.023C116.179 293.864 116.54 293.659 116.872 293.411C117.066 293.263 117.249 293.102 117.42 292.927C117.612 292.756 117.733 292.528 117.655 292.5C117.519 292.336 117.028 292.656 116.722 292.834C116.418 293.027 116.13 293.244 115.861 293.482C115.521 293.803 115.207 294.15 114.922 294.521L114.865 294.436C115.007 294.436 115.05 294.443 115.085 294.464Z" fill="#252525"/>
<path d="M115.569 177.159L121.796 178.163L125.846 183.764L124.665 188.034L123.953 188.276L124.102 189.877C124.135 190.224 124.065 190.572 123.9 190.878C123.735 191.185 123.484 191.436 123.177 191.6L119.953 186.013L121.284 191.706C120.916 191.792 120.534 191.803 120.161 191.74C119.789 191.676 119.432 191.539 119.113 191.336C117.74 190.625 116.267 184.319 116.267 184.319L114.131 182.974L116.267 190.005C116.024 190.238 115.735 190.417 115.419 190.53C115.102 190.643 114.765 190.687 114.43 190.66C113.242 190.596 110.815 184.219 110.815 184.219L78.3895 188.76L78.3184 184.568L86.1898 171.537L115.569 177.159Z" fill="#936760"/>
<path d="M45.2098 124.849C43.4818 124.171 41.9503 123.072 40.7536 121.653C39.5569 120.234 38.7329 118.539 38.3561 116.721C38.0571 115.184 38.0785 113.583 37.6444 112.088C36.9754 109.953 35.3171 108.095 35.2317 105.846C35.1819 104.359 35.8437 102.936 35.9434 101.448C36.043 99.9606 35.7014 98.6013 35.6729 97.1423C35.6668 95.3045 36.204 93.5058 37.2171 91.9723C38.2301 90.4389 39.6737 89.239 41.3666 88.5235L50.3341 84.8867L64.1554 90.5234C64.1554 90.5234 71.9842 98.1529 69.7565 113.853L45.2098 124.849Z" fill="#FB8312"/>
<path d="M68.2692 115.24C68.5279 114.898 68.8679 114.627 69.2584 114.45H69.1801C69.2518 114.424 69.3257 114.405 69.4008 114.393C69.5323 114.336 69.674 114.307 69.8171 114.307C69.9603 114.307 70.102 114.336 70.2335 114.393C70.7083 114.517 71.1196 114.814 71.3864 115.226C71.5978 115.593 71.7042 116.012 71.6942 116.436C71.6841 116.86 71.558 117.274 71.3295 117.631C71.1696 117.952 70.9159 118.218 70.602 118.391C70.2881 118.565 69.9288 118.64 69.5717 118.605C69.2145 118.57 68.8763 118.428 68.6018 118.197C68.3273 117.966 68.1294 117.657 68.0343 117.311C67.8997 116.973 67.8508 116.607 67.8917 116.246C67.9327 115.885 68.0624 115.539 68.2692 115.24Z" fill="#455A64"/>
<path d="M68.0772 100.871C67.1662 95.8533 63.0953 90.06 58.1133 91.1845L42.8757 97.0205C42.1458 97.1832 41.504 97.6148 41.078 98.2294C40.652 98.844 40.4731 99.5965 40.5769 100.337L45.0962 133.937C45.383 136.06 46.3936 138.018 47.9574 139.482C49.5212 140.946 51.5423 141.826 53.6794 141.972C55.0086 142.062 56.3417 141.866 57.5884 141.396C58.8351 140.927 59.9665 140.195 60.9058 139.25C61.8451 138.305 62.5706 137.17 63.0331 135.92C63.4955 134.671 63.6842 133.337 63.5864 132.008C63.4084 129.688 63.2874 127.951 63.2874 127.958C63.2874 127.965 69.6145 126.122 69.949 117.546C70.1483 113.276 69.1234 106.436 68.0772 100.871Z" fill="#936760"/>
<path d="M66.5186 108.272C66.5551 108.554 66.4793 108.839 66.3075 109.066C66.1357 109.292 65.8817 109.442 65.6005 109.482C65.4647 109.51 65.3248 109.51 65.189 109.483C65.0533 109.455 64.9244 109.401 64.8102 109.322C64.6959 109.244 64.5987 109.143 64.5241 109.026C64.4496 108.91 64.3993 108.779 64.3763 108.642C64.3396 108.362 64.4144 108.078 64.5848 107.852C64.7551 107.625 65.0073 107.475 65.2873 107.433C65.4235 107.405 65.5638 107.405 65.7 107.432C65.8363 107.46 65.9656 107.514 66.0804 107.592C66.1952 107.671 66.2931 107.771 66.3684 107.888C66.4436 108.005 66.4947 108.135 66.5186 108.272Z" fill="#252525"/>
<path d="M67.0381 104.616C66.9243 104.772 66.0346 104.267 64.903 104.409C63.7714 104.552 62.9601 105.228 62.8177 105.121C62.6754 105.014 62.8533 104.794 63.1878 104.48C63.6514 104.078 64.2282 103.829 64.839 103.769C65.4441 103.692 66.0578 103.812 66.5898 104.11C66.9456 104.302 67.1022 104.566 67.0381 104.616Z" fill="#252525"/>
<path d="M56.2057 109.321C56.2424 109.601 56.1676 109.885 55.9973 110.112C55.827 110.338 55.5747 110.488 55.2947 110.531C55.1586 110.558 55.0182 110.558 54.882 110.531C54.7458 110.504 54.6165 110.449 54.5017 110.371C54.3869 110.292 54.2889 110.192 54.2137 110.075C54.1384 109.958 54.0873 109.828 54.0635 109.691C54.0286 109.41 54.1042 109.127 54.2742 108.901C54.4442 108.676 54.6953 108.525 54.9745 108.481C55.1107 108.452 55.2514 108.451 55.388 108.478C55.5246 108.505 55.6543 108.559 55.7693 108.638C55.8844 108.716 55.9823 108.817 56.0573 108.935C56.1323 109.052 56.1828 109.183 56.2057 109.321Z" fill="#252525"/>
<path d="M55.6508 106.188C55.5298 106.344 54.6401 105.832 53.4801 105.974C52.32 106.117 51.5371 106.8 51.3948 106.686C51.2524 106.572 51.3948 106.359 51.772 106.046C52.2346 105.646 52.8082 105.398 53.416 105.334C54.0209 105.263 54.6328 105.382 55.1668 105.675C55.5511 105.875 55.7077 106.117 55.6508 106.188Z" fill="#252525"/>
<path d="M60.8816 114.301C61.473 114.039 62.0945 113.85 62.7321 113.739C63.0239 113.675 63.2943 113.583 63.3228 113.369C63.312 113.061 63.2077 112.763 63.0239 112.515L61.878 110.38C60.2767 107.312 59.081 104.772 59.2091 104.686C59.3372 104.601 60.725 107.063 62.3264 110.131C62.7107 110.892 63.0879 111.611 63.4366 112.309C63.665 112.645 63.7682 113.05 63.7284 113.454C63.6968 113.563 63.6414 113.664 63.5663 113.749C63.4913 113.833 63.3984 113.901 63.2943 113.946C63.1337 114.007 62.9666 114.05 62.7961 114.074C62.1698 114.228 61.5267 114.305 60.8816 114.301Z" fill="#252525"/>
<path d="M63.3157 127.952C59.3662 128.48 55.3476 127.901 51.7078 126.28C51.7078 126.28 55.124 131.739 63.458 129.952L63.3157 127.952Z" fill="#6F4C47"/>
<path d="M61.0384 117.086C60.7334 116.732 60.346 116.458 59.9104 116.289C59.4747 116.121 59.0042 116.062 58.5404 116.118C58.2383 116.156 57.9503 116.268 57.702 116.445C57.4537 116.621 57.2527 116.856 57.1169 117.128C56.9646 117.442 56.9118 117.796 56.9655 118.141C57.0192 118.485 57.1768 118.806 57.4174 119.059C57.658 119.312 57.97 119.485 58.3119 119.556C58.6537 119.627 59.009 119.592 59.3303 119.456C59.9528 119.169 60.4971 118.737 60.9175 118.196C61.0567 118.063 61.1638 117.9 61.2306 117.719C61.2657 117.621 61.2736 117.514 61.2536 117.412C61.2335 117.309 61.1863 117.214 61.1167 117.135" fill="#6F4C47"/>
<path d="M57.5581 115.511C57.7502 115.511 57.8997 116.735 59.0883 117.504C60.2768 118.273 61.5935 117.974 61.629 118.152C61.629 118.223 61.3586 118.429 60.7892 118.515C60.0443 118.617 59.2873 118.451 58.6541 118.045C58.0542 117.66 57.6259 117.058 57.4584 116.365C57.4015 115.839 57.4727 115.511 57.5581 115.511Z" fill="#252525"/>
<path d="M55.5939 101.341C55.5156 101.669 54.3413 101.662 52.9962 101.982C51.651 102.302 50.5977 102.815 50.3771 102.551C50.2846 102.423 50.4411 102.103 50.8468 101.747C51.3914 101.296 52.0355 100.982 52.7257 100.829C53.4129 100.66 54.1309 100.66 54.8181 100.829C55.3448 101.007 55.6295 101.185 55.5939 101.341Z" fill="#252525"/>
<path d="M66.1556 100.664C65.9848 100.956 65.1521 100.778 64.1913 100.878C63.2305 100.977 62.4333 101.262 62.2127 101.013C62.1131 100.885 62.2127 100.607 62.5401 100.301C62.9781 99.9385 63.5175 99.7198 64.0845 99.675C64.651 99.6163 65.2215 99.7384 65.7143 100.024C66.0915 100.294 66.2339 100.529 66.1556 100.664Z" fill="#252525"/>
<path d="M51.6296 93.1284C47.7588 93.3493 43.9671 94.3159 40.463 95.9752C39.3756 96.3868 38.4481 97.1349 37.8154 98.1104C37.4148 99.045 37.2865 100.074 37.4453 101.078C37.7158 104.245 39.2744 108.024 40.6907 110.857L42.349 113.284C44.4841 112.608 46.0214 106.843 45.6869 104.217C46.7086 103.654 47.5522 102.817 48.122 101.799C48.6919 100.781 48.9652 99.6242 48.9109 98.4591C49.7342 97.8307 50.4059 97.0256 50.8765 96.1029C51.347 95.1803 51.6044 94.1638 51.6296 93.1284Z" fill="#252525"/>
<path d="M44.6765 111.824C44.4274 110.023 42.1784 109.831 40.6909 110.877C39.8796 111.454 39.3102 112.514 39.5593 114.436C40.2283 119.539 45.2103 117.809 45.2031 117.66C45.196 117.51 44.9754 113.93 44.6765 111.824Z" fill="#936760"/>
<path d="M43.3881 115.953C43.3881 115.953 43.3098 116.025 43.1674 116.117C42.9677 116.234 42.7308 116.269 42.5055 116.217C42.1488 116.05 41.8429 115.791 41.619 115.468C41.3952 115.144 41.2614 114.766 41.2316 114.373C41.159 113.939 41.1858 113.494 41.3099 113.071C41.3358 112.906 41.402 112.749 41.5025 112.615C41.603 112.481 41.7348 112.374 41.8864 112.302C41.9854 112.261 42.0955 112.256 42.1981 112.287C42.3006 112.318 42.3892 112.384 42.4486 112.473C42.534 112.608 42.5127 112.715 42.5411 112.722C42.5696 112.729 42.6408 112.623 42.5411 112.416C42.4983 112.293 42.4124 112.189 42.2992 112.124C42.1467 112.035 41.9651 112.009 41.7938 112.053C41.6035 112.129 41.4347 112.251 41.302 112.407C41.1693 112.564 41.0767 112.75 41.0323 112.95C40.872 113.419 40.8304 113.92 40.9113 114.409C41.075 115.434 41.7298 116.323 42.4984 116.444C42.6398 116.466 42.7842 116.455 42.921 116.413C43.0577 116.372 43.1833 116.299 43.2884 116.203C43.3952 116.053 43.4094 115.953 43.3881 115.953Z" fill="#6F4C47"/>
<path d="M40.6055 117.284C40.8724 116.948 41.2134 116.677 41.6019 116.494H41.5236C41.595 116.468 41.669 116.449 41.7442 116.437C41.8758 116.381 42.0174 116.352 42.1606 116.352C42.3038 116.352 42.4454 116.381 42.5769 116.437C43.0504 116.56 43.4597 116.858 43.7228 117.27C43.9343 117.637 44.0408 118.054 44.0308 118.477C44.0208 118.9 43.8945 119.312 43.6658 119.668C43.4824 119.988 43.2114 120.248 42.8847 120.418C42.558 120.589 42.1895 120.662 41.8225 120.629C41.4959 120.557 41.1934 120.402 40.9442 120.179C40.6949 119.955 40.5072 119.672 40.3991 119.355C40.2598 119.02 40.2058 118.655 40.2418 118.294C40.2778 117.932 40.4028 117.586 40.6055 117.284Z" fill="#455A64"/>
<path d="M36.7051 94.0819C37.7655 91.6764 40.2636 90.1676 42.8684 89.6551C43.6238 89.5058 44.3904 89.4201 45.1601 89.3989C44.8594 88.3914 44.7484 87.3368 44.8327 86.2888C44.9953 84.7785 45.5374 83.334 46.4085 82.0896C47.2796 80.8452 48.4513 79.8414 49.8147 79.1717C52.4921 77.9993 55.5223 77.9227 58.2555 78.9582C60.9491 79.8089 63.2057 81.6748 64.547 84.1608C65.8352 86.7443 65.7356 90.2459 63.878 92.381C61.7429 94.3524 59.2377 95.2278 56.4691 95.7616C54.0326 96.2991 51.4838 95.935 49.2951 94.7367C42.8898 100.025 41.2386 108.772 40.1711 116.686C37.367 111.761 36.762 105.932 36.214 100.316C36.0503 98.217 35.851 96.0249 36.7051 94.0819Z" fill="#FB8312"/>
<path d="M44.3204 94.6666C44.2421 94.5954 44.5979 94.0901 45.1175 93.535C45.637 92.9798 46.1067 92.5955 46.185 92.6667C46.2633 92.7379 45.9004 93.2361 45.3879 93.7912C44.8755 94.3463 44.3915 94.7306 44.3204 94.6666Z" fill="#252525"/>
<path d="M59.202 92.0617C59.1593 92.0118 59.7074 91.4994 60.3479 90.503C61.1872 89.2052 61.6977 87.7224 61.8354 86.183C61.964 84.6436 61.7199 83.0958 61.1237 81.6708C60.6539 80.5819 60.1984 79.984 60.2483 79.9413C60.2981 79.8986 60.4048 80.0623 60.6112 80.3328C60.8987 80.7186 61.1489 81.1309 61.3585 81.564C62.0684 83.005 62.3732 84.6119 62.2403 86.2128C62.1074 87.8136 61.5419 89.3483 60.6041 90.6525C60.3228 91.0438 60.0059 91.4083 59.6575 91.7414C59.3729 91.9691 59.2234 92.0759 59.202 92.0617Z" fill="#252525"/>
<path d="M55.978 87.6402C56.2223 87.2776 56.5117 86.9476 56.8392 86.658C57.5675 85.9233 58.2407 85.1359 58.8533 84.3022C59.4459 83.4637 59.8778 82.5226 60.1273 81.5266C60.3123 80.7651 60.2981 80.2669 60.3621 80.2598C60.4727 80.6917 60.4727 81.1445 60.3621 81.5764C60.176 82.6348 59.7526 83.6373 59.1238 84.5087C58.5089 85.3701 57.792 86.154 56.9886 86.843C56.6934 87.1576 56.3528 87.4263 55.978 87.6402Z" fill="#252525"/>
<g opacity="0.3">
<path d="M44.8044 86.9014C44.8287 88.4875 45.253 90.0419 46.038 91.4204C46.8231 92.7989 47.9434 93.9569 49.2953 94.7871L49.2027 94.9365C48.2598 94.9525 47.3304 94.7105 46.515 94.2365C45.6996 93.7626 45.0292 93.0748 44.5764 92.2476C44.1235 91.4203 43.9054 90.485 43.9456 89.5427C43.9858 88.6004 44.2828 87.6871 44.8044 86.9014Z" fill="#252525"/>
</g>
<path d="M38.6553 98.1606C39.2559 98.3772 39.8311 98.6589 40.3705 99.0005C40.9648 99.2366 41.5326 99.5348 42.0643 99.8901C41.4057 99.8805 40.7627 99.6884 40.2068 99.335C39.5927 99.0914 39.0564 98.6855 38.6553 98.1606Z" fill="#FBFBFB"/>
<path d="M35.5024 103.42C36.2683 103.433 37.0321 103.504 37.787 103.634C38.5571 103.645 39.3254 103.711 40.0858 103.833C39.3354 104.078 38.5367 104.137 37.7585 104.004C36.9704 103.995 36.1961 103.795 35.5024 103.42Z" fill="#FBFBFB"/>
<path d="M41.8577 88.416C41.9645 88.416 41.5873 89.8394 41.4521 91.5618C41.3168 93.2841 41.4521 94.7217 41.3311 94.736C40.8188 92.6278 41.0036 90.4103 41.8577 88.416Z" fill="#FBFBFB"/>
<path d="M43.7581 97.4489C43.7581 97.3421 44.4128 97.3848 45.1815 97.3635C45.9501 97.3421 46.6049 97.2781 46.6049 97.3635C46.163 97.5787 45.6798 97.6959 45.1885 97.707C44.6971 97.718 44.2091 97.6227 43.7581 97.4275V97.4489Z" fill="#FBFBFB"/>
<path d="M38.9541 107.205C39.5435 107.588 40.0317 108.108 40.3775 108.721C40.8178 109.268 41.1227 109.912 41.2671 110.599C40.8065 110.092 40.4054 109.533 40.0715 108.934C39.6341 108.402 39.2591 107.822 38.9541 107.205Z" fill="#FBFBFB"/>
<path d="M52.085 92.6881C52.267 91.9938 52.505 91.3155 52.7967 90.6597C53.302 89.3146 53.9212 87.6492 54.6115 85.8201C55.3019 83.991 55.8712 82.3043 56.3623 80.9521C56.5668 80.2647 56.8287 79.5957 57.1452 78.9521C57.0347 79.6605 56.8559 80.3564 56.6114 81.0303C56.2271 82.3043 55.6506 84.0409 54.9531 85.9411C54.2557 87.8414 53.5724 89.5423 53.0386 90.7594C52.7809 91.4303 52.4616 92.0759 52.085 92.6881Z" fill="#FBFBFB"/>
<path d="M47.637 82.8443C47.9992 82.4914 48.4117 82.194 48.8611 81.9618C49.9154 81.334 51.0144 80.7845 52.1492 80.3178C53.2848 79.852 54.4527 79.4691 55.6437 79.172C56.1303 79.0198 56.6357 78.936 57.1454 78.9229C57.1454 79.0367 54.9177 79.5776 52.2915 80.6594C49.6653 81.7412 47.6939 82.9369 47.637 82.8443Z" fill="#FBFBFB"/>
<path d="M62.2694 85.8687C63.016 86.5585 63.5961 87.409 63.966 88.3559C64.3358 89.3028 64.4858 90.3213 64.4045 91.3346C64.2906 91.3346 64.2194 90.0037 63.6287 88.4877C63.038 86.9718 62.184 85.9398 62.2694 85.8687Z" fill="#FBFBFB"/>
<path d="M52.5903 95.8268C53.2871 95.7097 53.9711 95.5262 54.6329 95.2788C55.2462 94.9254 55.8252 94.5156 56.3624 94.0547C56.0341 94.7395 55.4794 95.2899 54.7921 95.6128C54.1048 95.9357 53.327 96.0113 52.5903 95.8268Z" fill="#FBFBFB"/>
<path d="M45.459 90.5322C45.4218 89.8341 45.6225 89.1441 46.0283 88.575C46.6119 87.5857 47.4517 87.059 47.4517 87.1515C47.4517 87.2441 46.8752 87.8633 46.3344 88.7814C45.7935 89.6995 45.5657 90.5535 45.459 90.5322Z" fill="#FBFBFB"/>
<path d="M68.1982 101.278C68.1342 101.192 68.3619 100.929 68.5826 100.566C68.8032 100.203 68.9526 99.9042 69.0523 99.9185C69.1519 99.9327 69.1662 100.353 68.8957 100.765C68.6253 101.178 68.2481 101.363 68.1982 101.278Z" fill="#FBFBFB"/>
<path d="M46.8897 93.2559C46.9324 93.2986 46.121 94.2024 44.9467 95.7611C43.4386 97.8054 42.128 99.9883 41.0323 102.28C39.9488 104.581 39.0908 106.981 38.4702 109.447C37.9933 111.347 37.8154 112.55 37.7585 112.536C37.7512 112.25 37.7726 111.964 37.8225 111.682C37.8795 111.141 38.0147 110.351 38.2211 109.39C39.3226 104.355 41.5624 99.6396 44.7688 95.6045C45.388 94.8358 45.9075 94.238 46.2989 93.8466C46.472 93.6272 46.6703 93.4289 46.8897 93.2559Z" fill="#252525"/>
<path d="M35.9719 101.939C36.2345 101.267 36.5762 100.629 36.9897 100.038C37.9185 98.5681 38.9836 97.1884 40.171 95.9177C41.3592 94.6439 42.6677 93.488 44.0783 92.4659C44.6415 92.0164 45.2554 91.6342 45.9073 91.3271C45.3763 91.8075 44.8179 92.2566 44.2348 92.6723C42.8915 93.7485 41.624 94.9161 40.4414 96.1668C39.2691 97.4245 38.187 98.7635 37.2032 100.174C36.8243 100.783 36.4133 101.373 35.9719 101.939Z" fill="#252525"/>
<path d="M48.9464 79.9321C48.9464 79.9321 48.7258 80.2879 48.3984 80.9498C47.9518 81.8848 47.6769 82.8925 47.5871 83.9248C47.4471 85.4548 47.7071 86.9949 48.3415 88.3943C49.1394 90.0982 50.4379 91.5183 52.0637 92.4652C53.6829 93.4274 55.5322 93.934 57.4157 93.9313C58.9525 93.9472 60.4754 93.6392 61.8852 93.0275C62.8325 92.6086 63.6793 91.9923 64.3691 91.2197C64.8531 90.6646 65.0381 90.2874 65.0808 90.3159C65.1235 90.3443 65.0808 90.4155 64.9598 90.5863C64.8243 90.8368 64.6672 91.075 64.4901 91.298C63.8217 92.1307 62.9722 92.8001 62.0062 93.2552C60.568 93.9143 59.0049 94.2565 57.4228 94.2587C55.4755 94.2818 53.5594 93.7671 51.8858 92.7713C50.1921 91.7797 48.8471 90.2879 48.0354 88.501C47.3917 87.0445 47.1461 85.4432 47.3237 83.8607C47.441 82.803 47.7624 81.7782 48.2703 80.8431C48.4135 80.5957 48.5728 80.3579 48.7472 80.1314C48.861 80.0033 48.9322 79.925 48.9464 79.9321Z" fill="#252525"/>
<path d="M45.1175 85.1646C45.1815 85.1646 45.0534 85.9332 45.0748 87.1573C45.0755 88.757 45.4586 90.3334 46.1922 91.7549C46.9503 93.1373 48.1366 94.2362 49.5728 94.8864C50.1858 95.1227 50.8164 95.3107 51.4588 95.4487C51.2805 95.487 51.0962 95.487 50.9179 95.4487C50.43 95.4051 49.9507 95.2925 49.4945 95.1142C47.9494 94.4953 46.6701 93.3545 45.879 91.8902C45.1187 90.4272 44.7555 88.7904 44.8257 87.1431C44.8409 86.6511 44.8933 86.1611 44.9823 85.677C44.9969 85.4996 45.0427 85.3261 45.1175 85.1646Z" fill="#252525"/>
<g opacity="0.3">
<path d="M41.388 101.106C40.1971 103.769 39.2213 106.522 38.47 109.34C38.1068 110.243 38.0128 111.232 38.1995 112.187C38.2493 112.365 38.3988 112.586 38.5838 112.522C38.7689 112.458 38.7404 112.344 38.7689 112.223C39.9601 107.507 41.4287 102.866 43.1672 98.3232L41.388 101.106Z" fill="#252525"/>
</g>
<g opacity="0.3">
<path d="M61.0169 80.9219C62.4404 84.6939 62.2695 88.8289 59.4014 91.9604C60.0379 91.8198 60.6281 91.5192 61.1163 91.0871C61.6044 90.655 61.9744 90.1056 62.1913 89.4908C62.7234 88.0775 62.8948 86.5538 62.6897 85.0576C62.4847 83.5614 61.9097 82.1399 61.0169 80.9219Z" fill="#252525"/>
</g>
<path d="M114.487 201.243C101.311 200.92 88.6027 200.948 76.3614 201.328L76.4966 201.243L80.7668 161.252L64.6111 134.143L63.6432 133.232C60.2768 134.84 57.1524 135.581 53.4729 134.947L44.0855 133.346C39.8153 137.061 32.0506 145.018 32.0506 145.295C32.0506 145.573 42.4557 196.296 42.4557 196.296L48.6618 202.388L31.104 214.744C31.104 214.744 31.4599 226.935 39.7014 230.259C47.943 233.582 84.5816 231.07 88.8589 230.536C88.8589 230.536 104.865 224.316 107.086 222.416C109.306 220.516 115.121 205.392 114.487 201.243Z" fill="#252525"/>
<path d="M70.6248 206.88C70.7538 206.884 70.8823 206.898 71.0091 206.923L72.0837 207.086C73.0232 207.243 74.3754 207.492 76.0337 207.834C79.3645 208.503 83.9337 209.563 88.9512 210.83L101.762 214.154L105.648 215.171L106.701 215.456C106.825 215.486 106.947 215.527 107.064 215.577C106.936 215.576 106.809 215.557 106.687 215.52L105.619 215.299C104.687 215.093 103.356 214.787 101.705 214.388C98.4026 213.591 93.8762 212.424 88.8444 211.157C83.8127 209.89 79.2791 208.794 75.9697 208.068C74.3114 207.698 72.9663 207.414 72.041 207.221L70.9735 206.987C70.8533 206.966 70.7362 206.93 70.6248 206.88Z" fill="#455A64"/>
<path d="M67.0737 201.024C68.0997 200.928 69.1331 200.945 70.1554 201.074C71.184 201.091 72.2077 201.22 73.2086 201.458C72.1827 201.553 71.1493 201.537 70.1269 201.408C69.0983 201.39 68.0747 201.262 67.0737 201.024Z" fill="#455A64"/>
<path d="M66.8884 193.735C66.9738 193.671 67.9916 195.03 69.5217 196.44C71.0519 197.849 72.4682 198.774 72.4113 198.859C71.2479 198.33 70.1914 197.592 69.294 196.682C68.3208 195.853 67.5058 194.854 66.8884 193.735Z" fill="#455A64"/>
<path d="M66.0062 172.739C65.9635 172.689 66.5257 172.177 67.2873 171.223C69.2589 168.712 70.3784 165.638 70.4828 162.448C70.5184 161.231 70.4188 160.476 70.4828 160.469C70.5491 160.638 70.5899 160.815 70.6038 160.996C70.6765 161.467 70.7146 161.943 70.7177 162.419C70.7467 165.687 69.5913 168.855 67.4652 171.337C67.1489 171.707 66.8064 172.055 66.4403 172.376C66.3159 172.519 66.1693 172.642 66.0062 172.739Z" fill="#455A64"/>
<path d="M70.5468 134.971C75.116 137.817 79.6282 145.077 80.7598 152.813L83.2935 164.798C83.2935 164.798 85.2079 163.766 86.3894 165.225C86.7985 165.725 87.0995 166.305 87.2735 166.927C87.4474 167.549 87.4905 168.201 87.4 168.841L92.6595 172.513L84.2543 178.627L78.5037 185.701C78.5037 185.701 83.4358 200.191 84.2543 201.615C85.0727 203.038 86.6954 205.501 86.6954 205.501L79.1656 204.077C79.1656 204.077 74.084 200.419 74.2833 194.313C74.4825 188.206 75.0875 164.82 74.2833 161.766C73.479 158.713 63.6077 133.255 63.6077 133.255L70.5468 134.971Z" fill="#FB8312"/>
<path d="M79.379 185.578C79.3504 185.461 79.3337 185.342 79.3292 185.222C79.3292 184.952 79.2793 184.617 79.2509 184.204C79.2082 183.322 79.1868 182.069 79.2509 180.454C79.3434 177.279 79.6921 172.917 79.9128 168.098C80.1151 163.984 80.0937 159.862 79.8487 155.75C79.7277 154.17 79.6281 152.904 79.5142 152.021C79.5142 151.608 79.443 151.274 79.4146 151.003C79.402 150.885 79.402 150.766 79.4146 150.647C79.4595 150.759 79.4883 150.876 79.5 150.996L79.6566 152.007C79.8131 152.875 79.9483 154.142 80.1049 155.729C80.4229 159.849 80.4752 163.986 80.2615 168.113C80.0409 172.945 79.6565 177.301 79.5071 180.461C79.4288 182.041 79.4146 183.308 79.4146 184.204C79.4146 184.617 79.4146 184.952 79.4146 185.222C79.4214 185.342 79.4094 185.462 79.379 185.578Z" fill="#252525"/>
<path d="M63.0952 179.487L59.5366 165.901L44.0641 133.347L30.8762 139.717C30.5273 139.846 30.1913 140.008 29.8727 140.201C28.5641 141.053 27.4821 142.211 26.7199 143.574C24.8576 146.767 24.1726 150.512 24.784 154.157L29.8585 186.362C31.2669 190.033 32.9317 193.6 34.8404 197.038L27.1469 220.204C27.1469 220.204 46.7686 230.011 53.1313 229.983C58.4904 229.983 63.1734 229.926 64.056 219.478C64.9385 209.03 63.0952 179.487 63.0952 179.487Z" fill="#FB8312"/>
<path d="M46.7257 185.579C46.683 185.579 46.9179 184.938 47.2239 183.892C47.4042 183.275 47.6205 182.669 47.8716 182.077C48.1782 181.322 48.6672 180.654 49.295 180.134C49.9272 179.63 50.7011 179.337 51.5084 179.294C52.1677 179.265 52.8249 179.387 53.43 179.65C53.8387 179.817 54.2128 180.058 54.5331 180.362C54.7538 180.582 54.8463 180.725 54.8321 180.739C54.3771 180.383 53.8769 180.088 53.3446 179.864C52.7651 179.648 52.1469 179.556 51.5297 179.593C50.7805 179.638 50.0618 179.906 49.4658 180.362C48.8903 180.869 48.4397 181.502 48.1491 182.212C47.8502 182.846 47.6438 183.458 47.4374 183.97C47.2739 184.536 47.0345 185.077 46.7257 185.579Z" fill="#252525"/>
<path d="M42.4556 172.975C42.4556 172.975 42.605 172.882 42.9111 172.797C43.3433 172.686 43.7888 172.636 44.2348 172.648C44.9814 172.651 45.7195 172.807 46.404 173.105C47.0886 173.403 47.7053 173.837 48.2167 174.381C48.728 174.925 49.1233 175.567 49.3784 176.269C49.6336 176.971 49.7432 177.717 49.7007 178.462C49.6855 178.91 49.6064 179.353 49.4659 179.779C49.3662 180.071 49.2808 180.227 49.2595 180.22C49.3752 179.638 49.4442 179.048 49.4659 178.455C49.4824 177.031 48.9468 175.656 47.9716 174.619C46.9963 173.581 45.6571 172.961 44.2348 172.89C43.6405 172.878 43.0461 172.907 42.4556 172.975Z" fill="#252525"/>
<path d="M42.4556 147.331C42.5905 147.645 42.693 147.972 42.7616 148.306C42.9395 148.94 43.1744 149.858 43.4377 150.996C43.9644 153.281 44.5693 156.462 45.0177 160.007C45.4661 163.551 45.6582 166.796 45.7294 169.138C45.7294 170.305 45.7294 171.273 45.7294 171.906C45.7388 172.246 45.7198 172.587 45.6725 172.924C45.6192 172.587 45.5954 172.247 45.6013 171.906C45.6013 171.195 45.5301 170.262 45.4803 169.145C45.3664 166.81 45.1316 163.586 44.6903 160.049C44.2491 156.512 43.6726 153.338 43.21 151.046C42.9822 149.95 42.7901 149.032 42.6406 148.335C42.5512 148.006 42.4893 147.67 42.4556 147.331Z" fill="#252525"/>
<path d="M30.9617 140.862C31.4467 140.722 31.9523 140.667 32.4563 140.699C34.9066 140.718 37.274 141.589 39.1534 143.161C39.5546 143.463 39.9012 143.831 40.1783 144.25C38.8999 143.169 37.4587 142.297 35.908 141.667C34.3115 141.141 32.6424 140.87 30.9617 140.862Z" fill="#252525"/>
<path d="M35.417 198.02C35.5153 198.12 35.6035 198.23 35.6803 198.347L36.392 199.322C37.3131 200.459 38.4499 201.402 39.737 202.098C41.6815 203.059 43.8554 203.458 46.0143 203.251C48.6566 202.971 51.1829 202.017 53.352 200.483C53.8859 200.107 54.3991 199.703 54.8893 199.273L54.8394 199.401C54.8394 194.184 54.7967 189.544 54.7825 186.163C54.7825 184.519 54.7825 183.181 54.7825 182.213C54.7825 181.772 54.7825 181.423 54.7825 181.145C54.7675 181.023 54.7675 180.898 54.7825 180.775C54.7952 180.898 54.7952 181.022 54.7825 181.145C54.7825 181.423 54.7825 181.772 54.8252 182.213C54.8252 183.181 54.875 184.519 54.9106 186.156C54.9533 189.544 55.0103 194.184 55.0743 199.394V199.479L55.0174 199.522C54.5167 199.964 53.9916 200.377 53.4445 200.76C51.2506 202.318 48.6909 203.281 46.0143 203.557C43.8036 203.756 41.5819 203.322 39.6089 202.304C38.3086 201.579 37.1722 200.593 36.271 199.408C35.9792 198.974 35.7728 198.618 35.6234 198.383C35.5423 198.269 35.4731 198.148 35.417 198.02Z" fill="#252525"/>
<g opacity="0.3">
<path d="M63.9705 197.131C61.6432 198.106 58.711 199.024 58.227 201.501C58.1735 202.333 58.0617 203.161 57.8925 203.978C57.2378 205.864 54.8607 206.405 52.8679 206.59C49.5086 206.896 46.0355 207.031 42.8257 205.978C39.6159 204.924 36.6837 202.469 35.915 199.181C38.8402 200.989 40.1853 203.052 43.6086 203.615C45.5088 203.935 49.0602 202.697 50.8893 202.092C52.7184 201.487 54.9816 199.017 54.9816 199.017C55.1453 198.384 54.9816 196.277 54.8322 196.918C54.7824 197.131 57.9352 195.117 59.5081 194.526C61.3799 193.815 63.9705 192.576 63.9705 192.576" fill="#252525"/>
</g>
<g opacity="0.3">
<path d="M48.6616 180.845C48.1563 183.137 46.6973 186.731 45.9357 188.952C45.8208 189.348 45.6377 189.721 45.3948 190.055C45.2697 190.22 45.1052 190.352 44.9163 190.438C44.7274 190.523 44.52 190.561 44.3131 190.546C44.0118 190.464 43.7518 190.273 43.5835 190.01C43.4151 189.747 43.3505 189.43 43.4021 189.122C43.5066 188.516 43.7665 187.947 44.1565 187.471L48.6616 180.817" fill="#252525"/>
</g>
<path d="M36.5698 209.284C36.7346 208.895 36.9372 208.524 37.1748 208.174C37.5876 207.462 38.1925 206.487 38.9256 205.327L38.9825 205.235H39.0964C40.591 205.783 42.3987 206.402 44.363 207.007C47.0461 207.84 49.5158 208.466 51.3093 208.9L53.4444 209.405C53.7107 209.448 53.9711 209.522 54.2201 209.626C53.952 209.622 53.685 209.591 53.423 209.534C52.9106 209.455 52.1704 209.32 51.2879 209.135C49.4802 208.758 47.0177 208.16 44.2989 207.327C42.3275 206.722 40.5198 206.075 39.0323 205.498L39.196 205.441C38.4416 206.616 37.7726 207.576 37.3527 208.252C37.1225 208.619 36.8605 208.964 36.5698 209.284Z" fill="#252525"/>
<path d="M52.8752 215.371C53.1538 214.457 53.489 213.561 53.8788 212.688C54.1578 211.772 54.4929 210.873 54.8823 209.998C54.6402 211.921 53.953 213.761 52.8752 215.371Z" fill="#252525"/>
<path d="M36.5984 209.75C36.5984 209.7 37.4524 210.198 38.8332 210.896C40.6281 211.805 42.4942 212.567 44.4129 213.173C46.3329 213.781 48.2955 214.245 50.2845 214.561C51.8147 214.803 52.7684 214.889 52.7684 214.945C52.544 214.976 52.3166 214.976 52.0922 214.945C51.6581 214.945 51.0247 214.881 50.256 214.789C48.2398 214.539 46.2506 214.106 44.3133 213.494C42.3754 212.88 40.5019 212.079 38.7193 211.102C38.0076 210.725 37.5023 210.391 37.1393 210.149C36.9425 210.04 36.7607 209.906 36.5984 209.75Z" fill="#252525"/>
<g opacity="0.3">
<path d="M51.6653 214.881C51.7504 215.083 51.7558 215.31 51.6806 215.516C51.6053 215.722 51.455 215.891 51.2597 215.991C50.8599 216.177 50.4165 216.248 49.9786 216.197C45.2052 216.013 40.61 214.335 36.8405 211.401C36.4562 211.109 36.0647 210.561 36.3921 210.205C36.7195 209.849 37.1537 210.105 37.5095 210.305C41.9738 212.914 46.9426 214.541 52.0852 215.08" fill="#252525"/>
</g>
<path d="M54.9819 181.308L84.2829 174.974L90.4035 173.451L95.236 176.369C95.5767 176.572 95.8669 176.85 96.0851 177.182C96.3032 177.513 96.4436 177.89 96.4957 178.283L96.9157 181.415L96.3249 181.927L97.0936 183.351C97.2585 183.658 97.3296 184.008 97.2979 184.356C97.2663 184.704 97.1334 185.035 96.9157 185.308L91.9764 181.6L95.2004 186.126C94.8968 186.35 94.5512 186.509 94.1844 186.596C93.8175 186.683 93.4369 186.695 93.0653 186.631C91.5352 186.532 87.7133 181.287 87.7133 181.287L85.2081 180.895L90.4818 186.589C90.4818 186.589 90.7167 187.066 89.5922 187.471C88.4677 187.877 82.6246 183.372 82.6246 183.372L55.1172 196.773" fill="#936760"/>
<path d="M55.1172 196.774C55.1536 196.744 55.1944 196.72 55.2381 196.703L55.6082 196.511L57.0317 195.799L62.5972 193.037L82.525 183.237C82.5467 183.222 82.5729 183.213 82.5997 183.213C82.6265 183.213 82.6526 183.222 82.6744 183.237C83.863 184.134 85.1227 185.045 86.4607 185.899C87.1298 186.341 87.8289 186.736 88.5531 187.08C88.909 187.216 89.3146 187.415 89.6135 187.266C89.7922 187.198 89.9601 187.104 90.1117 186.988C90.2612 186.881 90.3324 186.703 90.3039 186.639V186.675L85.0302 180.981C85.0001 180.949 84.9834 180.907 84.9834 180.864C84.9834 180.82 85.0001 180.778 85.0302 180.746C85.0481 180.73 85.0695 180.717 85.0929 180.71C85.1163 180.702 85.1411 180.7 85.1654 180.704L87.6706 181.095C87.7125 181.103 87.7502 181.126 87.7773 181.159C88.7357 182.465 89.7745 183.711 90.8875 184.888C91.4269 185.493 92.0675 185.999 92.7806 186.383C93.1635 186.47 93.56 186.479 93.9464 186.409C94.3328 186.339 94.7012 186.192 95.0296 185.977V186.191L94.0759 184.853L91.8056 181.664C91.7923 181.646 91.7828 181.626 91.7777 181.604C91.7727 181.582 91.7721 181.56 91.7761 181.538C91.7801 181.516 91.7886 181.495 91.801 181.476C91.8134 181.458 91.8295 181.442 91.8483 181.43C91.8762 181.409 91.9099 181.398 91.9444 181.398C91.9789 181.398 92.0125 181.409 92.0405 181.43L96.0402 184.433L96.5313 184.803L96.7733 184.988L96.9014 185.081L96.9583 185.123H96.7306C96.9516 184.826 97.0646 184.462 97.0509 184.091C97.0165 183.711 96.8841 183.345 96.6665 183.031L96.0972 181.978C96.0735 181.948 96.0606 181.912 96.0606 181.874C96.0606 181.837 96.0735 181.8 96.0972 181.771L96.6879 181.266L96.631 181.408C96.5028 180.44 96.3747 179.487 96.2466 178.561C96.2208 178.116 96.08 177.686 95.838 177.312C95.596 176.937 95.2611 176.632 94.8659 176.426L90.2043 173.579H90.3181L86.5817 174.547C85.3362 174.853 84.1121 175.167 82.9093 175.409L76.0627 176.875L64.8746 179.294L57.5868 180.825L55.6509 181.216L55.1527 181.316H54.9819L55.1456 181.266L55.6438 181.152L57.5654 180.711L64.8391 179.088L76.0342 176.633L82.8737 175.138C84.0765 174.889 85.2935 174.576 86.5461 174.263L90.368 173.316C90.3857 173.307 90.4051 173.303 90.4249 173.303C90.4446 173.303 90.4641 173.307 90.4818 173.316L95.1577 176.127C95.594 176.361 95.9638 176.701 96.2324 177.117C96.4998 177.546 96.6563 178.035 96.6879 178.54C96.816 179.487 96.9441 180.44 97.0793 181.387C97.0822 181.413 97.0785 181.44 97.0686 181.465C97.0586 181.49 97.0428 181.512 97.0224 181.529L96.4317 182.042V181.842L97.0082 182.896C97.2465 183.256 97.3931 183.669 97.4352 184.098C97.4505 184.546 97.3124 184.986 97.0438 185.344V185.379H96.8089L96.7448 185.33L96.6238 185.237L96.3819 185.052L95.8908 184.682L91.891 181.679L92.133 181.451L94.4033 184.639C94.7307 185.095 95.051 185.557 95.357 185.977C95.3801 186.005 95.3928 186.041 95.3928 186.077C95.3928 186.113 95.3801 186.149 95.357 186.177C94.9914 186.461 94.5566 186.643 94.0973 186.703C93.8804 186.734 93.6616 186.751 93.4425 186.753H93.1151C92.9975 186.734 92.881 186.708 92.7664 186.675C91.9977 186.282 91.3097 185.749 90.738 185.102C89.615 183.915 88.5691 182.657 87.6065 181.337L87.7133 181.401L85.2081 181.01L85.3575 180.732C87.1724 182.696 88.9161 184.604 90.6242 186.426C90.66 186.558 90.6532 186.698 90.6046 186.825C90.556 186.953 90.4682 187.063 90.3537 187.137C90.178 187.275 89.9809 187.384 89.7701 187.458C89.6594 187.512 89.5374 187.538 89.4143 187.536C89.2987 187.535 89.1837 187.518 89.0726 187.486C88.8645 187.432 88.6619 187.358 88.4677 187.266C87.7268 186.919 87.013 186.517 86.3326 186.063C84.9874 185.194 83.7277 184.283 82.5321 183.373H82.6886L62.7182 193.066L57.1171 195.756L55.6367 196.468L55.2524 196.646L55.1172 196.774Z" fill="#6F4C47"/>
<path d="M95.2003 186.112C94.7633 185.648 94.3657 185.148 94.0117 184.618C93.3 183.671 92.3677 182.354 91.3428 180.881C90.9701 180.158 90.3367 179.604 89.5707 179.33C88.859 179.13 88.1473 179.009 87.5779 178.867C86.9509 178.765 86.3357 178.601 85.7417 178.376C86.3765 178.408 87.0074 178.494 87.6277 178.632C88.2113 178.746 88.8874 178.831 89.6632 179.038C90.5106 179.319 91.2153 179.919 91.6275 180.71C92.6524 182.169 93.5633 183.507 94.211 184.49C94.5924 184.997 94.9237 185.541 95.2003 186.112Z" fill="#6F4C47"/>
<path d="M96.1892 182.006C95.7797 181.606 95.3991 181.178 95.0505 180.725C94.1597 179.681 93.2092 178.69 92.2037 177.757L91.3354 176.967L90.9226 176.597L90.7162 176.412C90.7162 176.412 90.645 176.341 90.6237 176.341H90.5668C89.912 176.262 89.2572 176.277 88.7377 176.255C88.1647 176.282 87.5906 176.256 87.0225 176.177C87.587 176.064 88.162 176.012 88.7377 176.02C89.3633 175.978 89.991 175.978 90.6166 176.02H90.6949L90.8087 176.07C90.8529 176.096 90.8935 176.127 90.9297 176.163L91.1361 176.341L91.556 176.704L92.4314 177.494C93.4491 178.437 94.387 179.463 95.2356 180.561C95.6155 180.999 95.9362 181.484 96.1892 182.006Z" fill="#6F4C47"/>
<path d="M137.561 192.724L147.824 164.384C148.055 163.822 148.145 163.211 148.084 162.606C148.024 162.001 147.815 161.42 147.476 160.915C147.138 160.41 146.68 159.996 146.144 159.71C145.607 159.423 145.009 159.274 144.4 159.274H114.075C113.301 159.273 112.546 159.515 111.916 159.966C111.287 160.416 110.815 161.053 110.566 161.786L100.865 190.368L83.9908 190.425C83.0727 190.425 82.2756 191.657 82.2756 192.56H87.8269H100.346L137.561 192.724Z" fill="#E0E0E0"/>
<path d="M137.561 192.723H137.305H122.167L104.659 192.688C97.9332 192.652 90.4248 192.731 82.29 192.688H82.1191V192.517C82.1359 192.098 82.2504 191.688 82.4536 191.321C82.6541 190.947 82.9483 190.63 83.3077 190.403C83.5016 190.284 83.7213 190.214 83.9482 190.197H85.7488H90.6525L100.88 190.161L100.709 190.282L105.1 177.329C106.089 174.426 107.057 171.55 108.018 168.725C108.493 167.301 108.967 165.897 109.442 164.511L110.153 162.433C110.281 162.085 110.374 161.722 110.523 161.394C110.681 161.046 110.884 160.72 111.128 160.426C111.5 159.998 111.959 159.655 112.475 159.421C112.99 159.186 113.551 159.065 114.117 159.067H127.562H142.65H144.408C145.009 159.066 145.601 159.207 146.137 159.48C146.657 159.743 147.111 160.121 147.464 160.584C147.818 161.047 148.063 161.585 148.18 162.156C148.296 162.711 148.284 163.286 148.144 163.835C147.988 164.369 147.788 164.86 147.61 165.358C147.247 166.348 146.899 167.316 146.55 168.262L139.959 186.218C139.184 188.311 138.586 189.941 138.166 191.058C137.967 191.599 137.81 192.019 137.696 192.311C137.582 192.602 137.533 192.723 137.533 192.723C137.533 192.723 137.575 192.567 137.675 192.282L138.123 191.001C138.522 189.87 139.113 188.225 139.86 186.112C141.376 181.841 143.568 175.756 146.265 168.205C146.607 167.266 146.977 166.298 147.304 165.309C147.482 164.817 147.681 164.312 147.824 163.821C147.938 163.31 147.938 162.78 147.824 162.27C147.711 161.742 147.482 161.247 147.153 160.82C146.824 160.393 146.404 160.044 145.924 159.8C144.949 159.266 143.753 159.465 142.571 159.43H127.483H115.171C114.475 159.386 113.776 159.434 113.093 159.572C112.431 159.767 111.84 160.15 111.392 160.675C111.167 160.936 110.982 161.228 110.844 161.544C110.715 161.857 110.609 162.255 110.488 162.561L109.776 164.64C109.302 166.035 108.827 167.439 108.353 168.853C107.404 171.7 106.431 174.565 105.435 177.45C103.933 181.891 102.453 186.247 101.036 190.41L101.001 190.531H100.865H90.6454H85.7417H83.9482C83.7785 190.542 83.6144 190.596 83.4714 190.688C83.1709 190.89 82.9216 191.159 82.7437 191.474C82.5657 191.789 82.464 192.141 82.4465 192.503L82.2757 192.332C90.4034 192.332 97.9333 192.296 104.623 192.332L122.074 192.453L133.462 192.56L136.493 192.595H137.283L137.561 192.723Z" fill="#252525"/>
<path d="M114.338 159.366C114.33 159.483 114.303 159.598 114.26 159.707L113.947 160.682C113.641 161.572 113.235 162.775 112.737 164.241C111.698 167.237 110.239 171.358 108.609 175.906C106.979 180.454 105.485 184.56 104.381 187.535L103.058 191.044L102.688 191.99C102.645 192.102 102.593 192.209 102.531 192.311C102.539 192.19 102.568 192.072 102.616 191.962L102.922 190.994C103.228 190.097 103.634 188.902 104.132 187.435C105.171 184.446 106.63 180.318 108.26 175.771C109.89 171.223 111.385 167.116 112.488 164.148L113.812 160.64C113.961 160.262 114.082 159.928 114.189 159.693C114.225 159.578 114.275 159.468 114.338 159.366Z" fill="#252525"/>
<path d="M75.9629 197.743H171.502C172.187 197.743 172.845 197.471 173.329 196.986C173.814 196.502 174.086 195.845 174.086 195.16C174.084 194.475 173.811 193.819 173.327 193.335C172.843 192.851 172.187 192.578 171.502 192.576H75.9629C75.2777 192.576 74.6206 192.848 74.1361 193.333C73.6516 193.817 73.3794 194.474 73.3794 195.16C73.3785 195.499 73.4447 195.836 73.5742 196.149C73.7037 196.463 73.8939 196.748 74.134 196.989C74.3741 197.229 74.6593 197.419 74.9731 197.548C75.287 197.678 75.6234 197.744 75.9629 197.743Z" fill="#455A64"/>
<path d="M120.409 303.552H128.743V196.775H120.409L120.409 303.552Z" fill="#455A64"/>
<path d="M152.699 303.55H96.0044C96.3745 303.55 120.416 297.18 120.416 297.18H128.75L152.699 303.55Z" fill="#455A64"/>
<path d="M75.7136 197.521C75.7136 197.428 97.3139 197.357 123.96 197.357C150.606 197.357 172.214 197.428 172.214 197.521C172.214 197.613 150.614 197.691 123.96 197.691C97.3068 197.691 75.7136 197.613 75.7136 197.521Z" fill="#252525"/>
</svg>
