<svg width="315" height="212" viewBox="0 0 315 212" fill="none" xmlns="http://www.w3.org/2000/svg">
<path d="M284.407 99.9482C284.553 100.101 284.682 100.269 284.793 100.449L285.76 101.892C286.561 103.114 287.663 104.812 288.865 106.696C290.068 108.58 291.145 110.298 291.911 111.545L292.813 113.048C292.93 113.226 293.03 113.414 293.114 113.609C292.968 113.456 292.839 113.288 292.728 113.108L291.766 111.666C290.959 110.438 289.857 108.74 288.655 106.856C287.453 104.973 286.381 103.255 285.609 102.007C285.249 101.416 284.948 100.915 284.713 100.504C284.591 100.33 284.489 100.144 284.407 99.9482Z" fill="#E0E0E0"/>
<path d="M23.8719 82.6304C23.9484 82.5219 24.0138 82.4061 24.0673 82.2847L24.5683 81.2828C24.9991 80.3911 25.5702 79.0887 26.3116 77.4706C27.7443 74.2395 29.5828 69.7109 31.5515 64.6913C33.5203 59.6718 35.3187 55.1131 36.6863 51.8569L38.3294 48.0096C38.5098 47.5788 38.66 47.2331 38.7753 46.9626C38.832 46.8419 38.8773 46.7161 38.9105 46.5869C38.8296 46.6924 38.7638 46.8088 38.7151 46.9326L38.2142 47.9345C37.7834 48.8262 37.1872 50.1286 36.4759 51.7417C35.0432 54.9779 33.1997 59.5065 31.2359 64.526C29.2722 69.5455 27.4638 74.0842 26.0862 77.3404L24.443 81.1877L24.0022 82.2346C23.9427 82.3607 23.899 82.4936 23.8719 82.6304Z" fill="#E0E0E0"/>
<path d="M219.915 14.3706H283.07L270.717 23.1523V30.4862C270.689 34.1098 269.223 37.574 266.641 40.117C264.06 42.6601 260.574 44.0737 256.95 44.047H217.32C213.696 44.0737 210.211 42.6601 207.629 40.117C205.048 37.574 203.582 34.1098 203.554 30.4862C203.57 28.3537 204.005 26.2451 204.836 24.2809C205.667 22.3168 206.877 20.5356 208.396 19.039C209.915 17.5425 211.715 16.3599 213.691 15.5589C215.668 14.7579 217.782 14.3541 219.915 14.3706Z" fill="#F5F5F5"/>
<path d="M260.061 24.1742C260.061 24.2443 249.541 24.3044 236.516 24.3044C223.491 24.3044 212.971 24.2443 212.971 24.1742C212.971 24.1041 223.491 24.0439 236.516 24.0439C249.541 24.0439 260.061 24.0991 260.061 24.1742Z" fill="#E0E0E0"/>
<path d="M260.061 29.0541C260.061 29.1242 249.541 29.1843 236.516 29.1843C223.491 29.1843 212.971 29.1242 212.971 29.0541C212.971 28.9839 223.491 28.9238 236.516 28.9238C249.541 28.9238 260.061 28.9789 260.061 29.0541Z" fill="#E0E0E0"/>
<path d="M124.097 164.681H49.3651L61.5382 173.487V190.77C61.5382 191.244 61.6317 191.714 61.8133 192.152C61.9949 192.59 62.261 192.987 62.5964 193.322C62.9319 193.657 63.3301 193.923 63.7683 194.104C64.2065 194.285 64.676 194.378 65.1501 194.377H124.097C124.571 194.378 125.041 194.285 125.479 194.104C125.917 193.923 126.315 193.657 126.651 193.322C126.986 192.987 127.252 192.59 127.434 192.152C127.615 191.714 127.709 191.244 127.709 190.77V168.288C127.708 167.33 127.327 166.413 126.649 165.737C125.972 165.061 125.054 164.681 124.097 164.681Z" fill="#F5F5F5"/>
<path d="M120.981 176.894C120.981 176.969 109.709 177.024 95.8078 177.024C81.9064 177.024 70.635 176.969 70.635 176.894C70.635 176.819 81.9014 176.764 95.8078 176.764C109.714 176.764 120.981 176.824 120.981 176.894Z" fill="#E0E0E0"/>
<path d="M120.981 183.532C120.981 183.602 109.709 183.662 95.8078 183.662C81.9064 183.662 70.635 183.602 70.635 183.532C70.635 183.461 81.9014 183.401 95.8078 183.401C109.714 183.401 120.981 183.461 120.981 183.532Z" fill="#E0E0E0"/>
<path d="M276.682 79.5088H189.221C178.489 79.5088 169.789 88.2088 169.789 98.9407V170.126C169.789 180.858 178.489 189.558 189.221 189.558H276.682C287.414 189.558 296.114 180.858 296.114 170.126V98.9407C296.114 88.2088 287.414 79.5088 276.682 79.5088Z" fill="white"/>
<path d="M296.079 117.872H315L295.653 137.224L296.079 117.872Z" fill="white"/>
<path d="M166.763 129.77L158.833 120.753C156.689 118.608 155.952 117.577 156.383 117.201C156.954 116.7 156.709 116.865 161.162 120.206C161.162 120.206 154.85 115.382 157.039 115.352C157.425 115.352 158.497 115.973 159.644 116.725C158.081 115.397 157.641 114.501 157.946 114.075C158.447 113.333 162.314 116.014 164.093 117.301C162.64 116.219 159.87 114.12 159.384 113.459C158.713 112.557 160.07 112.632 161.172 113.008C162.41 113.429 169.248 116.92 171.271 117.822C171.434 117.919 171.615 117.979 171.803 117.999C171.991 118.019 172.181 117.998 172.36 117.938C172.539 117.877 172.703 117.779 172.84 117.649C172.977 117.519 173.085 117.361 173.155 117.186C173.901 114.05 176.161 112.011 177.022 111.745C177.884 111.48 178.55 112.582 177.934 113.384C177.354 114.316 176.906 115.324 176.602 116.379C176.322 117.207 176.185 118.076 176.196 118.949C176.196 119.951 176.266 120.818 176.331 121.544L183.58 131.488L171.457 138.501L166.763 129.77Z" fill="#B78876"/>
<path d="M163.927 121.609C163.847 121.719 162.424 120.752 160.781 119.445C159.138 118.137 157.856 116.985 157.951 116.88C158.046 116.775 159.454 117.747 161.097 119.044C162.74 120.341 163.997 121.494 163.927 121.609Z" fill="#AA6550"/>
<path d="M165.461 120.027C165.381 120.142 163.823 119.19 161.979 117.908C160.136 116.625 158.703 115.488 158.783 115.378C158.863 115.268 160.421 116.209 162.265 117.492C164.108 118.774 165.541 119.912 165.461 120.027Z" fill="#AA6550"/>
<path d="M166.582 118.343C166.502 118.458 165.009 117.586 163.251 116.394C161.493 115.202 160.13 114.145 160.205 114.025C160.28 113.904 161.773 114.781 163.537 115.973C165.3 117.166 166.658 118.228 166.582 118.343Z" fill="#AA6550"/>
<path d="M177.007 122.892L205.902 159.531L199.284 174.935C199.284 174.935 191.359 173.182 188.955 169.846C186.55 166.509 166.763 129.77 166.763 129.77L177.007 122.892Z" fill="#B78876"/>
<path d="M250.357 71.6348C252.436 73.4382 252.431 76.6142 252.191 79.3544C251.95 82.0946 251.765 85.2156 253.663 87.2094C255.231 88.8525 258.072 89.5688 258.433 91.8081C258.518 92.3342 258.438 92.8739 258.205 93.3529C257.971 93.832 257.594 94.2269 257.127 94.4833C256.66 94.7397 256.125 94.8451 255.595 94.785C255.065 94.7249 254.567 94.5022 254.169 94.1475C254.781 95.9159 254.36 98.1251 252.827 99.1971C251.294 100.269 248.724 99.6079 248.248 97.7995C248.326 98.1014 248.341 98.4161 248.292 98.724C248.243 99.0319 248.13 99.3264 247.962 99.5891C247.794 99.8517 247.574 100.077 247.315 100.251C247.056 100.424 246.764 100.543 246.458 100.599C246.151 100.655 245.836 100.647 245.532 100.576C245.229 100.504 244.943 100.371 244.693 100.185C244.443 99.9983 244.235 99.7623 244.08 99.4915C243.925 99.2207 243.828 98.921 243.795 98.611" fill="#263238"/>
<path d="M220.586 90.1292C220.306 90.8002 219.771 91.3326 219.099 91.6092C218.427 91.8859 217.672 91.8842 217.001 91.6045C216.33 91.3249 215.798 90.7901 215.521 90.1179C215.245 89.4457 215.246 88.6912 215.526 88.0202C216.002 86.9783 217.129 86.2268 217.239 85.0847C217.37 83.707 215.962 82.7202 214.735 82.119C213.507 81.5179 212.024 80.7364 211.889 79.3538C211.754 77.9711 212.951 76.9843 213.948 76.0926C214.945 75.2009 215.952 73.8182 215.316 72.631C215 72.0198 214.344 71.6742 213.918 71.1281C212.981 69.9359 213.472 68.0373 214.669 67.1205C215.867 66.2038 217.52 66.0585 219.013 66.324C220.506 66.5895 221.908 67.2107 223.361 67.6465C225.769 68.3468 228.296 68.5401 230.783 68.2141C233.27 67.8882 235.662 67.0502 237.808 65.7529" fill="#263238"/>
<path d="M229.456 122.436C232.045 122.958 234.734 122.442 236.945 120.998C239.156 119.555 240.711 117.301 241.274 114.721L248.382 82.1291C248.826 80.2472 248.888 78.2953 248.564 76.389C248.24 74.4828 247.538 72.6608 246.498 71.0308C245.457 69.4008 244.101 67.9959 242.509 66.8992C240.916 65.8026 239.12 65.0363 237.226 64.6459L236.485 64.5357C232.863 64.0033 229.174 64.8548 226.152 66.9204C223.13 68.986 220.998 72.1142 220.179 75.6819C218.596 82.5599 216.938 90.1794 216.437 93.9215C215.4 101.671 222.949 104.006 222.949 104.006L221.591 110.518C221.322 111.816 221.312 113.154 221.562 114.455C221.811 115.756 222.315 116.996 223.045 118.102C223.775 119.208 224.716 120.159 225.815 120.9C226.913 121.641 228.148 122.158 229.446 122.421L229.456 122.436Z" fill="#B78876"/>
<path d="M221.572 80.8113C221.528 81.0989 221.598 81.3924 221.766 81.6298C221.934 81.8672 222.188 82.0299 222.474 82.0837C222.612 82.1153 222.756 82.1189 222.896 82.0942C223.036 82.0696 223.169 82.0172 223.289 81.9402C223.408 81.8633 223.511 81.7632 223.592 81.6459C223.672 81.5286 223.728 81.3964 223.756 81.2572C223.803 80.9699 223.735 80.6758 223.568 80.4379C223.4 80.2 223.146 80.0373 222.86 79.9848C222.721 79.9531 222.577 79.9495 222.437 79.9741C222.296 79.9987 222.162 80.051 222.042 80.1279C221.923 80.2049 221.819 80.305 221.738 80.4223C221.658 80.5396 221.601 80.6719 221.572 80.8113Z" fill="#263238"/>
<path d="M221.287 79.7098C221.402 79.8751 222.329 79.3741 223.521 79.5545C224.713 79.7348 225.489 80.4512 225.64 80.3259C225.715 80.2708 225.61 79.9903 225.274 79.6597C224.812 79.2279 224.227 78.9497 223.601 78.8631C222.983 78.7699 222.352 78.8751 221.797 79.1637C221.392 79.3942 221.231 79.6346 221.287 79.7098Z" fill="#263238"/>
<path d="M233.189 82.7156C233.144 83.0034 233.213 83.2975 233.381 83.5352C233.55 83.7729 233.804 83.9354 234.091 83.988C234.23 84.0195 234.374 84.0229 234.514 83.998C234.654 83.973 234.788 83.9202 234.907 83.8427C235.027 83.7652 235.13 83.6646 235.21 83.5467C235.29 83.4288 235.345 83.2961 235.373 83.1564C235.418 82.8692 235.349 82.5758 235.181 82.3389C235.012 82.102 234.758 81.9405 234.472 81.889C234.333 81.8567 234.189 81.8526 234.049 81.877C233.909 81.9013 233.775 81.9536 233.655 82.0307C233.536 82.1078 233.433 82.2081 233.353 82.3258C233.273 82.4435 233.217 82.576 233.189 82.7156Z" fill="#263238"/>
<path d="M232.938 81.6434C233.054 81.8037 233.98 81.3077 235.168 81.4881C236.355 81.6684 237.141 82.3848 237.292 82.2595C237.362 82.2044 237.262 81.9239 236.921 81.5933C236.459 81.1615 235.874 80.8833 235.248 80.7967C234.63 80.7035 233.998 80.8087 233.444 81.0973C233.059 81.3127 232.878 81.5682 232.938 81.6434Z" fill="#263238"/>
<path d="M227.333 89.8281C227.333 89.7579 226.626 89.5225 225.454 89.1969C225.153 89.1217 224.878 89.0165 224.858 88.8011C224.879 88.4856 224.994 88.1835 225.189 87.9345C225.586 87.2431 225.998 86.5168 226.426 85.7553C228.154 82.6444 229.432 80.0745 229.326 80.0044C229.221 79.9343 227.698 82.3989 225.97 85.5149L224.768 87.709C224.525 88.0496 224.408 88.464 224.437 88.8813C224.468 88.9919 224.523 89.0943 224.598 89.181C224.674 89.2677 224.768 89.3364 224.873 89.3822C225.033 89.4509 225.202 89.4997 225.374 89.5275C226.012 89.7086 226.67 89.8096 227.333 89.8281Z" fill="#263238"/>
<path d="M233.31 76.9394C233.38 77.28 234.592 77.3001 235.96 77.6708C237.327 78.0415 238.399 78.5875 238.63 78.327C238.73 78.2018 238.58 77.8662 238.174 77.4904C237.623 77.0175 236.972 76.6764 236.27 76.4932C235.567 76.3101 234.833 76.2896 234.121 76.4334C233.56 76.5637 233.285 76.8041 233.31 76.9394Z" fill="#263238"/>
<path d="M222.228 76.3334C222.399 76.634 223.23 76.4737 224.232 76.6039C225.234 76.7342 226.026 77.0548 226.236 76.7993C226.341 76.6741 226.236 76.3835 225.925 76.0729C225.481 75.695 224.934 75.4579 224.354 75.3919C223.774 75.3259 223.187 75.4339 222.669 75.7022C222.308 75.9277 222.153 76.1882 222.228 76.3334Z" fill="#263238"/>
<path d="M241.229 72.4152L241.264 72.4553C242.356 73.6071 242.959 75.1367 242.947 76.7234V76.8787C242.947 79.133 242.542 81.3873 242.547 83.6165C242.552 85.8457 242.982 88.2202 244.39 89.9736C244.966 90.6999 246.088 91.3011 246.745 90.6499C246.976 90.3728 247.123 90.0358 247.17 89.678C248.363 84.413 250.507 79.9044 251.313 74.3339C251.425 73.5882 251.358 72.8265 251.116 72.1121C250.875 71.3978 250.467 70.7512 249.926 70.226C248.884 69.2241 247.586 68.1421 246.199 68.5679C244.811 68.9937 242.782 71.1728 241.625 72.0746" fill="#263238"/>
<path d="M245.261 85.2451C245.401 85.205 250.807 84.4485 249.86 89.7135C248.913 94.9786 243.848 92.9447 243.848 92.7894C243.848 92.6341 245.261 85.2451 245.261 85.2451Z" fill="#B78876"/>
<path d="M245.813 91.0864C245.813 91.0864 245.893 91.1666 246.033 91.2618C246.235 91.3955 246.481 91.4458 246.719 91.402C247.31 91.2968 247.937 90.5003 248.132 89.5535C248.233 89.1066 248.233 88.6429 248.132 88.196C248.111 88.0228 248.049 87.8571 247.95 87.7132C247.852 87.5693 247.72 87.4513 247.566 87.3694C247.466 87.3221 247.352 87.3117 247.244 87.3401C247.137 87.3686 247.043 87.4339 246.98 87.5247C246.885 87.6549 246.9 87.7701 246.87 87.7701C246.839 87.7701 246.774 87.6649 246.87 87.4545C246.922 87.3298 247.015 87.227 247.135 87.164C247.299 87.0802 247.49 87.064 247.666 87.1189C247.876 87.2024 248.061 87.3384 248.203 87.5138C248.345 87.6892 248.44 87.8983 248.478 88.1208C248.617 88.61 248.635 89.1256 248.533 89.6237C248.307 90.6807 247.586 91.5724 246.789 91.6575C246.64 91.6733 246.489 91.6554 246.348 91.6051C246.207 91.5548 246.079 91.4735 245.973 91.367C245.798 91.2117 245.792 91.0915 245.813 91.0864Z" fill="#AA6550"/>
<path d="M246.259 69.4146C247.872 67.4859 244.756 63.9292 242.251 62.7219C239.746 61.5146 236.14 62.286 233.414 62.7669C231.696 63.0725 229.953 63.5935 228.24 63.2679C227.103 62.9834 226.015 62.5291 225.013 61.9203C224.009 61.3225 222.895 60.9324 221.737 60.7732C221.155 60.7015 220.564 60.7901 220.028 61.0293C219.492 61.2685 219.032 61.6493 218.696 62.1307C218.1 63.1326 218.516 64.7006 219.638 65.0262C219.3 64.7695 218.905 64.5987 218.486 64.5283C218.067 64.458 217.638 64.4903 217.234 64.6224C216.831 64.7546 216.465 64.9826 216.169 65.287C215.873 65.5914 215.655 65.9631 215.535 66.3701C215.414 66.7772 215.393 67.2075 215.475 67.6241C215.557 68.0407 215.739 68.4311 216.005 68.762C216.271 69.0929 216.614 69.3543 217.003 69.5238C217.392 69.6933 217.817 69.7658 218.241 69.7352C217.574 69.0539 216.282 69.8304 216.237 70.7822C216.192 71.734 216.943 72.5405 217.74 73.0465C219.798 74.3389 222.413 74.4041 224.808 73.9732C227.203 73.5424 229.497 72.6507 231.881 72.1598C234.266 71.6689 238.269 70.7371 240.423 71.8743C242.006 72.7058 242.877 74.88 243.884 74.5844C244.361 74.4088 244.79 74.1244 245.138 73.754C245.486 73.3836 245.743 72.9372 245.888 72.4503C246.159 71.4727 246.273 70.458 246.224 69.4446" fill="#263238"/>
<path d="M256.563 93.8366C256.662 93.814 256.755 93.7732 256.839 93.7164C257.086 93.5572 257.284 93.3315 257.41 93.0651C257.604 92.6389 257.663 92.1635 257.58 91.7025C257.45 91.0964 257.118 90.5523 256.638 90.1596C256.069 89.691 255.428 89.3172 254.74 89.0525C253.966 88.7702 253.223 88.411 252.521 87.9805C251.785 87.4635 251.224 86.7349 250.912 85.8915C250.57 84.9833 250.412 84.0161 250.447 83.0461C250.497 81.0423 251.053 79.1637 251.188 77.3954C251.323 75.627 251.098 73.9689 250.346 72.8217C249.781 71.8991 248.886 71.2271 247.842 70.9431C247.562 70.8726 247.273 70.8439 246.985 70.8579C246.885 70.8595 246.785 70.8747 246.689 70.903C247.07 70.9005 247.449 70.9477 247.817 71.0433C248.809 71.3571 249.651 72.0259 250.181 72.9219C250.877 74.034 251.118 75.647 250.943 77.3753C250.767 79.1036 250.231 80.9822 250.171 83.0411C250.139 84.0466 250.31 85.0482 250.672 85.9867C251.007 86.8778 251.607 87.6451 252.39 88.1859C253.109 88.6176 253.869 88.9767 254.66 89.2579C255.33 89.5064 255.957 89.8579 256.518 90.2999C256.976 90.662 257.3 91.166 257.44 91.7326C257.531 92.164 257.489 92.613 257.32 93.02C257.165 93.3684 256.899 93.6556 256.563 93.8366Z" fill="#455A64"/>
<path d="M219.469 64.901C219.398 64.8483 219.321 64.8061 219.238 64.7758C219.144 64.7296 219.047 64.6911 218.948 64.6605C218.809 64.6131 218.666 64.5779 218.522 64.5553C218.047 64.4804 217.561 64.5145 217.101 64.6551C216.641 64.7957 216.219 65.0391 215.867 65.3669C215.51 65.8013 215.243 66.3022 215.082 66.8405C214.92 67.3788 214.867 67.9438 214.925 68.5028C214.992 69.1972 215.198 69.871 215.53 70.4845C215.862 71.098 216.314 71.6387 216.859 72.0746C218.111 73.0833 219.635 73.6955 221.237 73.833C222.976 73.9826 224.728 73.8762 226.437 73.5174C229.146 72.9866 231.74 71.9827 234.101 70.5517C235.113 69.9257 236.172 69.3781 237.267 68.9136C238.223 68.5258 239.242 68.3169 240.273 68.2974C241.774 68.265 243.258 68.6095 244.591 69.2994C245.073 69.569 245.54 69.865 245.989 70.186C245.588 69.7919 245.134 69.4548 244.641 69.1841C243.305 68.4394 241.798 68.0545 240.268 68.067C239.212 68.0751 238.166 68.2771 237.182 68.6631C236.075 69.1271 235.005 69.6747 233.981 70.3013C231.637 71.7026 229.067 72.6873 226.387 73.2118C224.703 73.5683 222.977 73.678 221.262 73.5374C219.709 73.4086 218.229 72.8229 217.009 71.8542C216.484 71.4393 216.047 70.9239 215.724 70.3381C215.4 69.7523 215.197 69.108 215.125 68.4427C215.064 67.9097 215.109 67.3698 215.257 66.854C215.404 66.3382 215.653 65.8567 215.987 65.437C216.321 65.1182 216.722 64.8777 217.16 64.733C217.598 64.5883 218.064 64.543 218.522 64.6004C218.846 64.6714 219.163 64.772 219.469 64.901Z" fill="#455A64"/>
<path d="M222.399 60.5176C222.381 60.9201 222.444 61.3221 222.585 61.6998C222.975 62.7437 223.706 63.6259 224.658 64.2046C225.299 64.6216 226.01 64.9171 226.757 65.0762C227.614 65.2489 228.492 65.2945 229.362 65.2115C231.201 65.0762 233.125 64.445 235.143 63.924C237.162 63.4031 239.181 63.1275 240.924 63.5934C242.472 64.0034 243.848 64.8967 244.852 66.1433C245.542 66.9712 246.054 67.9332 246.355 68.9686C246.555 69.705 246.58 70.1358 246.615 70.1308C246.622 70.0274 246.622 69.9237 246.615 69.8202C246.588 69.5249 246.539 69.232 246.47 68.9436C246.203 67.8755 245.705 66.8787 245.012 66.023C243.998 64.7253 242.593 63.789 241.004 63.353C239.201 62.852 237.127 63.1376 235.098 63.6636C233.069 64.1896 231.161 64.8207 229.362 64.966C228.515 65.0537 227.66 65.0183 226.823 64.8608C226.099 64.7135 225.407 64.4387 224.779 64.0493C223.85 63.5016 223.122 62.6689 222.705 61.6748C222.571 61.2983 222.468 60.9112 222.399 60.5176Z" fill="#455A64"/>
<path d="M224.957 93.7606C225.023 94.2778 225.16 94.7834 225.363 95.2635C225.47 95.5007 225.625 95.7126 225.819 95.8853C226.014 96.058 226.242 96.1876 226.49 96.2654C226.759 96.3209 227.037 96.3083 227.3 96.2286C227.562 96.149 227.801 96.0049 227.993 95.8095C228.377 95.4048 228.624 94.8896 228.7 94.3367C228.78 93.8358 228.7 93.2096 228.199 93.0493C227.996 92.9992 227.785 92.9992 227.582 93.0493L224.807 93.5502" fill="#AA6550"/>
<path d="M225.445 95.8657C225.886 96.0355 226.355 96.1237 226.828 96.1262C227.317 96.0974 227.778 95.8865 228.12 95.5351C228.322 95.3201 228.476 95.0646 228.572 94.7857C228.668 94.5068 228.703 94.2107 228.676 93.917C228.661 93.7664 228.628 93.6184 228.576 93.4761C228.511 93.3409 228.531 93.3509 228.416 93.3359C228.3 93.3208 228.12 93.3359 227.97 93.3609L227.504 93.396C226.903 93.4411 226.362 93.4761 225.906 93.5012C225.407 93.5707 224.899 93.5605 224.403 93.4711C224.872 93.3001 225.363 93.1988 225.861 93.1706C226.312 93.1054 226.863 93.0403 227.449 92.9702L227.91 92.9201C228.076 92.8957 228.243 92.8807 228.411 92.875C228.543 92.8786 228.671 92.9242 228.776 93.0052C228.87 93.0879 228.94 93.1931 228.982 93.3108C229.05 93.4912 229.094 93.6799 229.112 93.8719C229.145 94.2326 229.098 94.596 228.974 94.9363C228.85 95.2767 228.653 95.5855 228.396 95.8406C227.968 96.2472 227.398 96.4686 226.808 96.4568C226.422 96.4584 226.044 96.3526 225.716 96.1512C225.545 96.011 225.43 95.8857 225.445 95.8657Z" fill="#263238"/>
<path d="M222.959 104.005C222.959 104.005 228.008 105.919 232.923 104.506C232.923 104.506 229.216 107.617 222.453 106.424L222.959 104.005Z" fill="#AA6550"/>
<path d="M230.663 175.827C230.42 175.668 230.189 175.49 229.972 175.296C229.756 175.121 229.471 174.906 229.165 174.675C228.86 174.445 228.489 174.174 228.063 173.899C227.637 173.623 227.197 173.323 226.681 173.037C226.165 172.752 225.619 172.451 225.032 172.15C222.462 170.886 219.699 170.06 216.857 169.706C216.201 169.636 215.579 169.555 214.993 169.54C214.407 169.525 213.861 169.5 213.365 169.505C212.869 169.51 212.413 169.535 212.018 169.55C211.622 169.565 211.281 169.596 211.016 169.626C210.729 169.669 210.439 169.69 210.149 169.686C210.431 169.613 210.717 169.56 211.006 169.525C211.338 169.469 211.672 169.428 212.008 169.405C212.403 169.375 212.854 169.32 213.36 169.32C213.866 169.32 214.412 169.29 215.003 169.32C215.595 169.35 216.226 169.4 216.887 169.46C218.32 169.639 219.738 169.93 221.125 170.332C222.502 170.755 223.842 171.289 225.133 171.93C225.719 172.241 226.285 172.526 226.781 172.847C227.277 173.167 227.748 173.453 228.158 173.743C228.569 174.034 228.93 174.314 229.245 174.555C229.561 174.795 229.822 175.026 230.027 175.216C230.256 175.402 230.468 175.606 230.663 175.827Z" fill="#FAFAFA"/>
<path d="M201.223 150.098L205.33 132.299C206.903 125.607 208.767 119.175 211.898 118.413V120.482L210.555 171.334C210.555 171.334 202.185 180.852 191.519 175.572C188.183 173.914 182.096 162.266 182.096 162.266C182.096 162.266 167.934 136.998 168.526 135.851C169.117 134.704 177.768 123.553 178.65 122.997L201.223 150.098Z" fill="#CB7524"/>
<path d="M243.493 113.374C251.659 114.937 260.851 119.701 265.084 131.909C266.627 136.367 277.869 169.235 277.869 169.235L258.697 168.834L255.601 162.066L257.104 173.062L258.402 188.742L209.99 189.558L210.33 165.934L210.796 118.944C210.796 118.944 211.337 118.233 219.688 113.629C224.868 110.769 243.493 113.374 243.493 113.374Z" fill="#CB7524"/>
<g opacity="0.2">
<path d="M248.323 144.804C249.119 154.723 250.031 157.788 250.827 167.707C250.846 168.646 251.015 169.577 251.328 170.462C251.496 170.903 251.764 171.298 252.112 171.616C252.46 171.933 252.878 172.165 253.332 172.291C254.745 172.576 256.578 173.598 256.974 172.216L255.637 162.663C255.349 161.273 254.905 159.92 254.314 158.63C251.343 152.032 250.246 151.647 248.303 144.804" fill="black"/>
</g>
<path d="M219.683 118.714L219.843 117.682L221.391 107.783C221.436 107.496 221.587 107.235 221.816 107.055C222.045 106.875 222.333 106.788 222.623 106.811L241.685 108.404C242.26 108.452 242.794 108.725 243.169 109.164C243.545 109.603 243.731 110.173 243.688 110.749L243.263 116.5L237.311 124.265L228.74 125.602" fill="#CB7524"/>
<path d="M210.11 137.324C210.185 137.324 210.24 145.079 210.24 154.642C210.24 164.205 210.185 171.96 210.11 171.96C210.034 171.96 209.979 164.205 209.979 154.642C209.979 145.079 210.039 137.324 210.11 137.324Z" fill="#263238"/>
<path d="M259.109 170.427C259.109 170.427 259.109 170.392 259.049 170.317C258.989 170.242 258.954 170.117 258.889 169.976L258.308 168.659L256.219 163.795L249.411 147.709C248.088 144.563 246.831 141.567 245.689 138.837C245.111 137.558 244.697 136.212 244.456 134.83C244.245 133.622 244.134 132.399 244.126 131.173C244.062 129.396 244.32 127.623 244.887 125.938L245.042 125.522L245.218 125.171C245.3 124.985 245.401 124.807 245.518 124.64L245.729 124.33C245.753 124.294 245.78 124.261 245.809 124.229C245.479 124.783 245.203 125.367 244.982 125.973C244.458 127.654 244.231 129.414 244.311 131.173C244.32 133.785 244.863 136.368 245.909 138.762L249.651 147.624L256.389 163.74L258.393 168.634L258.929 169.971L259.064 170.322C259.082 170.356 259.097 170.391 259.109 170.427Z" fill="#263238"/>
<path d="M249.435 115.121C249.26 115.299 249.074 115.466 248.879 115.622C248.316 116.052 247.702 116.41 247.051 116.689C246.019 117.119 244.939 117.422 243.835 117.591C242.374 117.818 240.903 117.963 239.426 118.027C237.783 118.097 235.99 118.067 234.066 118.102C232.023 118.098 229.987 118.347 228.004 118.843C225.808 119.362 223.821 120.534 222.304 122.205C221.548 123.114 221.007 124.183 220.721 125.33C220.415 126.508 220.436 127.746 220.781 128.912C220.972 129.488 221.255 130.029 221.617 130.515C221.982 130.987 222.443 131.377 222.97 131.658C223.481 131.937 224.063 132.059 224.643 132.008C225.211 131.95 225.736 131.682 226.116 131.257C226.455 130.81 226.696 130.296 226.823 129.75C226.951 129.204 226.963 128.637 226.857 128.086C226.774 127.542 226.605 127.014 226.356 126.523C226.109 126.044 225.812 125.592 225.47 125.175C224.131 123.632 222.327 122.565 220.33 122.134C218.599 121.726 216.796 121.747 215.075 122.195C213.66 122.561 212.308 123.14 211.067 123.913C210.122 124.502 209.231 125.172 208.402 125.917C207.716 126.518 207.23 127.039 206.899 127.379L206.529 127.78C206.488 127.828 206.443 127.872 206.393 127.91C206.983 127.165 207.637 126.473 208.347 125.841C209.167 125.083 210.056 124.402 211.002 123.808C212.255 123.011 213.624 122.412 215.06 122.034C216.809 121.565 218.646 121.534 220.41 121.944C222.459 122.376 224.311 123.465 225.685 125.045C226.035 125.463 226.341 125.916 226.597 126.398C226.85 126.914 227.019 127.466 227.098 128.036C227.185 128.616 227.175 129.207 227.068 129.784C226.96 130.385 226.695 130.946 226.301 131.412C225.88 131.885 225.298 132.183 224.668 132.249C224.036 132.309 223.401 132.178 222.845 131.873C222.286 131.574 221.796 131.161 221.407 130.661C221.025 130.151 220.727 129.582 220.525 128.977C220.165 127.766 220.144 126.478 220.465 125.255C220.757 124.067 221.318 122.962 222.103 122.024C223.657 120.32 225.69 119.124 227.934 118.593C229.939 118.103 231.997 117.864 234.061 117.881C235.99 117.851 237.783 117.881 239.416 117.836C240.887 117.785 242.353 117.653 243.81 117.441C244.908 117.283 245.984 116.997 247.016 116.589C247.663 116.326 248.278 115.99 248.849 115.587C249.049 115.452 249.185 115.326 249.285 115.256C249.331 115.207 249.381 115.161 249.435 115.121Z" fill="#FAFAFA"/>
<path d="M266.001 135.971C265.931 135.99 265.859 136.002 265.786 136.006C265.646 136.006 265.44 136.041 265.17 136.051C264.413 136.076 263.655 136.057 262.9 135.996C261.944 135.925 260.811 135.78 259.559 135.605C258.307 135.43 256.934 135.244 255.481 135.169C254.123 135.095 252.761 135.198 251.429 135.475C250.339 135.696 249.294 136.094 248.333 136.652C247.462 137.184 246.689 137.862 246.048 138.656C246.075 138.589 246.113 138.526 246.159 138.47C246.264 138.293 246.385 138.126 246.519 137.969C247.005 137.377 247.585 136.869 248.237 136.467C249.205 135.876 250.265 135.452 251.373 135.214C252.727 134.919 254.113 134.808 255.496 134.884C256.964 134.959 258.342 135.159 259.594 135.344C260.846 135.53 261.969 135.695 262.915 135.785C263.862 135.875 264.639 135.915 265.17 135.92C265.448 135.92 265.725 135.937 266.001 135.971Z" fill="#FAFAFA"/>
<path d="M253.963 158.429C253.022 158.21 252.053 158.127 251.088 158.184C249.956 158.26 248.835 158.46 247.747 158.78C246.469 159.126 245.041 159.631 243.438 160.127C241.698 160.718 239.876 161.034 238.038 161.064C235.922 161.064 233.828 160.629 231.886 159.787C229.729 158.875 227.809 157.48 226.276 155.709C225.446 154.784 224.77 153.732 224.272 152.593C223.742 151.415 223.543 150.114 223.696 148.831C223.87 147.538 224.501 146.349 225.474 145.48C225.958 145.058 226.538 144.762 227.163 144.618C227.774 144.488 228.408 144.506 229.011 144.669C229.615 144.832 230.171 145.135 230.634 145.555C231.087 145.97 231.401 146.513 231.536 147.113C231.665 147.699 231.618 148.311 231.401 148.871C231.19 149.409 230.871 149.899 230.464 150.309C229.687 151.087 228.748 151.684 227.714 152.057C227.227 152.242 226.723 152.381 226.211 152.473C225.96 152.518 225.71 152.573 225.464 152.608L224.718 152.698C222.887 152.88 221.039 152.749 219.253 152.313C217.779 151.962 216.359 151.416 215.029 150.689C214.024 150.147 213.082 149.495 212.219 148.746L211.718 148.31L211.307 147.894C211.086 147.684 210.878 147.46 210.686 147.223L210.326 146.792C210.284 146.745 210.248 146.695 210.215 146.642C210.264 146.683 210.309 146.729 210.351 146.777L210.726 147.188C210.925 147.418 211.137 147.635 211.363 147.839L211.778 148.245L212.279 148.671C213.146 149.399 214.088 150.032 215.09 150.559C216.412 151.266 217.822 151.795 219.283 152.132C221.052 152.554 222.879 152.672 224.688 152.483L225.419 152.393C225.665 152.353 225.92 152.298 226.161 152.252C226.662 152.162 227.153 152.024 227.628 151.842C228.629 151.477 229.537 150.898 230.288 150.143C230.672 149.756 230.972 149.294 231.17 148.786C231.367 148.27 231.41 147.708 231.295 147.168C231.147 146.616 230.85 146.115 230.438 145.72C230.026 145.324 229.513 145.049 228.956 144.924C228.385 144.759 227.782 144.742 227.203 144.874C226.623 145.006 226.087 145.284 225.645 145.68C224.717 146.507 224.118 147.639 223.956 148.871C223.813 150.106 224.003 151.357 224.507 152.493C224.992 153.605 225.648 154.634 226.451 155.544C227.959 157.282 229.843 158.653 231.962 159.551C233.873 160.385 235.933 160.822 238.018 160.834C239.837 160.811 241.642 160.507 243.368 159.932C244.966 159.431 246.374 158.96 247.692 158.625C248.791 158.315 249.922 158.129 251.063 158.069C251.478 158.043 251.895 158.043 252.31 158.069C252.666 158.124 252.972 158.149 253.212 158.204L253.758 158.339C253.83 158.359 253.899 158.39 253.963 158.429Z" fill="#FAFAFA"/>
<path d="M209.944 153.084C209.899 153.084 209.668 152.583 209.182 151.742C207.911 149.606 206.056 147.877 203.837 146.757C202.985 146.326 202.424 146.136 202.439 146.091C202.58 146.103 202.718 146.135 202.85 146.186C203.215 146.295 203.571 146.428 203.917 146.587C205.065 147.11 206.12 147.816 207.043 148.676C207.967 149.535 208.744 150.54 209.342 151.651C209.532 151.984 209.699 152.329 209.843 152.683C209.894 152.812 209.928 152.947 209.944 153.084Z" fill="#FAFAFA"/>
<path d="M190.509 174.524C190.509 174.524 190.474 174.484 190.429 174.399C190.384 174.314 190.309 174.179 190.223 174.023C190.043 173.693 189.783 173.197 189.462 172.556C188.531 170.745 187.764 168.856 187.168 166.91C186.769 165.558 186.529 164.164 186.451 162.757C186.411 161.971 186.443 161.183 186.546 160.403C186.671 159.577 186.869 158.764 187.137 157.973C187.722 156.264 188.735 154.732 190.078 153.524C190.796 152.866 191.639 152.36 192.558 152.037C193.477 151.714 194.452 151.581 195.423 151.646C196.433 151.721 197.376 152.18 198.058 152.928C198.383 153.298 198.619 153.737 198.748 154.212C198.877 154.687 198.897 155.185 198.805 155.669C198.696 156.143 198.449 156.574 198.093 156.906C197.746 157.224 197.326 157.453 196.871 157.572C195.989 157.802 195.053 157.689 194.251 157.257C193.507 156.855 192.856 156.3 192.342 155.628C191.85 155.007 191.444 154.321 191.135 153.59C190.593 152.278 190.368 150.857 190.479 149.442C190.58 148.274 190.921 147.14 191.481 146.11C191.896 145.333 192.426 144.624 193.054 144.006C193.446 143.615 193.878 143.264 194.341 142.959C194.496 142.854 194.627 142.789 194.712 142.739L194.842 142.674C194.842 142.674 194.682 142.789 194.371 143.004C193.924 143.323 193.506 143.682 193.124 144.077C192.524 144.7 192.017 145.407 191.621 146.175C191.089 147.192 190.77 148.307 190.684 149.452C190.587 150.839 190.821 152.23 191.366 153.509C191.67 154.219 192.067 154.884 192.548 155.488C193.046 156.131 193.674 156.662 194.391 157.046C195.14 157.449 196.014 157.553 196.836 157.337C197.258 157.238 197.644 157.025 197.952 156.721C198.261 156.417 198.48 156.034 198.584 155.613C198.664 155.171 198.643 154.716 198.523 154.282C198.404 153.849 198.188 153.448 197.893 153.109C197.254 152.411 196.372 151.985 195.428 151.916C194.492 151.855 193.553 151.983 192.668 152.294C191.783 152.605 190.97 153.091 190.278 153.725C188.967 154.904 187.976 156.397 187.398 158.063C187.128 158.837 186.928 159.633 186.802 160.443C186.698 161.209 186.663 161.984 186.697 162.757C186.767 164.149 186.995 165.529 187.378 166.87C187.955 168.811 188.692 170.701 189.582 172.521L190.299 174.023C190.374 174.184 190.434 174.314 190.484 174.414C190.534 174.514 190.509 174.524 190.509 174.524Z" fill="#FAFAFA"/>
<path d="M184.32 130.301C184.32 130.301 184.346 130.371 184.366 130.506C184.401 130.708 184.426 130.912 184.441 131.117C184.507 131.866 184.507 132.618 184.441 133.367C184.238 135.858 183.386 138.253 181.969 140.313C180.552 142.372 178.62 144.024 176.365 145.104C175.691 145.433 174.988 145.703 174.266 145.91C174.016 145.991 173.81 146.026 173.675 146.061C173.54 146.096 173.465 146.101 173.465 146.091C173.716 145.983 173.974 145.891 174.236 145.815C174.939 145.572 175.624 145.279 176.285 144.939C178.48 143.83 180.36 142.187 181.754 140.162C183.148 138.136 184.01 135.792 184.26 133.347C184.339 132.608 184.368 131.865 184.346 131.122C184.319 130.849 184.311 130.575 184.32 130.301Z" fill="#FAFAFA"/>
<path d="M270.383 152.022C269.638 152.489 268.983 153.086 268.45 153.785C267.949 154.431 267.448 155.288 266.882 156.19C266.261 157.199 265.545 158.147 264.743 159.02C263.276 160.604 261.537 161.913 259.608 162.882C259.027 163.176 258.428 163.432 257.815 163.649C257.591 163.737 257.359 163.804 257.123 163.849C257.331 163.731 257.549 163.632 257.775 163.554C258.195 163.368 258.807 163.108 259.523 162.717C261.395 161.711 263.087 160.403 264.532 158.845C265.326 157.985 266.039 157.055 266.661 156.064C267.159 155.237 267.703 154.437 268.29 153.67C268.697 153.155 269.182 152.708 269.727 152.342C269.875 152.244 270.031 152.159 270.193 152.087C270.323 152.037 270.383 152.012 270.383 152.022Z" fill="#FAFAFA"/>
<path d="M243.314 113.975C243.241 114.006 243.163 114.027 243.084 114.035L242.417 114.155C241.836 114.25 240.995 114.376 239.958 114.516C237.874 114.796 234.988 115.127 231.787 115.362C230.289 115.499 228.783 115.553 227.279 115.523C226.037 115.493 224.807 115.282 223.627 114.897C222.83 114.638 222.078 114.258 221.398 113.769C221.212 113.639 221.035 113.496 220.867 113.344C220.756 113.233 220.701 113.178 220.706 113.168C220.711 113.158 220.967 113.369 221.453 113.669C222.145 114.114 222.895 114.461 223.682 114.701C224.852 115.057 226.066 115.246 227.289 115.262C228.794 115.278 230.298 115.218 231.797 115.082C234.988 114.847 237.874 114.551 239.958 114.315L242.428 114.035C242.721 113.994 243.018 113.974 243.314 113.975Z" fill="#263238"/>
<path d="M277.643 172.781C278.02 174.719 277.966 176.716 277.485 178.631C277.004 180.546 276.108 182.331 274.86 183.861C273.612 185.391 272.042 186.627 270.263 187.483C268.483 188.338 266.538 188.792 264.563 188.811L226.616 188.39L227.618 176.102L260.11 171.223" fill="#B78876"/>
<path d="M229.943 176.638C229.768 176.693 227.579 175.711 225.615 174.805C223.532 173.84 221.245 173.396 218.952 173.512L209.905 173.973C209.905 173.973 210.461 175.476 211.408 175.977C212.355 176.478 218.031 176.638 218.031 176.638L217.74 176.934C216.553 178.156 214.935 178.865 213.231 178.908H212.365C211.723 178.857 211.089 178.732 210.476 178.537L208.247 177.635C207.571 177.335 206.859 177.38 206.564 178.061C206.268 178.742 206.494 179.524 208.337 180.45C209.364 180.951 213.181 182.289 213.181 182.289C213.207 182.832 213.283 183.372 213.407 183.902C213.572 184.458 215.07 185.014 215.07 185.014C215.459 185.838 215.904 186.635 216.402 187.399C216.578 187.599 217.935 188.025 219.383 188.431C221.717 189.084 224.188 189.065 226.512 188.376L229.958 187.344V176.824" fill="#B78876"/>
<path d="M217.569 183.507C215.975 183.467 214.413 183.055 213.005 182.305C213.005 182.245 214.007 182.626 215.275 182.951C216.542 183.277 217.574 183.432 217.569 183.507Z" fill="#AA6550"/>
<path d="M217.249 185.615C216.825 185.703 216.384 185.67 215.977 185.52C215.552 185.442 215.157 185.248 214.835 184.959C215.244 185.041 215.647 185.156 216.037 185.305C216.449 185.377 216.854 185.481 217.249 185.615Z" fill="#AA6550"/>
<path d="M218.902 175.822C218.704 176.101 218.47 176.352 218.206 176.569C217.606 177.141 216.944 177.646 216.232 178.072C215.515 178.49 214.735 178.791 213.923 178.963C213.596 179.051 213.259 179.088 212.921 179.073C214.041 178.816 215.122 178.414 216.137 177.876C216.833 177.457 217.495 176.983 218.116 176.458C218.359 176.224 218.622 176.011 218.902 175.822Z" fill="#AA6550"/>
<path d="M230.865 174.991L229.943 188.887H265.686C268.113 188.889 270.494 188.229 272.574 186.978C274.928 185.564 276.789 183.459 277.904 180.949C279.019 178.439 279.334 175.647 278.806 172.952C278.292 170.313 277.52 167.731 276.501 165.242L258.527 168.203L259.103 170.437L230.865 174.991Z" fill="#CB7524"/>
<path d="M267.384 169.27C267.265 169.304 267.145 169.331 267.023 169.35L265.976 169.54L262.114 170.182L249.41 172.185L236.691 174.134L232.833 174.695L231.781 174.835C231.658 174.853 231.535 174.863 231.411 174.866C231.529 174.824 231.652 174.796 231.776 174.78L232.818 174.595L236.666 173.949L249.37 171.945L262.114 169.981L265.971 169.42L267.023 169.28C267.143 169.264 267.264 169.26 267.384 169.27Z" fill="#263238"/>
<path d="M249.089 188.897C249.024 188.897 249.305 187.895 249.34 186.257C249.348 185.812 249.329 185.367 249.285 184.924C249.242 184.419 249.168 183.917 249.064 183.421C248.816 182.278 248.426 181.171 247.902 180.125C247.366 179.084 246.71 178.109 245.948 177.22L245.447 176.633C245.277 176.443 245.092 176.278 244.921 176.107C244.586 175.762 244.23 175.486 243.92 175.221C242.642 174.219 241.735 173.718 241.765 173.673C241.987 173.762 242.2 173.871 242.402 173.998C242.651 174.129 242.892 174.274 243.123 174.434C243.389 174.625 243.719 174.81 244.035 175.081C244.396 175.351 244.74 175.642 245.067 175.952C245.242 176.123 245.437 176.283 245.613 176.453L246.159 177.044C246.943 177.94 247.616 178.927 248.163 179.985C248.693 181.052 249.084 182.184 249.325 183.351C249.427 183.862 249.494 184.379 249.525 184.899C249.557 185.349 249.557 185.801 249.525 186.252C249.516 186.626 249.482 186.999 249.425 187.369C249.398 187.648 249.349 187.924 249.28 188.195C249.237 188.434 249.173 188.669 249.089 188.897Z" fill="#FAFAFA"/>
<path d="M270.851 187.85C270.293 187.847 269.737 187.781 269.193 187.655C268.552 187.508 267.93 187.287 267.339 186.998C266.556 186.609 265.849 186.083 265.25 185.445C264.524 184.664 263.997 183.719 263.712 182.69C263.554 182.119 263.465 181.53 263.447 180.937C263.411 180.31 263.461 179.681 263.597 179.068C263.731 178.416 263.982 177.793 264.339 177.23C264.71 176.633 265.227 176.14 265.842 175.797C266.476 175.427 267.207 175.253 267.941 175.296C268.318 175.322 268.686 175.425 269.022 175.597C269.359 175.769 269.657 176.007 269.899 176.298C270.15 176.585 270.338 176.92 270.451 177.283C270.565 177.646 270.602 178.029 270.56 178.407C270.499 178.774 270.356 179.123 270.143 179.428C269.93 179.733 269.652 179.987 269.328 180.17C268.116 180.805 266.719 180.997 265.381 180.711C263.48 180.415 261.744 179.464 260.471 178.022C259.198 176.58 258.47 174.739 258.412 172.816C258.38 172.258 258.428 171.698 258.553 171.153C258.506 171.705 258.493 172.258 258.513 172.811C258.606 174.319 259.099 175.775 259.94 177.029C260.567 177.95 261.376 178.733 262.317 179.33C263.258 179.927 264.31 180.326 265.411 180.501C266.69 180.776 268.025 180.599 269.188 180C269.479 179.836 269.729 179.609 269.921 179.336C270.114 179.063 270.243 178.751 270.3 178.422C270.33 178.079 270.291 177.734 270.187 177.406C270.083 177.078 269.915 176.774 269.693 176.511C269.471 176.248 269.199 176.031 268.893 175.874C268.587 175.716 268.253 175.62 267.91 175.592C267.231 175.545 266.553 175.701 265.962 176.038C265.405 176.37 264.927 176.819 264.559 177.353C264.192 177.887 263.944 178.495 263.833 179.133C263.697 179.728 263.645 180.338 263.677 180.947C263.691 181.521 263.774 182.091 263.923 182.645C264.187 183.646 264.689 184.569 265.386 185.335C265.958 185.964 266.637 186.488 267.389 186.883C267.967 187.178 268.575 187.408 269.203 187.57C270.255 187.805 270.856 187.815 270.851 187.85Z" fill="#FAFAFA"/>
<path d="M19.8233 88.589H20.3233V88.089V56.1884C20.3233 51.089 22.349 46.1984 25.9549 42.5925C29.5607 38.9867 34.4513 36.9609 39.5508 36.9609H129.066C134.165 36.9609 139.056 38.9867 142.662 42.5925C146.268 46.1984 148.293 51.089 148.293 56.1884V129.087C148.293 134.186 146.268 139.077 142.662 142.683C139.056 146.289 134.165 148.314 129.066 148.314H39.5508C34.4513 148.314 29.5607 146.289 25.9549 142.683C22.349 139.077 20.3233 134.186 20.3233 129.087V107.401V107.194L20.1768 107.047L1.7187 88.589H19.8233Z" fill="#FBFBFB" stroke="#FDDFC3"/>
<path d="M92.4954 39.8324C91.9293 41.3002 92.9011 42.8982 93.9982 44.0304C95.0953 45.1625 96.4078 46.2345 96.7535 47.7674C97.039 49.0549 96.5631 50.3924 96.6783 51.7049C96.7935 53.0174 97.5199 54.2548 97.9307 55.5372C98.6771 57.8616 98.3766 60.4015 97.7103 62.7509C97.2298 64.7033 96.3116 66.5208 95.0252 68.066C94.3772 68.8313 93.5742 69.4504 92.6692 69.8822C91.7641 70.3139 90.7777 70.5487 89.7752 70.5708C89.4917 70.5886 89.2076 70.548 88.9405 70.4514C88.6734 70.3549 88.4289 70.2046 88.2223 70.0097C87.9413 69.6044 87.7862 69.1252 87.7764 68.6321C86.6292 58.5454 86.6292 48.3611 87.7764 38.2744" fill="#263238"/>
<path d="M91.439 72.3392C95.7973 72.1488 99.8249 76.3218 99.4793 80.67C103.893 81.7471 106.994 86.6013 106.147 91.0598C105.861 92.5326 105.205 93.9352 105.115 95.4281C105.015 97.0612 105.616 98.6492 105.911 100.252C106.479 103.174 106.176 106.198 105.04 108.949C104.354 110.607 103.071 112.32 101.278 112.37C100.67 112.345 100.078 112.17 99.5539 111.862C99.0297 111.553 98.5895 111.121 98.272 110.602C97.6476 109.552 97.2357 108.389 97.0596 107.18C96.2832 103.263 96.0577 99.2403 94.9757 95.398C93.8936 91.5557 91.7896 87.7685 88.318 85.8198C86.3994 84.7377 84.095 84.2268 82.5671 82.6388C81.7985 81.772 81.2861 80.7087 81.087 79.5675C80.888 78.4263 81.0102 77.2522 81.44 76.1765C81.8903 75.1104 82.5602 74.1512 83.4061 73.3614C84.252 72.5716 85.2549 71.969 86.3493 71.5928" fill="#263238"/>
<path d="M61.2723 43.4248C61.2222 41.5612 62.9405 40.1235 64.6738 39.4172C66.407 38.7108 68.3357 38.4754 69.8786 37.4134C71.2512 36.4916 72.168 35.0539 73.3252 33.9067C74.7541 32.4576 76.543 31.4149 78.5081 30.8857C80.4731 30.3565 82.5437 30.3598 84.5071 30.8953C86.4705 31.4307 88.256 32.4791 89.6803 33.9327C91.1046 35.3863 92.1164 37.1928 92.6118 39.1667C93.2781 41.8167 92.8222 44.9527 90.7333 46.716C88.3087 48.7599 84.7218 48.304 81.6009 47.6678C78.48 47.0316 74.9733 46.4054 72.3784 48.2339C70.8154 49.331 69.9137 51.1244 68.9569 52.7826C68.0001 54.4407 66.8028 56.1289 64.9944 56.7551C63.1859 57.3813 60.7263 56.2992 60.6561 54.3906" fill="#263238"/>
<path d="M68.6151 43.8052C67.8395 43.8891 67.1235 44.2609 66.6087 44.8471C66.0939 45.4333 65.8178 46.1913 65.8349 46.9713L67.6934 89.0512C67.7735 94.0206 75.0373 96.8109 80.3574 96.6857C85.7326 96.5605 85.903 93.9255 85.9731 89.1965C86.0833 81.3015 86.0733 78.3358 86.0783 78.3809C86.0833 78.426 92.8662 77.2388 94.2538 68.3619C94.9401 63.9585 94.7047 56.7348 94.319 50.8286C93.9733 45.5135 90.4366 39.0011 85.1415 39.5722L68.6151 43.8052Z" fill="#FFBE9D"/>
<path d="M92.7921 56.4092C92.795 56.7049 92.6825 56.99 92.4786 57.2042C92.2748 57.4184 91.9955 57.5447 91.7001 57.5564C91.5571 57.5687 91.4131 57.5525 91.2764 57.5086C91.1398 57.4647 91.0132 57.3941 90.9042 57.3009C90.7951 57.2076 90.7056 57.0936 90.641 56.9655C90.5764 56.8374 90.5379 56.6976 90.5278 56.5545C90.5237 56.2585 90.6357 55.9726 90.8399 55.7581C91.044 55.5437 91.324 55.4178 91.6199 55.4073C91.7629 55.395 91.9069 55.4112 92.0435 55.4551C92.1801 55.499 92.3067 55.5696 92.4158 55.6628C92.5249 55.7561 92.6143 55.8701 92.6789 55.9982C92.7435 56.1264 92.782 56.2661 92.7921 56.4092Z" fill="#263238"/>
<path d="M92.7618 54.6058C92.6215 54.7561 91.7599 54.1049 90.5376 54.1049C89.3153 54.1049 88.4186 54.7261 88.2833 54.5758C88.2182 54.5107 88.3635 54.2401 88.7542 53.9546C89.2816 53.5874 89.91 53.3931 90.5526 53.3986C91.1887 53.3948 91.8097 53.593 92.326 53.9646C92.7017 54.2602 92.8319 54.5407 92.7618 54.6058Z" fill="#263238"/>
<path d="M81.0443 56.4092C81.0472 56.7049 80.9347 56.99 80.7308 57.2042C80.527 57.4184 80.2477 57.5447 79.9522 57.5564C79.8093 57.5687 79.6653 57.5525 79.5286 57.5086C79.392 57.4647 79.2654 57.3941 79.1564 57.3009C79.0473 57.2076 78.9578 57.0936 78.8932 56.9655C78.8286 56.8374 78.7901 56.6976 78.78 56.5545C78.7759 56.2585 78.8879 55.9726 79.0921 55.7581C79.2962 55.5437 79.5762 55.4178 79.8721 55.4073C80.0151 55.395 80.1591 55.4112 80.2957 55.4551C80.4323 55.499 80.5589 55.5696 80.668 55.6628C80.7771 55.7561 80.8665 55.8701 80.9311 55.9982C80.9957 56.1264 81.0342 56.2661 81.0443 56.4092Z" fill="#263238"/>
<path d="M80.7693 54.8608C80.6291 55.0111 79.7674 54.3598 78.5451 54.3598C77.3228 54.3598 76.4261 54.981 76.2958 54.8307C76.2307 54.7656 76.371 54.4951 76.7617 54.2095C77.2889 53.8414 77.9171 53.6455 78.5601 53.6485C79.1968 53.6462 79.8178 53.8462 80.3335 54.2196C80.6842 54.5251 80.8144 54.7957 80.7693 54.8608Z" fill="#263238"/>
<path d="M85.2029 63.9184C85.2029 63.8483 85.9543 63.7181 87.2067 63.5577C87.5173 63.5227 87.8129 63.4576 87.868 63.2472C87.891 62.9242 87.8177 62.6017 87.6576 62.3204L86.7258 59.9459C85.4384 56.5645 84.5016 53.7842 84.6418 53.7341C84.7821 53.684 85.9343 56.3841 87.2217 59.7455L88.1134 62.135C88.3077 62.5113 88.366 62.943 88.2788 63.3574C88.2348 63.4666 88.167 63.5647 88.0803 63.6444C87.9937 63.7241 87.8903 63.7835 87.7778 63.8182C87.6146 63.8632 87.4462 63.8868 87.2768 63.8884C85.9744 63.9785 85.2079 63.9886 85.2029 63.9184Z" fill="#263238"/>
<path d="M86.079 78.3851C81.907 78.4571 77.797 77.3697 74.2064 75.2441C74.2064 75.2441 77.0969 81.3257 85.9638 80.4741L86.079 78.3851Z" fill="#EB996E"/>
<path d="M84.6909 66.864C84.4551 66.5676 84.1467 66.3372 83.7956 66.195C83.4446 66.0528 83.0627 66.0037 82.6871 66.0525C82.4174 66.0767 82.1554 66.1553 81.9169 66.2836C81.6784 66.4119 81.4683 66.5872 81.2995 66.7989C81.1366 67.0032 81.0405 67.2527 81.0244 67.5135C81.0083 67.7744 81.0728 68.0338 81.2093 68.2567C81.4054 68.4767 81.6632 68.6326 81.9491 68.704C82.235 68.7755 82.5358 68.7593 82.8124 68.6574C83.3891 68.4524 83.9188 68.1339 84.3703 67.7206C84.509 67.6238 84.628 67.5013 84.721 67.3599C84.7666 67.2927 84.791 67.2133 84.791 67.132C84.791 67.0507 84.7666 66.9713 84.721 66.9041" fill="#EB996E"/>
<path d="M81.6059 64.7803C81.8063 64.7803 81.8113 66.0978 82.9484 67.0346C84.0856 67.9713 85.4983 67.8261 85.5083 68.0365C85.5083 68.1216 85.1927 68.297 84.5966 68.312C83.8191 68.3261 83.0615 68.0653 82.4575 67.5756C81.8794 67.1027 81.5076 66.4238 81.4205 65.682C81.3654 65.0959 81.5157 64.7803 81.6059 64.7803Z" fill="#263238"/>
<path d="M81.27 52.7174C81.1498 53.053 79.9274 52.8977 78.4947 53.0731C77.062 53.2484 75.8998 53.6442 75.7094 53.3436C75.6243 53.2033 75.8246 52.8877 76.2905 52.5671C76.9125 52.1673 77.6174 51.9144 78.3517 51.8276C79.0861 51.7408 79.8305 51.8224 80.5286 52.0662C81.0746 52.3016 81.3401 52.5621 81.27 52.7174Z" fill="#263238"/>
<path d="M92.2911 51.0692C92.0757 51.3447 91.2341 51.0692 90.2172 51.0692C89.2003 51.0692 88.3486 51.2595 88.1533 50.969C88.0631 50.8287 88.1984 50.5532 88.5741 50.2877C89.0768 49.9732 89.6614 49.8144 90.2541 49.8313C90.8469 49.8482 91.4214 50.0402 91.9054 50.3829C92.2911 50.6484 92.3963 50.9339 92.2911 51.0692Z" fill="#263238"/>
<path d="M62.4292 72.9505C63.6506 73.1974 64.9133 73.1504 66.113 72.8133C67.3127 72.4762 68.4151 71.8586 69.3292 71.0116C70.2432 70.1646 70.9428 69.1124 71.3701 67.9417C71.7975 66.7711 71.9403 65.5157 71.7869 64.279C71.5114 62.0999 70.3392 59.8907 71.0956 57.8267C72.0975 55.1066 75.9098 54.27 76.9217 51.5498C77.5078 49.9718 76.9818 48.1233 77.6481 46.5754C78.2743 45.1226 79.8072 44.286 81.3 43.745C82.7928 43.204 84.3859 42.8333 85.6383 41.8614C86.8906 40.8896 87.6671 39.0561 86.8606 37.6885C80.2444 38.4823 73.7464 40.0614 67.5038 42.3924C66.0561 42.9334 64.5382 43.5847 63.6815 44.8671C62.7798 46.2297 62.8249 47.983 62.9001 49.6161C63.2708 57.5712 62.0585 65.0204 62.4292 72.9755" fill="#263238"/>
<path d="M60.3197 70.4567C60.2692 70.4491 60.2203 70.4339 60.1744 70.4116C60.0314 70.3618 59.8951 70.2945 59.7686 70.2112C59.2806 69.8955 58.8971 69.4423 58.6665 68.9087C58.2874 68.0654 58.1857 67.1235 58.376 66.2186C58.6776 65.0431 59.2258 63.9451 59.984 62.9975C60.7605 61.9155 61.7474 60.8184 62.4187 59.4207C62.7766 58.7105 62.9765 57.9312 63.0048 57.1364C62.9758 56.2927 62.8065 55.4597 62.5038 54.6717C62.1662 53.8197 61.9879 52.913 61.9778 51.9966C62.0263 51.0161 62.3142 50.0624 62.8163 49.2188C63.3185 48.3753 64.0195 47.6675 64.8583 47.1574C65.7579 46.6666 66.7556 46.3825 67.7789 46.3258C68.769 46.2773 69.7497 46.1091 70.6994 45.8249C71.5911 45.4873 72.3239 44.8277 72.7533 43.9764C73.1625 43.1388 73.488 42.2629 73.7252 41.3614C73.9786 40.4965 74.3141 39.6578 74.7271 38.8567C75.4803 37.3378 76.6273 36.049 78.0484 35.1246C79.3032 34.3357 80.7712 33.9542 82.2514 34.0325C83.4772 34.0959 84.6451 34.5747 85.5626 35.3901C86.2467 36.005 86.7564 36.7895 87.0404 37.6644C87.225 38.212 87.2949 38.7918 87.2458 39.3676C87.2356 39.5679 87.202 39.7663 87.1456 39.9587C87.1456 39.9587 87.1807 39.7534 87.1957 39.3626C87.2198 38.7957 87.1347 38.2293 86.9453 37.6944C86.6004 36.71 85.9674 35.852 85.1285 35.232C84.2896 34.612 83.2837 34.2587 82.2413 34.2178C80.8022 34.1544 79.3784 34.5357 78.1636 35.3099C76.7807 36.2187 75.6667 37.4815 74.9375 38.9669C74.5328 39.7682 74.2073 40.6071 73.9656 41.4716C73.721 42.3894 73.3853 43.2805 72.9637 44.1317C72.7314 44.5721 72.4285 44.9715 72.067 45.3139C71.6932 45.66 71.2537 45.9275 70.7745 46.1004C69.7985 46.4012 68.7889 46.5796 67.7688 46.6314C66.7827 46.6834 65.8207 46.9555 64.9535 47.4279C64.1517 47.9144 63.481 48.5896 62.9999 49.3946C62.5188 50.1996 62.2418 51.1101 62.1932 52.0467C62.2022 52.9348 62.3719 53.814 62.6942 54.6416C63.013 55.4538 63.1909 56.3145 63.2202 57.1865C63.1864 58.0135 62.9745 58.8234 62.599 59.561C61.8977 60.9937 60.9008 62.0657 60.1193 63.1528C59.365 64.0736 58.8152 65.1443 58.5062 66.2938C58.3066 67.1684 58.389 68.0838 58.7417 68.9087C58.9584 69.4343 59.3197 69.8877 59.7837 70.2162C60.1193 70.3866 60.3247 70.4366 60.3197 70.4567Z" fill="#455A64"/>
<path d="M86.0637 31.8271C86.1853 31.8361 86.3034 31.8721 86.4094 31.9323C86.71 32.0599 86.9916 32.2285 87.246 32.4333C88.1187 33.1105 88.6969 34.0981 88.8602 35.1906C89.0235 36.2832 88.7593 37.3967 88.1226 38.2994C87.9376 38.5685 87.7187 38.8126 87.4714 39.0258C87.2911 39.1761 87.1808 39.2412 87.1708 39.2262C87.4533 38.9061 87.7192 38.5717 87.9673 38.2243C88.5319 37.344 88.7582 36.2889 88.6044 35.2545C88.4506 34.2201 87.927 33.2765 87.1307 32.5986C86.7902 32.3211 86.434 32.0635 86.0637 31.8271Z" fill="#455A64"/>
<path d="M105.691 92.628C105.797 92.32 105.882 92.0054 105.947 91.6862C106.064 90.8117 105.912 89.9222 105.511 89.1364C104.893 87.9828 103.91 87.0667 102.716 86.5314C102.017 86.2009 101.287 85.9407 100.536 85.7549C99.755 85.5546 98.9284 85.3893 98.1018 85.1187C97.2701 84.8921 96.5031 84.4734 95.8626 83.8964C95.2889 83.322 94.9178 82.5764 94.8056 81.7724C94.6703 81.026 94.6252 80.3196 94.4599 79.6884C94.3117 79.1045 94.0363 78.5605 93.6534 78.0954C93.0931 77.4141 92.3489 76.9081 91.5093 76.6376C90.9132 76.4573 90.5575 76.4573 90.5575 76.4272C90.6424 76.4188 90.728 76.4188 90.813 76.4272C91.058 76.4442 91.3011 76.4827 91.5394 76.5424C92.418 76.7847 93.2034 77.2857 93.7936 77.9802C94.2062 78.4604 94.5058 79.027 94.6703 79.6383C94.8507 80.2946 94.9058 81.0109 95.046 81.7323C95.149 82.4927 95.5014 83.1975 96.0479 83.7361C96.6622 84.2815 97.3943 84.6776 98.187 84.8933C98.9935 85.1538 99.8201 85.3241 100.607 85.5295C101.367 85.7155 102.106 85.9808 102.811 86.321C104.045 86.886 105.051 87.8517 105.666 89.0612C106.067 89.883 106.197 90.8109 106.037 91.7113C105.989 91.9514 105.914 92.1851 105.811 92.4076C105.779 92.485 105.739 92.5589 105.691 92.628Z" fill="#455A64"/>
<path d="M67.1579 76.9387C62.6493 75.7364 58.792 71.3431 57.219 66.9698C55.646 62.5965 55.646 57.8224 56.0518 53.1936C56.3423 49.8422 56.9334 46.2955 59.1577 43.7707C62.5141 39.9635 66.171 38.0198 71.2206 38.1801" fill="#263238"/>
<path d="M93.3584 86.7065L89.1754 85.6545C89.6314 85.341 89.9639 84.8784 90.1156 84.3463C90.2674 83.8142 90.229 83.2458 90.007 82.7389C89.7422 82.0893 89.3041 81.5247 88.7405 81.1069C88.177 80.6891 87.5095 80.434 86.8109 80.3694L67.7447 78.2153C67.4114 78.1709 67.0728 78.2395 66.783 78.4103C66.4933 78.581 66.2693 78.844 66.1467 79.1571C65.3017 81.3079 65.2733 83.0779 66.0615 84.4672H65.9713L62.2943 85.1986L56.0625 140.173L96.8801 138.264L93.3584 86.7065Z" fill="#F5F5F5"/>
<path d="M87.3568 85.8645C87.1064 85.9377 86.8499 85.988 86.5904 86.0148C86.0894 86.095 85.3731 86.1801 84.4814 86.2703C79.8148 86.7038 75.1102 86.4694 70.5098 85.574C69.6281 85.3987 68.9218 85.2384 68.4359 85.1081C68.1806 85.0586 67.9307 84.9848 67.6895 84.8877C67.9481 84.9067 68.2046 84.9486 68.4559 85.0129C68.9569 85.1081 69.6632 85.2434 70.5449 85.3937C75.1405 86.1844 79.8149 86.4166 84.4663 86.085C85.358 86.0249 86.0794 85.9597 86.5803 85.9096C86.8376 85.8743 87.0972 85.8592 87.3568 85.8645Z" fill="#263238"/>
<path d="M68.9065 94.6018C69.3081 93.7679 69.786 92.973 70.3342 92.2273C70.8127 91.4343 71.3645 90.688 71.9823 89.998C71.5801 90.8326 71.1004 91.6276 70.5496 92.3726C70.0737 93.166 69.5236 93.9124 68.9065 94.6018Z" fill="#E0E0E0"/>
<path d="M82.0613 95.5335C80.788 94.2261 79.6423 92.8003 78.6398 91.2754C79.3072 91.9 79.9143 92.586 80.4532 93.3243C81.0594 94.007 81.5979 94.7468 82.0613 95.5335Z" fill="#E0E0E0"/>
<path d="M75.95 102.521C75.662 101.63 75.4557 100.715 75.3338 99.7861C75.1253 98.8731 75.0062 97.942 74.9781 97.0059C75.2669 97.8968 75.4731 98.8124 75.5943 99.7411C75.7971 100.655 75.9162 101.586 75.95 102.521Z" fill="#E0E0E0"/>
<path d="M85.9947 102.952C85.2875 103.832 84.5137 104.656 83.6803 105.417C82.9063 106.241 82.0688 107.003 81.1755 107.696C81.8826 106.816 82.6564 105.992 83.4899 105.231C84.2672 104.411 85.1044 103.649 85.9947 102.952Z" fill="#E0E0E0"/>
<path d="M72.5232 112.321C70.6772 111.218 69.1737 109.624 68.1799 107.717C68.2501 107.672 69.0165 108.874 70.2238 110.142C71.4311 111.409 72.5733 112.256 72.5232 112.321Z" fill="#E0E0E0"/>
<path d="M76.851 119.555C76.851 119.63 75.7088 119.996 74.3863 120.702C73.0638 121.408 72.097 122.15 72.0469 122.085C72.6774 121.409 73.4305 120.86 74.2661 120.466C75.0607 119.998 75.9385 119.689 76.851 119.555Z" fill="#E0E0E0"/>
<path d="M83.8893 120.02C83.5907 119.767 83.3233 119.48 83.0928 119.164C82.6319 118.613 82.0157 117.826 81.3745 116.929C80.7333 116.033 80.1923 115.196 79.8166 114.575C79.593 114.254 79.408 113.907 79.2655 113.543C79.532 113.829 79.7686 114.141 79.9718 114.475L81.5899 116.779L83.238 119.053C83.4887 119.352 83.707 119.676 83.8893 120.02Z" fill="#E0E0E0"/>
<path d="M84.5957 126.191C83.622 126.533 82.6143 126.768 81.59 126.893C80.5769 127.104 79.5441 127.206 78.5092 127.198C79.5098 126.947 80.5254 126.759 81.5499 126.637C82.5555 126.428 83.5725 126.28 84.5957 126.191Z" fill="#E0E0E0"/>
<path d="M73.1992 85.088C73.1641 85.088 73.4046 84.7874 73.61 84.2564C73.8643 83.5616 73.9401 82.814 73.8304 82.0823C73.706 81.3448 73.4889 80.6261 73.1842 79.9432C73.0365 79.6636 72.9222 79.3677 72.8435 79.0615C73.0527 79.3017 73.2219 79.5741 73.3445 79.8681C73.7089 80.5469 73.9577 81.2816 74.0809 82.0422C74.202 82.8188 74.0959 83.6139 73.7753 84.3315C73.6633 84.6357 73.4626 84.8992 73.1992 85.088Z" fill="#E0E0E0"/>
<path d="M80.8227 80.9707C81.1799 81.4625 81.4352 82.0207 81.5737 82.6126C81.7122 83.2044 81.7311 83.818 81.6292 84.4172C81.5541 84.4172 81.5441 83.6207 81.3187 82.6739C81.0932 81.7271 80.7676 81.0108 80.8227 80.9707Z" fill="#E0E0E0"/>
<path d="M115.214 120.14L134.2 86.7916L136.49 81.0056C136.49 81.0056 142.411 68.2814 142.822 66.9789C143.298 65.4761 144.134 65.3558 144.675 65.5662C145.517 65.9019 145.787 67.1543 145.417 68.4517C145.286 68.8976 142.987 75.8909 142.987 75.8909C143.605 75.3579 144.262 74.8706 144.951 74.4331C146.409 73.4312 149.079 73.4813 151.553 74.363C154.028 75.2446 154.639 75.7105 154.344 76.6824C154.278 76.8648 154.173 77.0302 154.035 77.1663C153.897 77.3024 153.73 77.4058 153.547 77.4689C152.964 77.7122 152.311 77.7265 151.719 77.5089C147.741 76.1564 145.978 77.9498 145.978 77.9498L145.682 78.7062C145.682 78.7062 148.688 77.7494 150.371 79.102C150.622 79.3005 150.833 79.5454 150.992 79.8233C151.537 80.0013 152.026 80.3183 152.41 80.7432C152.795 81.168 153.062 81.6859 153.185 82.2456C153.308 82.8053 153.282 83.3874 153.111 83.9343C152.94 84.4812 152.629 84.974 152.21 85.3638C152.027 85.5719 151.786 85.7198 151.517 85.7877C151.249 85.8557 150.966 85.8407 150.707 85.7446C150.464 85.5792 150.269 85.3529 150.141 85.0883C150.059 84.9559 149.967 84.8302 149.865 84.7126L148.733 86.7164C148.733 86.7164 145.943 91.0747 144.941 93.1136L131.866 127.945C131.436 129.091 130.782 130.141 129.942 131.032C129.102 131.923 128.093 132.638 126.974 133.134C125.854 133.631 124.647 133.9 123.423 133.925C122.199 133.95 120.982 133.73 119.843 133.28C118.614 132.795 117.504 132.051 116.588 131.1C115.671 130.149 114.97 129.012 114.531 127.766C114.092 126.52 113.926 125.194 114.044 123.879C114.162 122.563 114.561 121.288 115.214 120.14Z" fill="#FFBE9D"/>
<path d="M135.507 86.6769C136.179 87.1177 137.105 86.8171 137.707 86.2961C138.308 85.7752 138.709 85.0588 139.29 84.4927C140.978 82.8045 143.798 82.6442 145.416 80.8758C145.642 80.6304 145.842 80.2547 145.647 79.9842C145.451 79.7136 145.091 79.7637 144.79 79.8238L137.02 81.3618" fill="#FFBE9D"/>
<path d="M137.022 81.3614C137.283 81.2428 137.56 81.1587 137.843 81.111C138.379 80.9757 139.161 80.8004 140.122 80.61L143.509 79.8936L144.511 79.6883C144.897 79.547 145.322 79.5614 145.698 79.7283C145.805 79.8078 145.886 79.9175 145.931 80.0433C145.976 80.1691 145.982 80.3054 145.949 80.4347C145.897 80.6469 145.794 80.843 145.648 81.0058C145.386 81.2955 145.092 81.5543 144.771 81.7772C143.479 82.6739 142.061 83.0396 140.929 83.6358C140.389 83.891 139.892 84.229 139.456 84.6377C139.055 85.0234 138.74 85.4642 138.409 85.8399C138.171 86.1714 137.864 86.4468 137.508 86.6467C137.152 86.8466 136.757 86.9662 136.35 86.9971C135.754 86.9971 135.509 86.7016 135.529 86.6966C135.79 86.786 136.064 86.8284 136.34 86.8218C136.71 86.7606 137.063 86.6236 137.376 86.4192C137.69 86.2149 137.958 85.9477 138.164 85.6346C138.485 85.1967 138.827 84.7754 139.191 84.3722C139.645 83.9221 140.167 83.5467 140.739 83.26C141.906 82.6288 143.319 82.2581 144.511 81.4065C144.798 81.2025 145.063 80.9691 145.302 80.7102C145.523 80.4647 145.598 80.1692 145.443 80.084C145.287 79.9988 144.942 80.0389 144.596 80.1091L143.594 80.2944L140.188 80.9206C139.216 81.0909 138.429 81.2212 137.883 81.3013C137.601 81.3664 137.31 81.3867 137.022 81.3614Z" fill="#EB996E"/>
<path d="M145.577 78.7168C145.776 78.2518 146.081 77.84 146.469 77.5145C146.902 77.1893 147.43 77.0136 147.972 77.0136C148.653 77.0176 149.329 77.1292 149.975 77.3442C150.636 77.567 151.317 77.7214 152.009 77.8051C152.59 77.8718 153.178 77.7818 153.712 77.5446C153.896 77.4598 154.058 77.3332 154.184 77.1749C154.31 77.0166 154.397 76.8309 154.439 76.6328C154.477 76.4934 154.477 76.3464 154.439 76.207C154.409 76.207 154.409 76.3573 154.334 76.6078C154.279 76.7766 154.187 76.9314 154.066 77.0612C153.945 77.191 153.797 77.2927 153.632 77.3592C153.122 77.5487 152.574 77.6107 152.034 77.5396C151.362 77.4339 150.702 77.2662 150.061 77.0386C149.392 76.8184 148.691 76.7101 147.987 76.718C147.395 76.7318 146.826 76.9435 146.369 77.3191C146.066 77.5714 145.833 77.8975 145.692 78.2659C145.567 78.5615 145.557 78.7118 145.577 78.7168Z" fill="#EB996E"/>
<path d="M145.552 67.9512C145.356 68.3993 145.198 68.8636 145.082 69.3388C144.786 70.3006 144.435 71.4428 144.045 72.7052C143.654 73.9676 143.268 75.0997 142.958 76.0566C142.776 76.5104 142.637 76.9799 142.542 77.4592C142.791 77.0373 142.996 76.5907 143.153 76.1267C143.484 75.2851 143.904 74.1229 144.325 72.7954C144.746 71.4679 145.072 70.2906 145.282 69.3939C145.423 68.9238 145.513 68.4403 145.552 67.9512Z" fill="#EB996E"/>
<path d="M146.649 80.8108C146.802 80.8328 146.957 80.8328 147.11 80.8108C147.302 80.7779 147.499 80.7869 147.687 80.837C147.876 80.8872 148.051 80.9773 148.202 81.1013C148.289 81.1933 148.351 81.3061 148.381 81.429C148.412 81.5519 148.41 81.6805 148.377 81.8027C148.296 82.1104 148.177 82.4066 148.021 82.6843C147.821 83.0328 147.755 83.4427 147.836 83.8365C147.904 84.0452 148.021 84.2349 148.175 84.3906C148.33 84.5463 148.519 84.6637 148.728 84.7332C148.933 84.7984 149.15 84.8209 149.364 84.7994C149.579 84.7778 149.787 84.7127 149.975 84.608C150.326 84.4288 150.614 84.1476 150.802 83.8015C151.073 83.2306 151.258 82.6229 151.353 81.998C151.426 81.5787 151.426 81.1499 151.353 80.7306C151.337 80.5731 151.276 80.4235 151.177 80.2998C151.152 80.2998 151.217 80.4601 151.242 80.7457C151.264 81.1543 151.228 81.564 151.137 81.963C151.018 82.5552 150.823 83.1294 150.556 83.6712C150.393 83.9762 150.134 84.2188 149.818 84.361C149.503 84.5033 149.149 84.5373 148.813 84.4577C148.648 84.4044 148.497 84.3132 148.374 84.1914C148.25 84.0696 148.157 83.9207 148.101 83.7564C148.036 83.4291 148.091 83.0893 148.257 82.7996C148.413 82.4963 148.53 82.1749 148.607 81.8427C148.641 81.6837 148.633 81.5187 148.585 81.3635C148.537 81.2083 148.45 81.068 148.332 80.9561C148.158 80.8182 147.954 80.7229 147.736 80.6777C147.519 80.6325 147.294 80.6386 147.079 80.6956C146.931 80.7104 146.785 80.7493 146.649 80.8108Z" fill="#EB996E"/>
<path d="M149.926 84.3177C149.926 84.3177 149.831 84.4479 149.841 84.7285C149.855 84.9253 149.915 85.1161 150.016 85.2857C150.117 85.4553 150.256 85.599 150.422 85.7053C150.679 85.853 150.97 85.9307 151.266 85.9307C151.562 85.9307 151.853 85.853 152.11 85.7053C152.728 85.349 153.184 84.7674 153.383 84.0822C153.601 83.4116 153.601 82.689 153.383 82.0183C153.205 81.4762 152.885 80.9918 152.456 80.6157C152.173 80.3627 151.845 80.1655 151.489 80.0345C151.362 79.9738 151.224 79.943 151.083 79.9444C151.53 80.1606 151.944 80.437 152.316 80.7659C152.736 81.176 153.033 81.6956 153.173 82.2658C153.313 82.8361 153.29 83.4341 153.107 83.9921C152.928 84.6076 152.526 85.1344 151.98 85.4699C151.761 85.598 151.514 85.6688 151.261 85.6758C151.008 85.6828 150.757 85.6258 150.532 85.51C150.383 85.4229 150.254 85.305 150.154 85.1643C150.053 85.0235 149.984 84.863 149.951 84.6934C149.901 84.473 149.951 84.3177 149.926 84.3177Z" fill="#EB996E"/>
<path d="M143.603 87.4631C143.405 87.3291 143.171 87.2576 142.932 87.2577C142.321 87.1982 141.707 87.3445 141.189 87.6735L141.404 87.8188C141.472 87.4881 141.519 87.1535 141.545 86.8169C141.72 84.8832 141.104 83.3904 141.044 83.4305C141.236 84.5399 141.309 85.6669 141.259 86.7919C141.235 87.1128 141.193 87.4323 141.134 87.7487L141.074 88.0743L141.349 87.889C141.818 87.5826 142.367 87.419 142.927 87.4181C143.343 87.4281 143.593 87.4982 143.603 87.4631Z" fill="#EB996E"/>
<path d="M147.556 75.5805C147.476 75.5805 147.586 76.1816 148.117 76.6425C148.648 77.1034 149.244 77.1435 149.244 77.0583C149.244 76.9731 148.768 76.8279 148.313 76.4221C147.857 76.0163 147.636 75.5504 147.556 75.5805Z" fill="#EB996E"/>
<path d="M88.2837 147.812L108.146 148.008L104.815 133.595L105.932 136.316C106.962 138.827 108.715 140.975 110.97 142.487C113.224 143.999 115.877 144.807 118.591 144.807C124.873 144.807 129.216 140.133 131.872 134.442C138.083 121.137 144.07 99.711 144.07 99.711L131.962 89.0708C123.195 105.652 114.959 120.05 114.959 120.05C114.959 120.05 112.58 112.821 110.741 106.369C108.903 99.9164 108.918 96.53 106.098 93.3139C101.754 88.3644 95.5775 87.1371 89.8266 85.6543L89.6112 112.425L88.2837 147.812Z" fill="#FFA149"/>
<path d="M65.5555 127.9L101.724 134.913L103.483 148.81H48.0272C46.5092 148.828 45.004 148.53 43.6076 147.935C42.2112 147.339 40.9544 146.459 39.9174 145.35C38.8803 144.241 38.0858 142.928 37.5846 141.495C37.0833 140.062 36.8864 138.541 37.0063 137.027C37.8028 126.898 38.6694 114.424 39.3307 109.149C39.8316 105.036 41.4848 100.783 43.4235 97.1264C46.2238 91.8564 55.5565 85.1036 63.7371 84.7529L65.285 119.203" fill="#FFA149"/>
<path d="M58.6672 126.868C58.6543 126.758 58.6543 126.647 58.6672 126.537C58.6672 126.292 58.6672 125.976 58.6672 125.59C58.6672 124.734 58.6672 123.551 58.6672 122.084C58.6672 119.143 58.6121 115.07 58.3867 110.597C58.2715 108.353 58.1262 106.219 57.9709 104.285C57.8982 102.568 57.6549 100.863 57.2445 99.1952C56.958 98.0817 56.4121 97.0517 55.6515 96.1895C55.3569 95.8886 55.0459 95.6043 54.7197 95.3379C55.1022 95.5346 55.4492 95.7937 55.7467 96.1043C56.5577 96.9603 57.1415 98.0057 57.4449 99.1451C57.8824 100.827 58.1443 102.549 58.2264 104.285C58.3967 106.224 58.547 108.358 58.6622 110.602C58.8927 115.11 58.9177 119.163 58.8676 122.124C58.8375 123.597 58.7975 124.789 58.7624 125.63L58.7073 126.577C58.7054 126.675 58.6919 126.773 58.6672 126.868Z" fill="#263238"/>
<path d="M101.023 135.915C100.641 135.494 100.197 135.134 99.7053 134.848C99.1208 134.53 98.5002 134.283 97.8568 134.112C97.1104 133.897 96.2337 133.731 95.2669 133.536C91.3995 132.744 86.0644 131.647 80.1532 130.53C74.2419 129.413 68.8617 128.526 64.9693 127.905L60.3556 127.169L59.1032 126.958C58.9557 126.94 58.8099 126.91 58.6674 126.868C58.8152 126.869 58.9627 126.882 59.1082 126.908L60.3706 127.069C61.4627 127.214 63.0457 127.434 64.9944 127.725C68.8968 128.306 74.282 129.168 80.1983 130.275C86.1145 131.382 91.4496 132.504 95.302 133.335C96.2688 133.546 97.1455 133.726 97.8969 133.957C98.5474 134.141 99.1719 134.407 99.7554 134.748C100.13 134.96 100.469 135.23 100.757 135.55C100.834 135.629 100.905 135.714 100.968 135.805C101.003 135.865 101.028 135.915 101.023 135.915Z" fill="#263238"/>
<path d="M58.7763 126.868C58.7763 126.913 58.11 127.069 57.078 127.489C56.4756 127.738 55.8899 128.026 55.3247 128.351C54.6413 128.758 53.9898 129.217 53.376 129.724C52.7791 130.241 52.223 130.804 51.7128 131.407C51.2931 131.904 50.9081 132.43 50.5607 132.98C49.9695 133.927 49.699 134.568 49.6539 134.548C49.6851 134.386 49.7373 134.23 49.8092 134.082C49.9799 133.67 50.1774 133.27 50.4004 132.885C50.7348 132.313 51.1116 131.767 51.5275 131.251C52.5558 129.99 53.8137 128.934 55.2345 128.141C55.8101 127.816 56.4116 127.539 57.0329 127.314C57.4508 127.158 57.8794 127.033 58.3154 126.938C58.465 126.893 58.6201 126.87 58.7763 126.868Z" fill="#263238"/>
<path d="M105.481 135.525C105.447 135.412 105.422 135.296 105.406 135.179C105.366 134.928 105.311 134.598 105.246 134.177C105.105 133.31 104.92 132.058 104.71 130.505C104.289 127.404 103.778 123.106 103.347 118.347C102.916 113.588 102.661 109.27 102.521 106.139C102.45 104.576 102.41 103.308 102.39 102.432C102.39 102.014 102.39 101.68 102.39 101.43C102.379 101.313 102.379 101.196 102.39 101.079C102.417 101.194 102.431 101.312 102.43 101.43L102.495 102.432C102.551 103.333 102.621 104.591 102.711 106.129C102.896 109.255 103.187 113.568 103.613 118.322C104.038 123.076 104.524 127.374 104.9 130.48C105.085 132.013 105.241 133.26 105.351 134.162C105.396 134.578 105.436 134.908 105.466 135.164C105.486 135.283 105.491 135.404 105.481 135.525Z" fill="#263238"/>
<path d="M117.473 130.14C117.473 130.14 117.358 130.029 117.183 129.809C116.94 129.489 116.717 129.155 116.516 128.807C115.172 126.513 114.552 123.865 114.738 121.213C114.763 120.814 114.817 120.417 114.898 120.025C114.916 119.879 114.953 119.736 115.009 119.6C115.054 119.6 114.958 120.221 114.923 121.223C114.84 123.838 115.444 126.429 116.677 128.737C117.148 129.604 117.513 130.11 117.473 130.14Z" fill="#263238"/>
<path d="M58.5213 108.252C58.5213 108.252 58.4562 108.277 58.336 108.292C58.1552 108.321 57.9729 108.34 57.7899 108.347C57.118 108.375 56.4451 108.322 55.7861 108.187C54.8074 107.99 53.8521 107.691 52.9357 107.295C51.8988 106.864 50.7967 106.293 49.6445 105.737C48.5659 105.196 47.4491 104.733 46.3031 104.355C45.3732 104.042 44.4066 103.852 43.4277 103.789C42.5209 103.759 41.6146 103.862 40.7375 104.094C40.7914 104.058 40.8506 104.031 40.9129 104.014C41.0752 103.943 41.2427 103.884 41.4138 103.839C42.0668 103.664 42.742 103.586 43.4176 103.608C44.4178 103.639 45.4089 103.808 46.3632 104.109C47.524 104.483 48.6531 104.948 49.7397 105.502C50.8968 106.073 51.9889 106.634 53.0109 107.07C53.9105 107.469 54.8466 107.782 55.8062 108.002C56.6993 108.184 57.6098 108.268 58.5213 108.252Z" fill="#FAFAFA"/>
<path d="M64.7387 107.035C63.7763 107.328 62.7909 107.539 61.7931 107.666C60.8045 107.882 59.7985 108.007 58.7874 108.042C59.7497 107.749 60.7351 107.538 61.733 107.411C62.7215 107.195 63.7275 107.07 64.7387 107.035Z" fill="#FAFAFA"/>
<path d="M58.2955 117.786C58.065 117.916 57.8216 118.022 57.5692 118.102C57.0933 118.287 56.3969 118.538 55.5303 118.818C53.264 119.545 50.951 120.118 48.6071 120.531C47.2345 120.772 45.917 120.947 44.7147 121.067C43.6484 121.205 42.5708 121.234 41.4986 121.153C40.7714 121.094 40.063 120.891 39.4147 120.556C39.2384 120.465 39.0707 120.357 38.9137 120.236C38.8559 120.196 38.8037 120.149 38.7584 120.096C38.7584 120.096 38.9989 120.251 39.4547 120.466C40.1041 120.759 40.8022 120.929 41.5137 120.967C42.5727 121.022 43.6346 120.975 44.6847 120.827C45.882 120.692 47.1894 120.511 48.557 120.271C50.8899 119.857 53.1979 119.314 55.4702 118.643C56.3418 118.382 57.0432 118.142 57.5291 118.007C57.7788 117.914 58.035 117.841 58.2955 117.786Z" fill="#FAFAFA"/>
<path d="M64.5722 120.425C63.6696 120.569 62.7555 120.628 61.842 120.601C60.9313 120.658 60.0172 120.63 59.1118 120.516C60.0144 120.372 60.9285 120.314 61.842 120.34C62.7527 120.283 63.6668 120.311 64.5722 120.425Z" fill="#FAFAFA"/>
<path d="M38.7949 143.249C38.8007 143.157 38.8193 143.066 38.85 142.978C38.9001 142.778 38.9703 142.533 39.0504 142.227L39.2007 141.686C39.2658 141.491 39.351 141.285 39.4311 141.06C39.6113 140.548 39.8186 140.046 40.0523 139.557L40.4581 138.7C40.6034 138.4 40.7887 138.109 40.959 137.799C41.3368 137.142 41.7482 136.505 42.1914 135.89C44.2379 133.061 46.9063 130.738 49.9912 129.102C50.6621 128.748 51.351 128.428 52.0551 128.145C52.3907 128.02 52.7013 127.875 53.0169 127.775L53.9237 127.489C54.4431 127.324 54.9717 127.188 55.5067 127.083C55.7421 127.033 55.9575 126.978 56.1579 126.943L56.719 126.868L57.4904 126.773C57.5801 126.759 57.6713 126.759 57.761 126.773C57.6755 126.805 57.5863 126.827 57.4954 126.838L56.734 126.983L56.1829 127.078L55.5367 127.239C55.0758 127.364 54.5348 127.469 53.9788 127.679L53.0871 127.98C52.7765 128.085 52.4659 128.23 52.1403 128.361C51.4465 128.649 50.7677 128.971 50.1064 129.328C48.6 130.161 47.1817 131.144 45.8734 132.263C44.581 133.403 43.4063 134.671 42.3667 136.045C41.9158 136.697 41.47 137.308 41.1294 137.924C40.954 138.229 40.7687 138.515 40.6284 138.811L40.2076 139.652C39.9221 140.183 39.7467 140.694 39.5564 141.155C39.4712 141.375 39.381 141.581 39.3109 141.771L39.1356 142.302L38.8901 143.039C38.8661 143.112 38.8342 143.183 38.7949 143.249Z" fill="#FAFAFA"/>
<path d="M63.9164 127.86C63.0785 128.588 62.3822 129.465 61.8625 130.445C61.3161 131.517 60.928 132.663 60.7103 133.847C60.4513 135.303 60.2839 136.773 60.2094 138.25C60.147 139.738 59.9796 141.219 59.7084 142.684C59.463 143.884 59.0392 145.04 58.451 146.115C58.0582 146.835 57.5506 147.487 56.9482 148.044C56.7841 148.196 56.6082 148.335 56.4222 148.459C56.2969 148.545 56.2268 148.59 56.2218 148.58C57.0749 147.868 57.7854 147.001 58.3158 146.025C58.8708 144.959 59.269 143.818 59.498 142.638C59.7647 141.184 59.9321 139.713 59.999 138.235C60.064 136.746 60.2314 135.263 60.4999 133.797C60.7332 132.596 61.1452 131.438 61.7222 130.36C62.116 129.633 62.6233 128.973 63.2251 128.406C63.3827 128.255 63.5501 128.115 63.7261 127.986C63.7839 127.936 63.8479 127.894 63.9164 127.86Z" fill="#FAFAFA"/>
<path d="M72.4681 148.895C72.398 148.895 72.4681 144.576 72.6535 139.256C72.8388 133.936 73.0292 129.623 73.0993 129.623C73.1694 129.623 73.0993 133.941 72.914 139.266C72.7286 144.591 72.5382 148.9 72.4681 148.895Z" fill="#FAFAFA"/>
<path d="M86.0641 148.153C85.9698 147.953 85.896 147.743 85.8437 147.527C85.7624 147.28 85.6939 147.03 85.6383 146.776C85.5732 146.48 85.483 146.144 85.4279 145.774C85.2721 144.89 85.1833 143.996 85.1624 143.099C85.1132 140.894 85.4523 138.698 86.1643 136.611C86.4545 135.761 86.8078 134.934 87.2213 134.137C87.3866 133.791 87.572 133.5 87.7223 133.24C87.8496 133.013 87.9901 132.794 88.1431 132.584C88.2548 132.393 88.3875 132.214 88.5388 132.053C88.5839 132.078 88.0379 132.854 87.3816 134.222C86.9922 135.02 86.6575 135.843 86.3797 136.687C85.6935 138.752 85.3549 140.917 85.3778 143.094C85.3892 143.981 85.4578 144.866 85.5832 145.744C85.8337 147.237 86.1142 148.138 86.0641 148.153Z" fill="#FAFAFA"/>
<path d="M62.9751 92.7877C62.9751 92.8278 62.1836 92.4821 60.8811 92.0613C57.4887 90.9661 53.8933 90.6477 50.3612 91.1295C49.0086 91.3149 48.182 91.5253 48.172 91.4802C48.3516 91.3935 48.542 91.3312 48.7381 91.2948C49.2622 91.1499 49.794 91.0345 50.3311 90.9492C53.8901 90.3579 57.5409 90.6802 60.9413 91.886C61.4522 92.0662 61.9537 92.2718 62.4441 92.5021C62.6322 92.5751 62.8105 92.671 62.9751 92.7877Z" fill="#FAFAFA"/>
<path d="M102.55 113.873C101.931 113.906 101.31 113.895 100.692 113.843C99.5443 113.798 97.9613 113.738 96.213 113.698C94.4647 113.658 92.8817 113.633 91.7345 113.623C91.1142 113.642 90.4933 113.621 89.876 113.558C90.0402 113.519 90.2082 113.499 90.3769 113.498C90.6975 113.498 91.1634 113.452 91.7395 113.437C92.8867 113.402 94.4697 113.392 96.223 113.437C97.9764 113.482 99.5594 113.573 100.732 113.668C101.303 113.713 101.764 113.753 102.084 113.793C102.242 113.803 102.398 113.83 102.55 113.873Z" fill="#FAFAFA"/>
<path d="M112.439 111.975C112.439 112.02 111.813 112.235 110.836 112.716C108.281 113.973 106.116 115.902 104.574 118.297C103.983 119.213 103.698 119.825 103.658 119.799C103.686 119.641 103.74 119.489 103.818 119.349C103.994 118.95 104.194 118.564 104.419 118.191C105.154 116.953 106.077 115.836 107.154 114.88C108.229 113.922 109.444 113.133 110.756 112.541C111.152 112.362 111.559 112.208 111.974 112.08C112.124 112.025 112.28 111.989 112.439 111.975Z" fill="#FAFAFA"/>
<path d="M107.559 95.9196C106.697 95.8901 105.836 96.0104 105.015 96.2753C104.128 96.5848 103.269 96.9668 102.445 97.4174C101.428 97.9812 100.365 98.4587 99.2687 98.8452C97.2416 99.4946 95.0856 99.634 92.9918 99.2509C92.3625 99.1367 91.7441 98.9691 91.1433 98.75C90.9186 98.6796 90.7019 98.5856 90.4971 98.4694C90.4971 98.4193 91.4389 98.8151 93.0018 99.0706C95.0665 99.3929 97.1778 99.23 99.1685 98.5947C100.253 98.2111 101.306 97.7455 102.32 97.202C103.158 96.7569 104.035 96.3881 104.94 96.0999C105.555 95.9046 106.198 95.8115 106.843 95.8244C107.011 95.8293 107.178 95.8461 107.344 95.8745C107.499 95.8946 107.564 95.9096 107.559 95.9196Z" fill="#FAFAFA"/>
<path d="M105.06 129.493C104.878 129.608 104.683 129.701 104.479 129.769C104.288 129.849 104.053 129.944 103.772 130.034C103.492 130.124 103.176 130.244 102.821 130.335C101.982 130.568 101.128 130.746 100.266 130.866C99.2095 131.003 98.1443 131.058 97.0797 131.031C96.0153 130.991 94.9553 130.872 93.9086 130.675C93.0591 130.504 92.2222 130.274 91.4039 129.989C91.0482 129.879 90.7426 129.744 90.4721 129.633C90.2016 129.523 89.9712 129.418 89.7808 129.328C89.5815 129.245 89.3917 129.141 89.2147 129.017C89.2147 128.972 90.0613 129.373 91.464 129.814C92.2853 130.072 93.1218 130.28 93.9688 130.435C96.0408 130.818 98.1593 130.883 100.251 130.625C101.104 130.52 101.951 130.363 102.786 130.154C104.198 129.794 105.045 129.448 105.06 129.493Z" fill="#FAFAFA"/>
<path d="M116.571 144.321C116.5 144.276 116.434 144.222 116.376 144.161C116.261 144.046 116.07 143.89 115.875 143.66C115.27 143.013 114.739 142.3 114.292 141.536C112.846 138.974 112.077 136.086 112.058 133.145C112.061 130.224 112.443 127.316 113.195 124.493C113.466 123.411 113.696 122.54 113.881 121.944C113.966 121.668 114.037 121.443 114.092 121.257C114.147 121.072 114.172 121.017 114.182 121.022C114.181 121.105 114.167 121.188 114.142 121.267C114.102 121.458 114.047 121.688 113.982 121.969C113.831 122.615 113.626 123.471 113.375 124.538C112.684 127.352 112.332 130.238 112.328 133.135C112.344 136.029 113.069 138.875 114.437 141.426C114.867 142.19 115.37 142.909 115.94 143.575C116.336 144.056 116.586 144.301 116.571 144.321Z" fill="#FAFAFA"/>
<path d="M134.801 127.309C134 126.674 133.106 126.167 132.151 125.806C131.105 125.445 130.033 125.165 128.945 124.97C127.592 124.742 126.254 124.436 124.937 124.053C122.559 123.28 120.388 121.974 118.59 120.236C118.048 119.711 117.545 119.147 117.087 118.548C116.922 118.337 116.812 118.162 116.731 118.047C116.651 117.931 116.616 117.866 116.626 117.861C116.82 118.056 117.001 118.264 117.167 118.483C117.648 119.055 118.165 119.595 118.715 120.101C120.521 121.776 122.67 123.04 125.012 123.803C126.316 124.183 127.638 124.494 128.975 124.734C130.073 124.945 131.152 125.245 132.201 125.631C132.91 125.899 133.575 126.27 134.175 126.733C134.338 126.856 134.493 126.992 134.635 127.139C134.761 127.249 134.811 127.304 134.801 127.309Z" fill="#FAFAFA"/>
<path d="M140.532 110.592C140.339 110.454 140.16 110.298 139.996 110.126C139.831 109.971 139.631 109.781 139.38 109.57C139.13 109.36 138.879 109.109 138.539 108.869C137.799 108.272 137.022 107.722 136.214 107.221C134.232 105.995 132.077 105.073 129.822 104.486C128.9 104.248 127.965 104.066 127.022 103.94C126.621 103.874 126.255 103.849 125.935 103.819C125.614 103.789 125.334 103.764 125.108 103.754C124.871 103.753 124.635 103.731 124.402 103.689C124.635 103.653 124.872 103.641 125.108 103.654C125.387 103.64 125.666 103.64 125.945 103.654C126.265 103.654 126.641 103.679 127.047 103.734C128 103.838 128.946 104.006 129.877 104.235C131.018 104.528 132.137 104.903 133.223 105.357C134.301 105.827 135.343 106.376 136.339 107C137.15 107.517 137.925 108.088 138.659 108.709C138.979 108.964 139.24 109.21 139.48 109.45C139.686 109.637 139.881 109.834 140.066 110.041C140.241 110.208 140.397 110.392 140.532 110.592Z" fill="#FAFAFA"/>
<path d="M96.7 87.5976C96.4059 87.7939 96.0854 87.9473 95.7482 88.0535C94.9579 88.3634 94.1459 88.6146 93.3186 88.8049C92.4945 88.9991 91.6574 89.133 90.8138 89.2057C90.4652 89.2586 90.1105 89.2586 89.7618 89.2057C89.7618 89.1255 91.3499 88.9953 93.2685 88.5394C95.1871 88.0836 96.67 87.5225 96.7 87.5976Z" fill="#FAFAFA"/>
<path d="M114.469 158.152C114.534 158.376 114.542 158.612 114.492 158.839C114.442 159.067 114.336 159.278 114.184 159.454C114.031 159.63 113.837 159.765 113.619 159.846C113.401 159.928 113.166 159.953 112.936 159.92C112.669 159.883 112.418 159.768 112.215 159.59C112.012 159.412 111.866 159.178 111.794 158.919L111.368 157.346H111.433C111.476 157.573 111.465 157.807 111.4 158.029C111.335 158.251 111.218 158.454 111.059 158.622C110.9 158.79 110.703 158.917 110.485 158.994C110.267 159.071 110.034 159.095 109.805 159.064C109.148 159.064 108.582 158.107 108.392 157.601C107.897 157.649 107.398 157.561 106.949 157.345C106.5 157.13 106.119 156.795 105.847 156.379L102.907 151.79L97.4613 147.807L100.758 136.04L112.475 143.624C112.936 143.985 113.006 144.125 113.737 144.812L121.302 151.77C120.445 152.271 119.719 152.246 118.526 151.77C117.334 151.294 112.114 147.762 112.114 147.762L114.469 158.107" fill="#FFBE9D"/>
<path d="M104.443 148.475C104.443 148.475 104.579 148.535 104.789 148.68L105.18 148.951C105.366 149.067 105.534 149.209 105.681 149.371C105.854 149.571 105.99 149.8 106.082 150.048C106.172 150.313 106.267 150.584 106.367 150.869L107.008 152.753C107.454 154.095 107.845 155.308 108.115 156.194C108.287 156.665 108.416 157.149 108.501 157.642C108.274 157.195 108.086 156.729 107.94 156.249C107.624 155.378 107.204 154.175 106.758 152.838C106.542 152.172 106.332 151.535 106.137 150.949C106.046 150.659 105.961 150.383 105.876 150.123C105.801 149.893 105.688 149.678 105.541 149.487C105.414 149.33 105.269 149.189 105.11 149.066L104.749 148.76C104.534 148.59 104.433 148.49 104.443 148.475Z" fill="#EB996E"/>
<path d="M111.491 157.617C111.417 157.457 111.361 157.289 111.326 157.116L110.95 155.773C110.63 154.641 110.204 153.073 109.658 151.365C109.112 149.656 108.541 148.134 107.854 147.192C107.598 146.816 107.274 146.491 106.898 146.235C106.622 146.065 106.447 146.015 106.452 145.984C106.498 145.983 106.544 145.992 106.587 146.01C106.712 146.041 106.833 146.087 106.948 146.145C107.364 146.377 107.724 146.696 108.005 147.082C108.751 148.033 109.352 149.586 109.903 151.285C110.454 152.983 110.855 154.581 111.126 155.728C111.261 156.299 111.361 156.765 111.426 157.091C111.474 157.262 111.496 157.439 111.491 157.617Z" fill="#EB996E"/>
<path d="M114.518 158.328C114.428 158.163 114.359 157.986 114.313 157.802C114.188 157.402 114.032 156.916 113.847 156.34C113.466 155.102 112.96 153.389 112.414 151.496C111.868 149.602 111.412 147.939 111.037 146.636C110.907 146.154 110.626 145.725 110.235 145.414C110.077 145.312 109.909 145.225 109.734 145.153C109.784 145.142 109.835 145.142 109.884 145.153C110.025 145.185 110.159 145.241 110.28 145.319C110.718 145.619 111.041 146.059 111.197 146.566C111.608 147.803 112.094 149.517 112.65 151.41C113.206 153.304 113.677 155.032 114.012 156.28C114.163 156.861 114.293 157.357 114.393 157.782C114.454 157.96 114.496 158.143 114.518 158.328Z" fill="#EB996E"/>
<path d="M185.704 49.6967C185.704 50.0435 185.807 50.3825 186 50.6708C186.192 50.9591 186.466 51.1839 186.786 51.3166C187.107 51.4493 187.459 51.484 187.799 51.4163C188.14 51.3487 188.452 51.1817 188.697 50.9365C188.942 50.6913 189.109 50.3789 189.177 50.0387C189.245 49.6986 189.21 49.3461 189.077 49.0257C188.945 48.7053 188.72 48.4315 188.432 48.2389C188.143 48.0462 187.804 47.9434 187.457 47.9434C186.992 47.9434 186.546 48.1281 186.218 48.4569C185.889 48.7857 185.704 49.2317 185.704 49.6967Z" fill="white"/>
<path d="M180.439 51.45C181.407 51.45 182.192 50.665 182.192 49.6967C182.192 48.7284 181.407 47.9434 180.439 47.9434C179.47 47.9434 178.685 48.7284 178.685 49.6967C178.685 50.665 179.47 51.45 180.439 51.45Z" fill="white"/>
<path d="M171.687 48.8202C171.514 49.1205 171.433 49.4655 171.456 49.8116C171.478 50.1577 171.603 50.4893 171.814 50.7645C172.025 51.0397 172.313 51.2462 172.642 51.3577C172.97 51.4693 173.324 51.4809 173.659 51.3912C173.994 51.3015 174.295 51.1145 174.524 50.8537C174.752 50.593 174.899 50.2703 174.944 49.9264C174.989 49.5826 174.931 49.233 174.778 48.922C174.625 48.611 174.382 48.3524 174.082 48.179C173.883 48.0633 173.663 47.9881 173.434 47.9577C173.206 47.9273 172.974 47.9423 172.751 48.0019C172.529 48.0615 172.32 48.1644 172.138 48.3049C171.955 48.4453 171.802 48.6205 171.687 48.8202Z" fill="white"/>
<path d="M180.329 29.2133C180.212 29.2045 180.095 29.2045 179.978 29.2133L178.936 29.2433C178.706 29.2433 178.435 29.2433 178.165 29.2784L177.248 29.4087L176.176 29.5639L174.974 29.8595C172.914 30.3708 170.953 31.217 169.168 32.3643C166.527 34.0454 164.306 36.3076 162.674 38.9783C161.042 41.6489 160.042 44.6572 159.75 47.7735C159.671 48.7082 159.653 49.6469 159.695 50.5839C159.73 51.0548 159.72 51.5407 159.79 52.0166C159.86 52.4925 159.935 52.9784 160.005 53.4644C160.372 55.4553 161.03 57.3812 161.959 59.1802C162.948 61.0651 164.205 62.7964 165.691 64.32C167.275 65.8771 169.089 67.1799 171.071 68.1823C173.122 69.2316 175.342 69.91 177.629 70.1861C178.208 70.2724 178.792 70.321 179.377 70.3314C179.965 70.3757 180.556 70.3874 181.145 70.3665C182.335 70.3173 183.518 70.1682 184.682 69.9206C187.195 69.3761 189.585 68.3687 191.73 66.95L191.52 66.975L198.699 69.8555L199.124 70.0258L199.004 69.585L196.89 61.9104L196.855 62.0957C198.804 59.5153 200.117 56.5119 200.687 53.3291C200.962 51.843 201.056 50.3292 200.968 48.8205C200.951 48.0969 200.882 47.3753 200.763 46.6614C200.709 46.3074 200.654 45.9568 200.597 45.6094C200.537 45.2638 200.432 44.9281 200.347 44.6075C199.144 39.8879 196.303 35.7493 192.332 32.9303C190.866 31.8811 189.263 31.0383 187.567 30.4256L186.49 30.0399L185.489 29.7794L184.557 29.5489C184.256 29.4938 183.966 29.4638 183.695 29.4187C183.154 29.3536 182.693 29.2584 182.257 29.2383L181.205 29.2033H180.559C180.486 29.1979 180.412 29.1979 180.339 29.2033C180.41 29.226 180.485 29.2361 180.559 29.2333L181.2 29.2884L182.247 29.3586C182.663 29.3886 183.134 29.4938 183.675 29.574C187.572 30.251 191.189 32.0447 194.086 34.7374C196.983 37.43 199.036 40.9058 199.996 44.7428C200.071 45.0734 200.176 45.404 200.237 45.7447C200.297 46.0853 200.337 46.426 200.392 46.7766C200.506 47.4775 200.57 48.1857 200.582 48.8957C200.661 50.3698 200.564 51.8481 200.292 53.299C199.71 56.412 198.408 59.3457 196.489 61.8653L196.424 61.9505L196.454 62.0557C197.122 64.5337 197.82 67.0936 198.548 69.7353L198.854 69.4648L191.675 66.5743L191.565 66.5292L191.46 66.5943C188.381 68.6342 184.801 69.7884 181.11 69.9306C180.534 69.9508 179.957 69.9407 179.382 69.9006C178.81 69.8901 178.239 69.8416 177.674 69.7553C175.438 69.4847 173.267 68.8217 171.262 67.7966C169.323 66.8156 167.545 65.5434 165.992 64.0244C164.534 62.5399 163.299 60.8526 162.325 59.0149C161.42 57.2492 160.779 55.3606 160.421 53.4092C160.346 52.9083 160.271 52.4624 160.201 51.9916C160.13 51.5207 160.14 51.0498 160.105 50.5839C160.058 49.6656 160.072 48.7452 160.145 47.8286C160.418 44.7613 161.386 41.7963 162.975 39.1585C164.565 36.5208 166.734 34.2795 169.318 32.6047C171.072 31.4443 173.002 30.5749 175.034 30.0298L176.216 29.7142L177.278 29.5389L178.19 29.3886C178.47 29.3586 178.726 29.3485 178.951 29.3335L179.988 29.2584C180.103 29.2553 180.217 29.2402 180.329 29.2133Z" fill="white"/>
</svg>
