<svg width="1278" height="420" viewBox="0 0 1278 420" fill="none" xmlns="http://www.w3.org/2000/svg">
<g opacity="0.1">
<path d="M0 420H709.655C757.647 420 796.551 381.095 796.551 333.103C796.551 285.112 757.647 246.207 709.655 246.207H0V420Z" fill="#FBFBFB"/>
<path d="M0 168.966H407.931C454.59 168.966 492.414 131.142 492.414 84.4831C492.414 37.8246 454.589 0.000366211 407.931 0.000366211H0V168.966Z" fill="#FBFBFB"/>
<path fill-rule="evenodd" clip-rule="evenodd" d="M284.827 333.104H0V159.311H284.827C299.19 159.311 312.739 162.796 324.675 168.966H318.621C297.291 168.966 280 186.257 280 207.587C280 228.916 297.291 246.207 318.621 246.207L371.724 246.207C371.724 246.207 371.724 246.208 371.724 246.208C371.724 294.2 332.819 333.104 284.827 333.104Z" fill="#FBFBFB"/>
</g>
<g opacity="0.24">
<path d="M1277.9 35.5332L1178.27 35.5332C1171.49 35.5332 1166 30.0411 1166 23.2663C1166 16.4915 1171.49 10.9994 1178.27 10.9994L1277.9 10.9994L1277.9 35.5332Z" fill="#FBFBFB"/>
<path d="M1277.9 70L1220.59 70C1214.04 70 1208.72 64.6866 1208.72 58.1322C1208.72 51.5778 1214.04 46.2644 1220.59 46.2644L1277.9 46.2644L1277.9 70Z" fill="#FBFBFB"/>
<path fill-rule="evenodd" clip-rule="evenodd" d="M1237.29 58.0225L1277.9 58.0225L1277.9 34.1702L1237.29 34.1702C1235.38 34.1702 1233.58 34.6177 1231.98 35.4133L1233.82 35.4133C1236.81 35.4133 1239.24 37.8423 1239.24 40.8386C1239.24 43.8349 1236.81 46.2639 1233.82 46.2639L1225.36 46.2639C1225.45 52.7733 1230.76 58.0225 1237.29 58.0225Z" fill="#FBFBFB"/>
</g>
</svg>
