<svg width="20" height="20" viewBox="0 0 20 20" fill="none" xmlns="http://www.w3.org/2000/svg">
<path d="M16.2762 10.5629V16.4349C16.2762 16.647 16.2072 16.8305 16.0692 16.9854C15.9312 17.1404 15.7678 17.2179 15.579 17.2179H11.3955V12.5202H8.60645V17.2179H4.42295C4.23411 17.2179 4.0707 17.1404 3.9327 16.9854C3.7947 16.8305 3.7257 16.647 3.7257 16.4349V10.5629C3.7257 10.5547 3.72752 10.5425 3.73115 10.5262C3.73478 10.5099 3.7366 10.4976 3.7366 10.4895L10.001 4.69081L16.2653 10.4895C16.2726 10.5058 16.2762 10.5302 16.2762 10.5629ZM18.7057 9.71876L18.0302 10.624C17.9721 10.6974 17.8959 10.7423 17.8014 10.7586H17.7688C17.6743 10.7586 17.5981 10.7301 17.54 10.673L10.001 3.61426L2.46194 10.673C2.37478 10.7382 2.28762 10.7668 2.20047 10.7586C2.10605 10.7423 2.02979 10.6974 1.97168 10.624L1.29622 9.71876C1.23812 9.63721 1.2127 9.54138 1.21996 9.43128C1.22722 9.32117 1.26717 9.2335 1.3398 9.16826L9.17297 1.84041C9.40538 1.62836 9.68138 1.52234 10.001 1.52234C10.3205 1.52234 10.5965 1.62836 10.8289 1.84041L13.4872 4.33604V1.95051C13.4872 1.83633 13.5199 1.74254 13.5853 1.66914C13.6506 1.59574 13.7341 1.55904 13.8358 1.55904H15.9276C16.0293 1.55904 16.1128 1.59574 16.1782 1.66914C16.2435 1.74254 16.2762 1.83633 16.2762 1.95051V6.94176L18.6621 9.16826C18.7347 9.2335 18.7747 9.32117 18.7819 9.43128C18.7892 9.54138 18.7638 9.63721 18.7057 9.71876Z" fill="#FBFBFB"/>
</svg>
