<svg width="20" height="20" viewBox="0 0 20 20" fill="none" xmlns="http://www.w3.org/2000/svg">
<g clip-path="url(#clip0_3903_4514)">
<path fill-rule="evenodd" clip-rule="evenodd" d="M7.09875 17.4342C4.29361 15.0287 0.462891 11.0551 0.462891 7.298C0.462891 1.02129 5.70523 -1.32234 9.99443 3.52493C14.2836 -1.32234 19.526 1.02129 19.526 7.298C19.526 11.0551 15.6943 15.0287 12.8901 17.4342C11.6205 18.5223 10.9857 19.0674 9.99443 19.0674C9.00315 19.0674 8.36835 18.5233 7.09875 17.4342ZM14.2836 4.39966C14.4732 4.39966 14.655 4.48395 14.7891 4.63399C14.9232 4.78403 14.9985 4.98753 14.9985 5.19972V6.53315H16.1899C16.3795 6.53315 16.5613 6.61744 16.6954 6.76748C16.8295 6.91752 16.9048 7.12102 16.9048 7.3332C16.9048 7.54539 16.8295 7.74889 16.6954 7.89893C16.5613 8.04897 16.3795 8.13326 16.1899 8.13326H14.9985V9.46669C14.9985 9.67888 14.9232 9.88237 14.7891 10.0324C14.655 10.1825 14.4732 10.2667 14.2836 10.2667C14.094 10.2667 13.9122 10.1825 13.7781 10.0324C13.6441 9.88237 13.5688 9.67888 13.5688 9.46669V8.13326H12.3773C12.1877 8.13326 12.0059 8.04897 11.8718 7.89893C11.7378 7.74889 11.6624 7.54539 11.6624 7.3332C11.6624 7.12102 11.7378 6.91752 11.8718 6.76748C12.0059 6.61744 12.1877 6.53315 12.3773 6.53315H13.5688V5.19972C13.5688 4.98753 13.6441 4.78403 13.7781 4.63399C13.9122 4.48395 14.094 4.39966 14.2836 4.39966Z" fill="#FBFBFB"/>
</g>
<defs>
<clipPath id="clip0_3903_4514">
<rect width="20" height="20" fill="white"/>
</clipPath>
</defs>
</svg>
