<svg width="20" height="20" viewBox="0 0 20 20" fill="none" xmlns="http://www.w3.org/2000/svg">
<g clip-path="url(#clip0_3749_19125)">
<path d="M7.77778 0H1.11111C0.816426 0 0.533811 0.117063 0.325437 0.325437C0.117063 0.533811 0 0.816426 0 1.11111V7.77778C0 8.07246 0.117063 8.35508 0.325437 8.56345C0.533811 8.77183 0.816426 8.88889 1.11111 8.88889H7.77778C8.07246 8.88889 8.35508 8.77183 8.56345 8.56345C8.77183 8.35508 8.88889 8.07246 8.88889 7.77778V1.11111C8.88889 0.816426 8.77183 0.533811 8.56345 0.325437C8.35508 0.117063 8.07246 0 7.77778 0ZM18.8889 0H12.2222C11.9275 0 11.6449 0.117063 11.4365 0.325437C11.2282 0.533811 11.1111 0.816426 11.1111 1.11111V7.77778C11.1111 8.07246 11.2282 8.35508 11.4365 8.56345C11.6449 8.77183 11.9275 8.88889 12.2222 8.88889H18.8889C19.1836 8.88889 19.4662 8.77183 19.6746 8.56345C19.8829 8.35508 20 8.07246 20 7.77778V1.11111C20 0.816426 19.8829 0.533811 19.6746 0.325437C19.4662 0.117063 19.1836 0 18.8889 0ZM7.77778 11.1111H1.11111C0.816426 11.1111 0.533811 11.2282 0.325437 11.4365C0.117063 11.6449 0 11.9275 0 12.2222V18.8889C0 19.1836 0.117063 19.4662 0.325437 19.6746C0.533811 19.8829 0.816426 20 1.11111 20H7.77778C8.07246 20 8.35508 19.8829 8.56345 19.6746C8.77183 19.4662 8.88889 19.1836 8.88889 18.8889V12.2222C8.88889 11.9275 8.77183 11.6449 8.56345 11.4365C8.35508 11.2282 8.07246 11.1111 7.77778 11.1111ZM15.5556 11.1111C16.4251 11.1111 17.2756 11.3662 18.0016 11.8448C18.7276 12.3233 19.2973 13.0044 19.6401 13.8035C19.9829 14.6027 20.0837 15.4848 19.9301 16.3407C19.7765 17.1966 19.3752 17.9886 18.7759 18.6187C18.1766 19.2487 17.4056 19.6892 16.5585 19.8854C15.7113 20.0816 14.8252 20.025 14.0099 19.7226C13.1947 19.4202 12.486 18.8853 11.9717 18.1841C11.4574 17.4829 11.1601 16.6463 11.1167 15.7778L11.1111 15.5556L11.1167 15.3333C11.1737 14.1945 11.6662 13.1211 12.4924 12.3352C13.3186 11.5494 14.4153 11.1111 15.5556 11.1111Z" fill="#FBFBFB"/>
</g>
<defs>
<clipPath id="clip0_3749_19125">
<rect width="20" height="20" fill="white"/>
</clipPath>
</defs>
</svg>
