<svg width="20" height="20" viewBox="0 0 20 20" fill="none" xmlns="http://www.w3.org/2000/svg">
<path d="M12.5749 11.5859C10.2825 11.5859 5.7062 12.7278 5.7062 15.0202V16.7374H19.4436V15.0202C19.4436 12.7278 14.8673 11.5859 12.5749 11.5859ZM4.84762 8.15152V5.57576H3.13045V8.15152H0.554688V9.86869H3.13045V12.4444H4.84762V9.86869H7.42337V8.15152M12.5749 9.86869C13.4857 9.86869 14.3593 9.50686 15.0033 8.86279C15.6474 8.21873 16.0092 7.34519 16.0092 6.43434C16.0092 5.5235 15.6474 4.64996 15.0033 4.0059C14.3593 3.36183 13.4857 3 12.5749 3C11.664 3 10.7905 3.36183 10.1464 4.0059C9.50238 4.64996 9.14055 5.5235 9.14055 6.43434C9.14055 7.34519 9.50238 8.21873 10.1464 8.86279C10.7905 9.50686 11.664 9.86869 12.5749 9.86869Z" fill="#FBFBFB"/>
</svg>
