<svg width="20" height="20" viewBox="0 0 20 20" fill="none" xmlns="http://www.w3.org/2000/svg">
<path d="M18.8274 1.34926C16.9246 1.47012 13.1426 1.91002 10.8078 3.50953C10.6467 3.6199 10.5554 3.81614 10.5554 4.02133V18.1616C10.5554 18.6104 10.9939 18.8941 11.3637 18.6858C13.7659 17.3327 17.2399 16.9635 18.9576 16.8625C19.5441 16.8279 20 16.3017 20 15.671V2.54229C20.0003 1.85406 19.467 1.30885 18.8274 1.34926ZM9.19217 3.50953C6.85776 1.91002 3.07575 1.47051 1.17294 1.34926C0.533343 1.30885 0 1.85406 0 2.54229V15.6714C0 16.3025 0.455911 16.8287 1.04238 16.8629C2.76081 16.9639 6.23657 17.3335 8.63869 18.6874C9.00745 18.8953 9.44461 18.612 9.44461 18.1643V4.01433C9.44461 3.80876 9.35364 3.62029 9.19217 3.50953Z" fill="#FBFBFB"/>
</svg>
