<svg width="20" height="20" viewBox="0 0 20 20" fill="none" xmlns="http://www.w3.org/2000/svg">
<g clip-path="url(#clip0_3749_3956)">
<path d="M8.9469 3.74922H12.0749L15.5053 0.308419C15.6022 0.210691 15.7175 0.133123 15.8446 0.0801882C15.9716 0.0272535 16.1079 0 16.2456 0C16.3832 0 16.5195 0.0272535 16.6465 0.0801882C16.7736 0.133123 16.8889 0.210691 16.9859 0.308419L19.6759 3.00892C19.8701 3.20428 19.9791 3.46855 19.9791 3.744C19.9791 4.01946 19.8701 4.28373 19.6759 4.47908L17.2882 6.87722H8.9469V8.96255C8.9469 9.23908 8.83705 9.50429 8.64151 9.69982C8.44597 9.89536 8.18077 10.0052 7.90424 10.0052C7.6277 10.0052 7.3625 9.89536 7.16696 9.69982C6.97142 9.50429 6.86157 9.23908 6.86157 8.96255V5.83455C6.86157 5.28148 7.08127 4.75107 7.47235 4.36C7.86342 3.96892 8.39384 3.74922 8.9469 3.74922ZM2.6909 8.96255V13.1332L0.3032 15.5209C0.109002 15.7163 0 15.9805 0 16.256C0 16.5315 0.109002 16.7957 0.3032 16.9911L2.99328 19.6916C3.09021 19.7893 3.20553 19.8669 3.33259 19.9198C3.45964 19.9727 3.59593 20 3.73357 20C3.87122 20 4.0075 19.9727 4.13456 19.9198C4.26161 19.8669 4.37693 19.7893 4.47386 19.6916L8.9469 15.2185H13.1176C13.3941 15.2185 13.6593 15.1087 13.8548 14.9132C14.0504 14.7176 14.1602 14.4524 14.1602 14.1759V13.1332H15.2029C15.4794 13.1332 15.7446 13.0234 15.9402 12.8278C16.1357 12.6323 16.2456 12.3671 16.2456 12.0905V11.0479H17.2882C17.5648 11.0479 17.83 10.938 18.0255 10.7425C18.221 10.547 18.3309 10.2817 18.3309 10.0052V8.96255H11.0322V10.0052C11.0322 10.5583 10.8125 11.0887 10.4215 11.4798C10.0304 11.8708 9.49997 12.0905 8.9469 12.0905H6.86157C6.3085 12.0905 5.77809 11.8708 5.38702 11.4798C4.99594 11.0887 4.77624 10.5583 4.77624 10.0052V6.87722L2.6909 8.96255Z" fill="#FBFBFB"/>
</g>
<defs>
<clipPath id="clip0_3749_3956">
<rect width="20" height="20" fill="white"/>
</clipPath>
</defs>
</svg>
