<svg width="20" height="20" viewBox="0 0 20 20" fill="none" xmlns="http://www.w3.org/2000/svg">
<path fill-rule="evenodd" clip-rule="evenodd" d="M9.89265 1.66803C10.8422 1.64951 11.7859 1.82052 12.6685 2.17105C13.5512 2.52159 14.3551 3.04461 15.0332 3.70953C15.7113 4.37444 16.25 5.1679 16.6178 6.0435C16.9856 6.91909 17.1751 7.85924 17.1752 8.80895V13.5711C17.1752 14.0448 16.9871 14.499 16.6522 14.8339C16.3173 15.1688 15.863 15.357 15.3894 15.357H13.6036V17.7381C13.6036 17.8959 13.5409 18.0474 13.4292 18.159C13.3176 18.2706 13.1662 18.3333 13.0083 18.3333H7.05557C6.8977 18.3333 6.74629 18.2706 6.63465 18.159C6.52302 18.0474 6.4603 17.8959 6.4603 17.7381V14.9962C5.10882 14.2159 4.05004 13.0146 3.44583 11.5757C2.84161 10.1369 2.72519 8.53976 3.11438 7.02851C3.50356 5.51726 4.37693 4.17504 5.60098 3.20702C6.82502 2.23901 8.33239 1.69847 9.89265 1.66803ZM5.93646 10.2495C5.58817 9.26802 5.59222 8.19593 5.94792 7.2171C6.30363 6.23827 6.98882 5.4137 7.88598 4.88481C8.78314 4.35592 9.83637 4.15565 10.865 4.31837C11.8937 4.48109 12.8337 4.99664 13.5238 5.77662C13.8738 6.17426 13.7917 6.76715 13.3988 7.12194C11.9154 8.46369 9.47239 10.1828 7.07343 10.8186C6.59959 10.9448 6.10075 10.7103 5.93646 10.2495Z" fill="#FBFBFB"/>
</svg>
