<svg width="20" height="20" viewBox="0 0 20 20" fill="none" xmlns="http://www.w3.org/2000/svg">
<path fill-rule="evenodd" clip-rule="evenodd" d="M1.31777 4.09505C0.777344 4.63454 0.777344 5.50178 0.777344 7.2381V12.7619C0.777344 14.4982 0.777344 15.3655 1.31777 15.905C1.85819 16.4444 2.72692 16.4444 4.46623 16.4444H15.5329C17.2722 16.4444 18.1409 16.4444 18.6814 15.905C19.2218 15.3655 19.2218 14.4982 19.2218 12.7619V7.2381C19.2218 5.50178 19.2218 4.63454 18.6814 4.09505C18.1409 3.55556 17.2722 3.55556 15.5329 3.55556H4.46623C2.72692 3.55556 1.85819 3.55556 1.31777 4.09505ZM3.54401 5.39683C3.29942 5.39683 3.06485 5.49382 2.8919 5.66648C2.71895 5.83913 2.62179 6.07329 2.62179 6.31746C2.62179 6.56163 2.71895 6.7958 2.8919 6.96845C3.06485 7.1411 3.29942 7.2381 3.54401 7.2381H5.38845C5.63304 7.2381 5.86761 7.1411 6.04056 6.96845C6.21351 6.7958 6.31068 6.56163 6.31068 6.31746C6.31068 6.07329 6.21351 5.83913 6.04056 5.66648C5.86761 5.49382 5.63304 5.39683 5.38845 5.39683H3.54401ZM13.6885 13.6825C13.6885 13.4384 13.7856 13.2042 13.9586 13.0316C14.1315 12.8589 14.3661 12.7619 14.6107 12.7619H16.4551C16.6997 12.7619 16.9343 12.8589 17.1072 13.0316C17.2802 13.2042 17.3773 13.4384 17.3773 13.6825C17.3773 13.9267 17.2802 14.1609 17.1072 14.3335C16.9343 14.5062 16.6997 14.6032 16.4551 14.6032H14.6107C14.3661 14.6032 14.1315 14.5062 13.9586 14.3335C13.7856 14.1609 13.6885 13.9267 13.6885 13.6825ZM10.9218 10C10.9218 10.2442 10.8246 10.4783 10.6517 10.651C10.4787 10.8236 10.2442 10.9206 9.99957 10.9206C9.75498 10.9206 9.52041 10.8236 9.34746 10.651C9.17451 10.4783 9.07734 10.2442 9.07734 10C9.07734 9.75583 9.17451 9.52167 9.34746 9.34901C9.52041 9.17636 9.75498 9.07937 9.99957 9.07937C10.2442 9.07937 10.4787 9.17636 10.6517 9.34901C10.8246 9.52167 10.9218 9.75583 10.9218 10ZM12.7662 10C12.7662 10.7325 12.4747 11.435 11.9559 11.953C11.437 12.4709 10.7333 12.7619 9.99957 12.7619C9.2658 12.7619 8.56209 12.4709 8.04324 11.953C7.52439 11.435 7.2329 10.7325 7.2329 10C7.2329 9.2675 7.52439 8.565 8.04324 8.04704C8.56209 7.52908 9.2658 7.2381 9.99957 7.2381C10.7333 7.2381 11.437 7.52908 11.9559 8.04704C12.4747 8.565 12.7662 9.2675 12.7662 10Z" fill="#FBFBFB"/>
</svg>
