<svg width="20" height="20" viewBox="0 0 20 20" fill="none" xmlns="http://www.w3.org/2000/svg">
<path fill-rule="evenodd" clip-rule="evenodd" d="M1.31777 4.09503C0.777344 4.63453 0.777344 5.50176 0.777344 7.23808V12.7619C0.777344 14.4982 0.777344 15.3654 1.31777 15.9049C1.85819 16.4444 2.72692 16.4444 4.46623 16.4444H15.5329C17.2722 16.4444 18.1409 16.4444 18.6814 15.9049C19.2218 15.3654 19.2218 14.4982 19.2218 12.7619V7.23808C19.2218 5.50176 19.2218 4.63453 18.6814 4.09503C18.1409 3.55554 17.2722 3.55554 15.5329 3.55554H4.46623C2.72692 3.55554 1.85819 3.55554 1.31777 4.09503ZM3.54401 5.39681C3.29942 5.39681 3.06485 5.49381 2.8919 5.66646C2.71895 5.83911 2.62179 6.07328 2.62179 6.31745C2.62179 6.56161 2.71895 6.79578 2.8919 6.96843C3.06485 7.14109 3.29942 7.23808 3.54401 7.23808H5.38845C5.63304 7.23808 5.86761 7.14109 6.04056 6.96843C6.21351 6.79578 6.31068 6.56161 6.31068 6.31745C6.31068 6.07328 6.21351 5.83911 6.04056 5.66646C5.86761 5.49381 5.63304 5.39681 5.38845 5.39681H3.54401ZM13.6885 13.6825C13.6885 13.4384 13.7856 13.2042 13.9586 13.0315C14.1315 12.8589 14.3661 12.7619 14.6107 12.7619H16.4551C16.6997 12.7619 16.9343 12.8589 17.1072 13.0315C17.2802 13.2042 17.3773 13.4384 17.3773 13.6825C17.3773 13.9267 17.2802 14.1609 17.1072 14.3335C16.9343 14.5062 16.6997 14.6032 16.4551 14.6032H14.6107C14.3661 14.6032 14.1315 14.5062 13.9586 14.3335C13.7856 14.1609 13.6885 13.9267 13.6885 13.6825ZM10.9218 9.99999C10.9218 10.2442 10.8246 10.4783 10.6517 10.651C10.4787 10.8236 10.2442 10.9206 9.99957 10.9206C9.75498 10.9206 9.52041 10.8236 9.34746 10.651C9.17451 10.4783 9.07734 10.2442 9.07734 9.99999C9.07734 9.75582 9.17451 9.52165 9.34746 9.349C9.52041 9.17635 9.75498 9.07935 9.99957 9.07935C10.2442 9.07935 10.4787 9.17635 10.6517 9.349C10.8246 9.52165 10.9218 9.75582 10.9218 9.99999ZM12.7662 9.99999C12.7662 10.7325 12.4747 11.435 11.9559 11.9529C11.437 12.4709 10.7333 12.7619 9.99957 12.7619C9.2658 12.7619 8.56209 12.4709 8.04324 11.9529C7.52439 11.435 7.2329 10.7325 7.2329 9.99999C7.2329 9.26748 7.52439 8.56498 8.04324 8.04702C8.56209 7.52907 9.2658 7.23808 9.99957 7.23808C10.7333 7.23808 11.437 7.52907 11.9559 8.04702C12.4747 8.56498 12.7662 9.26748 12.7662 9.99999Z" fill="#FBFBFB"/>
</svg>
