<svg width="20" height="20" viewBox="0 0 20 20" fill="none" xmlns="http://www.w3.org/2000/svg">
<path d="M4.14264 3.44446C3.27963 3.44446 2.45197 3.78687 1.84174 4.39636C1.2315 5.00585 0.888672 5.8325 0.888672 6.69446V7.34446H19.1109V6.69446C19.1109 5.8325 18.7681 5.00585 18.1578 4.39636C17.5476 3.78687 16.7199 3.44446 15.8569 3.44446H4.14264ZM19.1109 8.64446H0.888672V13.1945C0.888672 14.0564 1.2315 14.8831 1.84174 15.4926C2.45197 16.102 3.27963 16.4445 4.14264 16.4445H15.8569C16.7199 16.4445 17.5476 16.102 18.1578 15.4926C18.7681 14.8831 19.1109 14.0564 19.1109 13.1945V8.64446ZM13.2538 12.5445H15.8569C16.0295 12.5445 16.1951 12.6129 16.3171 12.7348C16.4392 12.8567 16.5077 13.0221 16.5077 13.1945C16.5077 13.3668 16.4392 13.5322 16.3171 13.6541C16.1951 13.776 16.0295 13.8445 15.8569 13.8445H13.2538C13.0812 13.8445 12.9156 13.776 12.7936 13.6541C12.6715 13.5322 12.603 13.3668 12.603 13.1945C12.603 13.0221 12.6715 12.8567 12.7936 12.7348C12.9156 12.6129 13.0812 12.5445 13.2538 12.5445Z" fill="#FBFBFB"/>
</svg>
