<svg width="20" height="20" viewBox="0 0 20 20" fill="none" xmlns="http://www.w3.org/2000/svg">
<path fill-rule="evenodd" clip-rule="evenodd" d="M6.89549 17.1517C7.29824 17.3442 7.73886 17.4442 8.18517 17.4444H14.5929C15.3074 17.4444 15.9984 17.1888 16.5413 16.7238C17.0841 16.2587 17.4431 15.6148 17.5534 14.9082L18.3037 10.1056C18.3574 9.76326 18.3363 9.4133 18.242 9.07984C18.1476 8.74639 17.9822 8.43735 17.7571 8.17399C17.5321 7.91062 17.2527 7.69919 16.9382 7.55423C16.6237 7.40927 16.2815 7.33422 15.9353 7.33425H12.0015V4.50767C12.0021 4.07585 11.8594 3.65606 11.5958 3.31417C11.3323 2.97228 10.9628 2.72765 10.5454 2.61866C10.1279 2.50967 9.68615 2.54249 9.28936 2.71197C8.89256 2.88145 8.56321 3.178 8.35298 3.55508L5.8635 8.0061C5.71328 8.27481 5.63446 8.5776 5.63456 8.88551V15.4145C5.63451 15.7544 5.73062 16.0873 5.91177 16.3748C6.09292 16.6623 6.3517 16.8925 6.65816 17.0389L6.89788 17.1529L6.89549 17.1517ZM2.86101 8.22565C2.70414 8.2255 2.54878 8.25629 2.4038 8.31627C2.25882 8.37625 2.12708 8.46424 2.0161 8.57522C1.90511 8.68619 1.81707 8.81798 1.757 8.96303C1.69693 9.10809 1.66602 9.26357 1.66602 9.42059V15.5536C1.66602 15.8709 1.79192 16.1751 2.01602 16.3994C2.24013 16.6238 2.54408 16.7498 2.86101 16.7498H3.45552C3.61446 16.7498 3.7669 16.6866 3.87929 16.5741C3.99168 16.4616 4.05482 16.309 4.05482 16.1499V8.82432C4.05482 8.66523 3.99168 8.51265 3.87929 8.40015C3.7669 8.28765 3.61446 8.22445 3.45552 8.22445L2.86101 8.22565Z" fill="#FBFBFB"/>
</svg>
