<svg width="20" height="20" viewBox="0 0 20 20" fill="none" xmlns="http://www.w3.org/2000/svg">
<path d="M3.19401 8.91192C4.26649 8.91192 5.13845 7.93605 5.13845 6.73575C5.13845 5.53546 4.26649 4.55959 3.19401 4.55959C2.12153 4.55959 1.24957 5.53546 1.24957 6.73575C1.24957 7.93605 2.12153 8.91192 3.19401 8.91192ZM16.8051 8.91192C17.8776 8.91192 18.7496 7.93605 18.7496 6.73575C18.7496 5.53546 17.8776 4.55959 16.8051 4.55959C15.7326 4.55959 14.8607 5.53546 14.8607 6.73575C14.8607 7.93605 15.7326 8.91192 16.8051 8.91192ZM17.7773 10H15.8329C15.2982 10 14.8151 10.2414 14.4627 10.6325C15.6871 11.3839 16.556 12.7406 16.7444 14.3523H18.7496C19.2873 14.3523 19.7218 13.8661 19.7218 13.2643V12.1762C19.7218 10.9759 18.8498 10 17.7773 10ZM9.99957 10C11.8802 10 13.4023 8.29647 13.4023 6.19171C13.4023 4.08695 11.8802 2.38342 9.99957 2.38342C8.11892 2.38342 6.59679 4.08695 6.59679 6.19171C6.59679 8.29647 8.11892 10 9.99957 10ZM12.3329 11.0881H12.0807C11.4488 11.4281 10.747 11.6321 9.99957 11.6321C9.25217 11.6321 8.55338 11.4281 7.9184 11.0881H7.66623C5.73394 11.0881 4.16623 12.8426 4.16623 15.0052V15.9845C4.16623 16.8855 4.81944 17.6166 5.62457 17.6166H14.3746C15.1797 17.6166 15.8329 16.8855 15.8329 15.9845V15.0052C15.8329 12.8426 14.2652 11.0881 12.3329 11.0881ZM5.53646 10.6325C5.18403 10.2414 4.70095 10 4.16623 10H2.22179C1.14931 10 0.277344 10.9759 0.277344 12.1762V13.2643C0.277344 13.8661 0.711805 14.3523 1.24957 14.3523H3.25174C3.44314 12.7406 4.31207 11.3839 5.53646 10.6325Z" fill="#FBFBFB"/>
</svg>
