<svg width="20" height="20" viewBox="0 0 20 20" fill="none" xmlns="http://www.w3.org/2000/svg">
<path d="M3.74572 19.0674C3.25061 19.0674 2.82691 18.8702 2.47463 18.476C2.12235 18.0817 1.94591 17.6072 1.94531 17.0524V2.94762C1.94531 2.3935 2.12175 1.91931 2.47463 1.52505C2.82751 1.13079 3.25121 0.933319 3.74572 0.932648H16.3486C16.8437 0.932648 17.2677 1.13011 17.6206 1.52505C17.9735 1.91998 18.1496 2.39417 18.149 2.94762V17.0524C18.149 17.6065 17.9729 18.081 17.6206 18.476C17.2683 18.8709 16.8443 19.068 16.3486 19.0674H3.74572ZM5.54614 15.0374H11.8476V13.0225H5.54614V15.0374ZM5.54614 11.0075H14.5482V8.99252H5.54614V11.0075ZM5.54614 6.97755H14.5482V4.96258H5.54614V6.97755Z" fill="#9B3D11"/>
</svg>
