<svg width="20" height="20" viewBox="0 0 20 20" fill="none" xmlns="http://www.w3.org/2000/svg">
<path d="M7.86341 1.66666C7.53185 1.66666 7.21388 1.79837 6.97943 2.03281C6.74499 2.26725 6.61328 2.58523 6.61328 2.91678V3.7502C6.61328 4.08175 6.74499 4.39973 6.97943 4.63417C7.21388 4.86862 7.53185 5.00033 7.86341 5.00033H12.0305C12.362 5.00033 12.68 4.86862 12.9145 4.63417C13.1489 4.39973 13.2806 4.08175 13.2806 3.7502V2.91678C13.2806 2.58523 13.1489 2.26725 12.9145 2.03281C12.68 1.79837 12.362 1.66666 12.0305 1.66666H7.86341Z" fill="#9B3D11"/>
<path fill-rule="evenodd" clip-rule="evenodd" d="M5.36227 3.36432C4.31383 3.42266 3.6521 3.58934 3.17789 4.06439C2.44531 4.79696 2.44531 5.97541 2.44531 8.33232V13.3328C2.44531 15.6906 2.44531 16.869 3.17789 17.6016C3.90963 18.3333 5.08891 18.3333 7.44582 18.3333H12.4463C14.8032 18.3333 15.9825 18.3333 16.7142 17.6016C17.4468 16.8682 17.4468 15.6906 17.4468 13.3328V8.33232C17.4468 5.97541 17.4468 4.79696 16.7142 4.06439C16.24 3.58934 15.5783 3.42266 14.5299 3.36432V3.75019C14.5299 4.4133 14.2664 5.04925 13.7976 5.51814C13.3287 5.98702 12.6927 6.25044 12.0296 6.25044H7.86252C7.19942 6.25044 6.56347 5.98702 6.09458 5.51814C5.62569 5.04925 5.36227 4.4133 5.36227 3.75019V3.36432ZM5.77898 8.12563C5.6132 8.12563 5.45422 8.19149 5.337 8.30871C5.21977 8.42593 5.15392 8.58492 5.15392 8.75069C5.15392 8.91647 5.21977 9.07546 5.337 9.19268C5.45422 9.3099 5.6132 9.37576 5.77898 9.37576H6.19569C6.36147 9.37576 6.52045 9.3099 6.63768 9.19268C6.7549 9.07546 6.82075 8.91647 6.82075 8.75069C6.82075 8.58492 6.7549 8.42593 6.63768 8.30871C6.52045 8.19149 6.36147 8.12563 6.19569 8.12563H5.77898ZM8.69594 8.12563C8.53016 8.12563 8.37118 8.19149 8.25396 8.30871C8.13673 8.42593 8.07088 8.58492 8.07088 8.75069C8.07088 8.91647 8.13673 9.07546 8.25396 9.19268C8.37118 9.3099 8.53016 9.37576 8.69594 9.37576H14.1132C14.2789 9.37576 14.4379 9.3099 14.5551 9.19268C14.6724 9.07546 14.7382 8.91647 14.7382 8.75069C14.7382 8.58492 14.6724 8.42593 14.5551 8.30871C14.4379 8.19149 14.2789 8.12563 14.1132 8.12563H8.69594ZM5.77898 11.0426C5.6132 11.0426 5.45422 11.1084 5.337 11.2257C5.21977 11.3429 5.15392 11.5019 5.15392 11.6677C5.15392 11.8334 5.21977 11.9924 5.337 12.1096C5.45422 12.2269 5.6132 12.2927 5.77898 12.2927H6.19569C6.36147 12.2927 6.52045 12.2269 6.63768 12.1096C6.7549 11.9924 6.82075 11.8334 6.82075 11.6677C6.82075 11.5019 6.7549 11.3429 6.63768 11.2257C6.52045 11.1084 6.36147 11.0426 6.19569 11.0426H5.77898ZM8.69594 11.0426C8.53016 11.0426 8.37118 11.1084 8.25396 11.2257C8.13673 11.3429 8.07088 11.5019 8.07088 11.6677C8.07088 11.8334 8.13673 11.9924 8.25396 12.1096C8.37118 12.2269 8.53016 12.2927 8.69594 12.2927H14.1132C14.2789 12.2927 14.4379 12.2269 14.5551 12.1096C14.6724 11.9924 14.7382 11.8334 14.7382 11.6677C14.7382 11.5019 14.6724 11.3429 14.5551 11.2257C14.4379 11.1084 14.2789 11.0426 14.1132 11.0426H8.69594ZM5.77898 13.9596C5.6132 13.9596 5.45422 14.0254 5.337 14.1426C5.21977 14.2598 5.15392 14.4188 5.15392 14.5846C5.15392 14.7504 5.21977 14.9094 5.337 15.0266C5.45422 15.1438 5.6132 15.2097 5.77898 15.2097H6.19569C6.36147 15.2097 6.52045 15.1438 6.63768 15.0266C6.7549 14.9094 6.82075 14.7504 6.82075 14.5846C6.82075 14.4188 6.7549 14.2598 6.63768 14.1426C6.52045 14.0254 6.36147 13.9596 6.19569 13.9596H5.77898ZM8.69594 13.9596C8.53016 13.9596 8.37118 14.0254 8.25396 14.1426C8.13673 14.2598 8.07088 14.4188 8.07088 14.5846C8.07088 14.7504 8.13673 14.9094 8.25396 15.0266C8.37118 15.1438 8.53016 15.2097 8.69594 15.2097H14.1132C14.2789 15.2097 14.4379 15.1438 14.5551 15.0266C14.6724 14.9094 14.7382 14.7504 14.7382 14.5846C14.7382 14.4188 14.6724 14.2598 14.5551 14.1426C14.4379 14.0254 14.2789 13.9596 14.1132 13.9596H8.69594Z" fill="#9B3D11"/>
</svg>
