<svg width="20" height="21" viewBox="0 0 20 21" fill="none" xmlns="http://www.w3.org/2000/svg">
<g clip-path="url(#clip0_3813_47095)">
<path d="M6.3875 11.7875C6.65313 11.7875 6.92188 11.7844 7.18125 11.775L7.2625 11.7719L7.24063 11.6937C7.09375 11.1406 7.01875 10.5625 7.01875 9.97499C7.01875 9.58124 7.05313 9.19686 7.11563 8.83124L7.12813 8.75936L7.05313 8.75624C6.84375 8.74999 6.62188 8.74686 6.38438 8.74686C2.73125 8.74686 0 9.54999 0 10.2687C0 10.9844 2.73125 11.7875 6.3875 11.7875Z" fill="#9B3D11"/>
<path d="M2.21563 14.1219C3.39687 14.3812 4.87813 14.525 6.3875 14.525C7.12813 14.525 7.85938 14.4906 8.5625 14.4219L8.68438 14.4094L8.60625 14.3156C8.10363 13.7246 7.70906 13.0497 7.44062 12.3219L7.425 12.2781L7.37813 12.2812C7.05625 12.2937 6.72188 12.3 6.3875 12.3C3.63125 12.3 1.1625 11.8469 0.1 11.1469L0 11.0812V13.0094C0 13.2406 0.465625 13.7375 2.21563 14.1219Z" fill="#9B3D11"/>
<path d="M9.15625 14.8969L9.13437 14.875L9.10312 14.8781C8.25937 14.9812 7.34687 15.0344 6.3875 15.0344C4.83125 15.0344 3.3125 14.8875 2.10625 14.6187C1.5 14.4875 0.6625 14.2531 0.1 13.8906L0 13.8281V15.7437C0 16.3781 2.43125 17.2594 6.3875 17.2594C8.55 17.2594 10.4937 16.9906 11.7219 16.5219L11.8937 16.4562L11.7187 16.4C10.7687 16.1031 9.88437 15.5844 9.15625 14.8969Z" fill="#9B3D11"/>
<path d="M13.7656 3.73749C10.3281 3.73749 7.53125 6.53436 7.53125 9.97499C7.53125 13.4125 10.3281 16.2094 13.7656 16.2094C17.2031 16.2094 20 13.4125 20 9.97499C20 6.53749 17.2031 3.73749 13.7656 3.73749ZM13.7656 14.7187C11.15 14.7187 9.02188 12.5906 9.02188 9.97499C9.02188 7.35936 11.15 5.23124 13.7656 5.23124C16.3812 5.23124 18.5094 7.35936 18.5094 9.97499C18.5094 12.5906 16.3812 14.7187 13.7656 14.7187Z" fill="#9B3D11"/>
<path d="M17.2467 9.66985C17.2467 9.88555 17.1947 10.0878 17.0907 10.2765C16.9905 10.4653 16.8307 10.6174 16.6111 10.733C16.3954 10.8485 16.1219 10.9063 15.7907 10.9063H15.1147V12.4547H14.3058V8.42185H15.7907C16.1027 8.42185 16.3685 8.47578 16.588 8.58363C16.8076 8.69148 16.9713 8.83978 17.0791 9.02852C17.1908 9.21726 17.2467 9.43104 17.2467 9.66985ZM15.756 10.2534C15.9794 10.2534 16.1451 10.2033 16.2529 10.1032C16.3608 9.99918 16.4147 9.85474 16.4147 9.66985C16.4147 9.27696 16.1951 9.08052 15.756 9.08052H15.1147V10.2534H15.756Z" fill="#9B3D11"/>
<path d="M12.8698 8.83199C12.8698 8.47377 12.6676 8.24843 12.2169 8.24843H11.5409V9.43288H12.2169C12.6676 9.43288 12.8698 9.19599 12.8698 8.83199ZM10.732 7.57821H12.2458C13.2164 7.57821 13.7018 8.13865 13.7018 8.81465C13.7018 9.30577 13.4302 9.80265 12.7831 9.97599L13.748 11.6111H12.812L11.9222 10.0395H11.5409V11.6111H10.732V7.57821Z" fill="#9B3D11"/>
</g>
<defs>
<clipPath id="clip0_3813_47095">
<rect width="20" height="20" fill="white" transform="translate(0 0.5)"/>
</clipPath>
</defs>
</svg>
