<svg width="20" height="20" viewBox="0 0 20 20" fill="none" xmlns="http://www.w3.org/2000/svg">
<g clip-path="url(#clip0_3921_10572)">
<path fill-rule="evenodd" clip-rule="evenodd" d="M7.09875 17.4342C4.29361 15.0286 0.462891 11.055 0.462891 7.29797C0.462891 1.02126 5.70524 -1.32237 9.99443 3.5249C14.2836 -1.32237 19.526 1.02126 19.526 7.29797C19.526 11.055 15.6943 15.0286 12.8901 17.4342C11.6205 18.5222 10.9857 19.0673 9.99443 19.0673C9.00315 19.0673 8.36835 18.5233 7.09875 17.4342ZM14.2836 4.39963C14.4732 4.39963 14.655 4.48392 14.7891 4.63396C14.9232 4.784 14.9985 4.9875 14.9985 5.19969V6.53312H16.1899C16.3795 6.53312 16.5613 6.61741 16.6954 6.76745C16.8295 6.91749 16.9048 7.12099 16.9048 7.33317C16.9048 7.54536 16.8295 7.74886 16.6954 7.8989C16.5613 8.04894 16.3795 8.13323 16.1899 8.13323H14.9985V9.46666C14.9985 9.67884 14.9232 9.88234 14.7891 10.0324C14.655 10.1824 14.4732 10.2667 14.2836 10.2667C14.094 10.2667 13.9122 10.1824 13.7781 10.0324C13.6441 9.88234 13.5688 9.67884 13.5688 9.46666V8.13323H12.3773C12.1877 8.13323 12.0059 8.04894 11.8718 7.8989C11.7378 7.74886 11.6624 7.54536 11.6624 7.33317C11.6624 7.12099 11.7378 6.91749 11.8718 6.76745C12.0059 6.61741 12.1877 6.53312 12.3773 6.53312H13.5688V5.19969C13.5688 4.9875 13.6441 4.784 13.7781 4.63396C13.9122 4.48392 14.094 4.39963 14.2836 4.39963Z" fill="#9B3D11"/>
</g>
<defs>
<clipPath id="clip0_3921_10572">
<rect width="20" height="20" fill="white"/>
</clipPath>
</defs>
</svg>
