<svg width="20" height="20" viewBox="0 0 20 20" fill="none" xmlns="http://www.w3.org/2000/svg">
<path d="M8.24713 2.11111H2.98787C2.7554 2.11111 2.53245 2.20346 2.36806 2.36785C2.20368 2.53223 2.11133 2.75518 2.11133 2.98766V8.24692C2.11133 8.47939 2.20368 8.70234 2.36806 8.86673C2.53245 9.03111 2.7554 9.12346 2.98787 9.12346H8.24713C8.4796 9.12346 8.70256 9.03111 8.86694 8.86673C9.03132 8.70234 9.12367 8.47939 9.12367 8.24692V2.98766C9.12367 2.75518 9.03132 2.53223 8.86694 2.36785C8.70256 2.20346 8.4796 2.11111 8.24713 2.11111ZM17.0126 2.11111H11.7533C11.5208 2.11111 11.2979 2.20346 11.1335 2.36785C10.9691 2.53223 10.8768 2.75518 10.8768 2.98766V8.24692C10.8768 8.47939 10.9691 8.70234 11.1335 8.86673C11.2979 9.03111 11.5208 9.12346 11.7533 9.12346H17.0126C17.245 9.12346 17.468 9.03111 17.6324 8.86673C17.7968 8.70234 17.8891 8.47939 17.8891 8.24692V2.98766C17.8891 2.75518 17.7968 2.53223 17.6324 2.36785C17.468 2.20346 17.245 2.11111 17.0126 2.11111ZM8.24713 10.8765H2.98787C2.7554 10.8765 2.53245 10.9689 2.36806 11.1333C2.20368 11.2977 2.11133 11.5206 2.11133 11.7531V17.0124C2.11133 17.2448 2.20368 17.4678 2.36806 17.6322C2.53245 17.7965 2.7554 17.8889 2.98787 17.8889H8.24713C8.4796 17.8889 8.70256 17.7965 8.86694 17.6322C9.03132 17.4678 9.12367 17.2448 9.12367 17.0124V11.7531C9.12367 11.5206 9.03132 11.2977 8.86694 11.1333C8.70256 10.9689 8.4796 10.8765 8.24713 10.8765ZM14.3829 10.8765C15.0689 10.8765 15.7398 11.0778 16.3126 11.4553C16.8853 11.8329 17.3348 12.3701 17.6052 13.0006C17.8756 13.631 17.9551 14.3269 17.834 15.0021C17.7128 15.6773 17.3962 16.3021 16.9234 16.7992C16.4506 17.2962 15.8424 17.6437 15.1741 17.7985C14.5058 17.9533 13.8068 17.9086 13.1636 17.67C12.5204 17.4315 11.9614 17.0095 11.5557 16.4563C11.15 15.9032 10.9154 15.2432 10.8811 14.558L10.8768 14.3827L10.8811 14.2074C10.9261 13.309 11.3147 12.4622 11.9665 11.8423C12.6183 11.2223 13.4834 10.8765 14.3829 10.8765Z" fill="#9B3D11"/>
</svg>
