<svg width="20" height="20" viewBox="0 0 20 20" fill="none" xmlns="http://www.w3.org/2000/svg">
<path d="M1.44531 9.99804C1.44574 8.12232 2.06258 6.29872 3.2009 4.80789C4.33922 3.31707 5.93592 2.24164 7.74528 1.74713C9.55464 1.25262 11.4764 1.36642 13.2147 2.07103C14.9531 2.77563 16.4117 4.03199 17.3661 5.64674C18.3205 7.2615 18.7178 9.14515 18.4968 11.0078C18.2759 12.8705 17.4489 14.6089 16.1432 15.9556C14.8375 17.3022 13.1255 18.1824 11.2705 18.4608C9.41556 18.7392 7.52054 18.4002 5.87709 17.4961L2.55069 18.5091C2.40232 18.5543 2.24446 18.5583 2.09398 18.5207C1.94351 18.4831 1.80609 18.4053 1.69641 18.2956C1.58674 18.186 1.50895 18.0485 1.47135 17.8981C1.43375 17.7476 1.43776 17.5897 1.48296 17.4414L2.49593 14.1098C1.80595 12.8492 1.44463 11.4351 1.44531 9.99804ZM6.57864 9.14248C6.57864 9.36939 6.66878 9.587 6.82923 9.74745C6.98968 9.9079 7.20729 9.99804 7.4342 9.99804H12.5675C12.7944 9.99804 13.012 9.9079 13.1725 9.74745C13.3329 9.587 13.4231 9.36939 13.4231 9.14248C13.4231 8.91557 13.3329 8.69796 13.1725 8.53751C13.012 8.37707 12.7944 8.28693 12.5675 8.28693H7.4342C7.20729 8.28693 6.98968 8.37707 6.82923 8.53751C6.66878 8.69796 6.57864 8.91557 6.57864 9.14248ZM7.4342 11.7091C7.20729 11.7091 6.98968 11.7993 6.82923 11.9597C6.66878 12.1202 6.57864 12.3378 6.57864 12.5647C6.57864 12.7916 6.66878 13.0092 6.82923 13.1697C6.98968 13.3301 7.20729 13.4203 7.4342 13.4203H10.8564C11.0833 13.4203 11.3009 13.3301 11.4614 13.1697C11.6218 13.0092 11.712 12.7916 11.712 12.5647C11.712 12.3378 11.6218 12.1202 11.4614 11.9597C11.3009 11.7993 11.0833 11.7091 10.8564 11.7091H7.4342Z" fill="#9B3D11"/>
</svg>
