<svg width="20" height="20" viewBox="0 0 20 20" fill="none" xmlns="http://www.w3.org/2000/svg">
<path d="M2.87086 8.70295C2.69894 8.70295 2.53407 8.63466 2.41251 8.5131C2.29095 8.39154 2.22266 8.22667 2.22266 8.05475V2.87043C2.22266 2.69852 2.29095 2.53364 2.41251 2.41208C2.53407 2.29052 2.69894 2.22223 2.87086 2.22223H8.05648C8.22839 2.22223 8.39326 2.29052 8.51482 2.41208C8.63639 2.53364 8.70468 2.69852 8.70468 2.87043V8.05475C8.70468 8.22667 8.63639 8.39154 8.51482 8.5131C8.39326 8.63466 8.22839 8.70295 8.05648 8.70295H2.87086ZM11.9457 8.70295C11.7738 8.70295 11.6089 8.63466 11.4873 8.5131C11.3658 8.39154 11.2975 8.22667 11.2975 8.05475V2.87043C11.2975 2.69852 11.3658 2.53364 11.4873 2.41208C11.6089 2.29052 11.7738 2.22223 11.9457 2.22223H17.13C17.3019 2.22223 17.4668 2.29052 17.5884 2.41208C17.7099 2.53364 17.7782 2.69852 17.7782 2.87043V8.05475C17.7782 8.22667 17.7099 8.39154 17.5884 8.5131C17.4668 8.63466 17.3019 8.70295 17.13 8.70295H11.9457ZM2.87086 17.7778C2.69894 17.7778 2.53407 17.7095 2.41251 17.5879C2.29095 17.4664 2.22266 17.3015 2.22266 17.1296V11.944C2.22266 11.7721 2.29095 11.6072 2.41251 11.4856C2.53407 11.3641 2.69894 11.2958 2.87086 11.2958H8.05648C8.22839 11.2958 8.39326 11.3641 8.51482 11.4856C8.63639 11.6072 8.70468 11.7721 8.70468 11.944V17.1296C8.70468 17.3015 8.63639 17.4664 8.51482 17.5879C8.39326 17.7095 8.22839 17.7778 8.05648 17.7778H2.87086ZM11.9457 17.7778C11.7738 17.7778 11.6089 17.7095 11.4873 17.5879C11.3658 17.4664 11.2975 17.3015 11.2975 17.1296V11.944C11.2975 11.7721 11.3658 11.6072 11.4873 11.4856C11.6089 11.3641 11.7738 11.2958 11.9457 11.2958H17.13C17.3019 11.2958 17.4668 11.3641 17.5884 11.4856C17.7099 11.6072 17.7782 11.7721 17.7782 11.944V17.1296C17.7782 17.3015 17.7099 17.4664 17.5884 17.5879C17.4668 17.7095 17.3019 17.7778 17.13 17.7778H11.9457Z" fill="#9B3D11"/>
</svg>
