<svg width="20" height="20" viewBox="0 0 20 20" fill="none" xmlns="http://www.w3.org/2000/svg">
<path d="M1.66602 15.8333C1.66602 17.25 2.74935 18.3333 4.16602 18.3333H15.8327C17.2493 18.3333 18.3327 17.25 18.3327 15.8333V9.16666H1.66602V15.8333ZM15.8327 3.33332H14.166V2.49999C14.166 1.99999 13.8327 1.66666 13.3327 1.66666C12.8327 1.66666 12.4993 1.99999 12.4993 2.49999V3.33332H7.49935V2.49999C7.49935 1.99999 7.16602 1.66666 6.66602 1.66666C6.16602 1.66666 5.83268 1.99999 5.83268 2.49999V3.33332H4.16602C2.74935 3.33332 1.66602 4.41666 1.66602 5.83332V7.49999H18.3327V5.83332C18.3327 4.41666 17.2493 3.33332 15.8327 3.33332Z" fill="#9B3D11"/>
</svg>
