<svg width="20" height="20" viewBox="0 0 20 20" fill="none" xmlns="http://www.w3.org/2000/svg">
<path fill-rule="evenodd" clip-rule="evenodd" d="M2.88216 2.88889C2.41251 2.88889 1.96209 3.07545 1.62999 3.40755C1.2979 3.73965 1.11133 4.19006 1.11133 4.65972V8.20139C1.58098 8.20139 2.0314 8.38796 2.3635 8.72005C2.69559 9.05215 2.88216 9.50256 2.88216 9.97222C2.88216 10.4419 2.69559 10.8923 2.3635 11.2244C2.0314 11.5565 1.58098 11.7431 1.11133 11.7431V15.2847C1.11133 15.7544 1.2979 16.2048 1.62999 16.5369C1.96209 16.869 2.41251 17.0556 2.88216 17.0556H17.0488C17.5185 17.0556 17.9689 16.869 18.301 16.5369C18.6331 16.2048 18.8197 15.7544 18.8197 15.2847V11.7431C18.35 11.7431 17.8996 11.5565 17.5675 11.2244C17.2354 10.8923 17.0488 10.4419 17.0488 9.97222C17.0488 9.50256 17.2354 9.05215 17.5675 8.72005C17.8996 8.38796 18.35 8.20139 18.8197 8.20139V4.65972C18.8197 4.19006 18.6331 3.73965 18.301 3.40755C17.9689 3.07545 17.5185 2.88889 17.0488 2.88889H2.88216ZM13.5141 9.39967C13.5141 9.61537 13.4621 9.8176 13.3581 10.0063C13.258 10.1951 13.0981 10.3472 12.8785 10.4628C12.6628 10.5783 12.3894 10.6361 12.0581 10.6361H11.3821V12.1846H10.5732V8.15167H12.0581C12.3701 8.15167 12.6359 8.2056 12.8554 8.31345C13.075 8.4213 13.2387 8.5696 13.3465 8.75834C13.4582 8.94708 13.5141 9.16086 13.5141 9.39967ZM12.0234 9.98323C12.2468 9.98323 12.4125 9.93315 12.5203 9.833C12.6282 9.729 12.6821 9.58456 12.6821 9.39967C12.6821 9.00678 12.4625 8.81034 12.0234 8.81034H11.3821V9.98323H12.0234ZM7.96627 9.71663L8.85605 11.2882H9.79205L8.82716 9.65308C9.13146 9.57219 9.36064 9.42582 9.51471 9.21397C9.66879 8.99826 9.74583 8.75752 9.74583 8.49175C9.74583 8.26064 9.68997 8.05263 9.57827 7.86775C9.47042 7.67901 9.30671 7.53071 9.08716 7.42286C8.8676 7.31115 8.60183 7.2553 8.28983 7.2553H6.77605V11.2882H7.58494V9.71663H7.96627ZM8.26094 9.10997H7.58494V7.92552H8.26094C8.48049 7.92552 8.6442 7.97752 8.75205 8.08152C8.8599 8.18167 8.91383 8.32419 8.91383 8.50908C8.91383 8.69782 8.8599 8.84612 8.75205 8.95397C8.6442 9.05797 8.48049 9.10997 8.26094 9.10997Z" fill="#9B3D11"/>
</svg>
