<svg width="88" height="40" viewBox="0 0 88 40" fill="none" xmlns="http://www.w3.org/2000/svg">
<path d="M45.0342 9.86328C46.1675 9.86515 46.7417 9.87116 47.2379 9.88593L47.4334 9.89231C47.6591 9.90034 47.8819 9.91041 48.1504 9.92299C49.2219 9.9725 49.9529 10.142 50.5948 10.3912C51.2585 10.6472 51.819 10.9929 52.3787 11.5526C52.9375 12.1123 53.2833 12.6745 53.5401 13.3365C53.7884 13.9776 53.958 14.7093 54.0083 15.7809C54.0203 16.0494 54.03 16.2721 54.0379 16.4979L54.0443 16.6934C54.059 17.1895 54.0657 17.7639 54.0678 18.8972L54.0686 19.6479C54.0687 19.7397 54.0687 19.8343 54.0687 19.932L54.0686 20.216L54.068 20.9669C54.0661 22.1001 54.0602 22.6745 54.0454 23.1706L54.0389 23.3661C54.031 23.5919 54.0209 23.8147 54.0083 24.0831C53.9588 25.1547 53.7884 25.8855 53.5401 26.5275C53.2841 27.1913 52.9375 27.7518 52.3787 28.3115C51.819 28.8703 51.2559 29.216 50.5948 29.4728C49.9529 29.7212 49.2219 29.8907 48.1504 29.941C47.8819 29.953 47.6591 29.9628 47.4334 29.9706L47.2379 29.977C46.7417 29.9918 46.1675 29.9984 45.0342 30.0006L44.2834 30.0014C44.1916 30.0014 44.097 30.0014 43.9993 30.0014H43.7152L42.9644 30.0007C41.8311 29.9989 41.2568 29.9929 40.7606 29.9781L40.5652 29.9717C40.3394 29.9637 40.1167 29.9536 39.8482 29.941C38.7766 29.8916 38.0466 29.7212 37.4038 29.4728C36.7409 29.2169 36.1795 28.8703 35.6198 28.3115C35.0601 27.7518 34.7153 27.1887 34.4585 26.5275C34.2093 25.8855 34.0406 25.1547 33.9903 24.0831C33.9783 23.8147 33.9685 23.5919 33.9606 23.3661L33.9543 23.1706C33.9396 22.6745 33.9328 22.1001 33.9307 20.9669L33.9305 18.8972C33.9324 17.7639 33.9384 17.1895 33.9532 16.6934L33.9596 16.4979C33.9676 16.2721 33.9777 16.0494 33.9903 15.7809C34.0398 14.7085 34.2093 13.9785 34.4585 13.3365C34.7144 12.6736 35.0601 12.1123 35.6198 11.5526C36.1795 10.9929 36.7417 10.648 37.4038 10.3912C38.0457 10.142 38.7758 9.97334 39.8482 9.92299C40.1167 9.91104 40.3394 9.90128 40.5652 9.89338L40.7606 9.88704C41.2568 9.8723 41.8311 9.86559 42.9644 9.86341L45.0342 9.86328ZM43.9993 14.8973C41.2172 14.8973 38.9646 17.1524 38.9646 19.932C38.9646 22.7141 41.2196 24.9667 43.9993 24.9667C46.7814 24.9667 49.034 22.7117 49.034 19.932C49.034 17.1499 46.7789 14.8973 43.9993 14.8973ZM43.9993 16.9112C45.6677 16.9112 47.0201 18.2632 47.0201 19.932C47.0201 21.6004 45.6681 22.9528 43.9993 22.9528C42.3309 22.9528 40.9784 21.6009 40.9784 19.932C40.9784 18.2636 42.3304 16.9112 43.9993 16.9112ZM49.2858 13.3869C48.5917 13.3869 48.0271 13.9507 48.0271 14.6447C48.0271 15.3387 48.5909 15.9034 49.2858 15.9034C49.9797 15.9034 50.5444 15.3396 50.5444 14.6447C50.5444 13.9507 49.9788 13.386 49.2858 13.3869Z" fill="#252525"/>
</svg>
