<svg width="88" height="40" viewBox="0 0 88 40" fill="none" xmlns="http://www.w3.org/2000/svg">
<path d="M44 9.86328C49.5612 9.86328 54.0695 14.3715 54.0695 19.9327C54.0695 25.4939 49.5612 30.0022 44 30.0022C42.1534 30.0022 40.4228 29.5051 38.9349 28.6375L33.9348 30.0022L35.2961 24.9992C34.4279 23.511 33.9305 21.78 33.9305 19.9327C33.9305 14.3715 38.4388 9.86328 44 9.86328ZM40.3663 15.2085C40.236 15.2176 40.1082 15.2494 39.9919 15.3089C39.9047 15.3536 39.8237 15.4181 39.6964 15.5383C39.5762 15.6518 39.5066 15.7509 39.4332 15.8464C39.0609 16.3311 38.8609 16.926 38.8646 17.5372C38.8666 18.0312 38.9949 18.5113 39.1976 18.9596C39.6085 19.8687 40.2863 20.8297 41.1815 21.721C41.3966 21.935 41.6072 22.1514 41.8344 22.3514C42.9455 23.3298 44.2697 24.0352 45.7014 24.4118C45.7014 24.4118 46.2653 24.4984 46.2736 24.4989C46.4604 24.509 46.6469 24.4955 46.8338 24.4859C47.1272 24.4708 47.4135 24.3915 47.6727 24.2534C47.8394 24.1647 47.9182 24.1206 48.0581 24.0324C48.0581 24.0324 48.101 24.0034 48.1838 23.9418C48.3197 23.8405 48.4037 23.7692 48.5168 23.6518C48.6001 23.5652 48.6718 23.4629 48.7272 23.3476C48.806 23.1832 48.8852 22.8696 48.9167 22.6091C48.9408 22.4101 48.9335 22.3014 48.9309 22.234C48.9266 22.1256 48.8371 22.0142 48.739 21.9669L48.1534 21.7036C48.1534 21.7036 47.2779 21.3226 46.7424 21.0783C46.6866 21.0529 46.6256 21.0411 46.5643 21.0373C46.43 21.0291 46.2794 21.0641 46.1837 21.165C46.1786 21.163 46.112 21.2206 45.3834 22.1032C45.3433 22.1512 45.2491 22.2556 45.0863 22.2459C45.0617 22.2442 45.0373 22.2406 45.0134 22.2344C44.9474 22.217 44.8832 22.194 44.8204 22.1674C44.6958 22.1146 44.6521 22.0945 44.567 22.0579C43.9857 21.8039 43.4522 21.4642 42.9807 21.0484C42.8542 20.9371 42.7366 20.8171 42.6154 20.6996C42.1922 20.2895 41.8458 19.8533 41.5881 19.423C41.5741 19.3995 41.5524 19.3656 41.529 19.3277C41.4869 19.2591 41.4404 19.1775 41.4258 19.1215C41.3884 18.9734 41.4877 18.8544 41.4877 18.8544C41.4877 18.8544 41.7328 18.5864 41.8466 18.4407C41.9562 18.3005 42.0508 18.1633 42.111 18.0655C42.2296 17.8749 42.2672 17.6778 42.2048 17.5258C41.9223 16.837 41.6308 16.152 41.3305 15.4709C41.2712 15.3365 41.0948 15.2388 40.9345 15.2203C40.8801 15.214 40.8259 15.2077 40.7713 15.2041C40.6363 15.1975 40.5011 15.199 40.3663 15.2085Z" fill="#252525"/>
</svg>
