<svg width="88" height="40" viewBox="0 0 88 40" fill="none" xmlns="http://www.w3.org/2000/svg">
<rect width="88" height="40" fill="#1877F2"/>
<path d="M47.3589 29.1963V22.1823H49.7074L50.0589 19.4556H47.3589V17.7148C47.3589 16.9253 47.578 16.3873 48.7101 16.3873L50.1541 16.3866V13.9479C49.9042 13.9147 49.0472 13.8404 48.0501 13.8404C45.9682 13.8404 44.5431 15.1111 44.5431 17.4448V19.4556H42.1885V22.1823H44.5431V29.1963H35.8773C35.3212 29.1963 34.8704 28.7455 34.8704 28.1893V12.0782C34.8704 11.5221 35.3212 11.0713 35.8773 11.0713H51.9884C52.5446 11.0713 52.9954 11.5221 52.9954 12.0782V28.1893C52.9954 28.7455 52.5446 29.1963 51.9884 29.1963H47.3589Z" fill="#FBFBFB"/>
</svg>
